G04 #@! TF.GenerationSoftware,KiCad,Pcbnew,6.0.2*
G04 #@! TF.CreationDate,2022-02-11T23:35:56-08:00*
G04 #@! TF.ProjectId,Easy8085,45617379-3830-4383-952e-6b696361645f,rev?*
G04 #@! TF.SameCoordinates,Original*
G04 #@! TF.FileFunction,Legend,Top*
G04 #@! TF.FilePolarity,Positive*
%FSLAX46Y46*%
G04 Gerber Fmt 4.6, Leading zero omitted, Abs format (unit mm)*
G04 Created by KiCad (PCBNEW 6.0.2) date 2022-02-11 23:35:56*
%MOMM*%
%LPD*%
G01*
G04 APERTURE LIST*
%ADD10C,0.150000*%
%ADD11C,0.228600*%
%ADD12C,0.120000*%
G04 APERTURE END LIST*
D10*
X156591190Y-59400952D02*
X156495952Y-59353333D01*
X156448333Y-59305714D01*
X156400714Y-59210476D01*
X156400714Y-59162857D01*
X156448333Y-59067619D01*
X156495952Y-59020000D01*
X156591190Y-58972380D01*
X156781666Y-58972380D01*
X156876904Y-59020000D01*
X156924523Y-59067619D01*
X156972142Y-59162857D01*
X156972142Y-59210476D01*
X156924523Y-59305714D01*
X156876904Y-59353333D01*
X156781666Y-59400952D01*
X156591190Y-59400952D01*
X156495952Y-59448571D01*
X156448333Y-59496190D01*
X156400714Y-59591428D01*
X156400714Y-59781904D01*
X156448333Y-59877142D01*
X156495952Y-59924761D01*
X156591190Y-59972380D01*
X156781666Y-59972380D01*
X156876904Y-59924761D01*
X156924523Y-59877142D01*
X156972142Y-59781904D01*
X156972142Y-59591428D01*
X156924523Y-59496190D01*
X156876904Y-59448571D01*
X156781666Y-59400952D01*
X157353095Y-59067619D02*
X157400714Y-59020000D01*
X157495952Y-58972380D01*
X157734047Y-58972380D01*
X157829285Y-59020000D01*
X157876904Y-59067619D01*
X157924523Y-59162857D01*
X157924523Y-59258095D01*
X157876904Y-59400952D01*
X157305476Y-59972380D01*
X157924523Y-59972380D01*
X158829285Y-58972380D02*
X158353095Y-58972380D01*
X158305476Y-59448571D01*
X158353095Y-59400952D01*
X158448333Y-59353333D01*
X158686428Y-59353333D01*
X158781666Y-59400952D01*
X158829285Y-59448571D01*
X158876904Y-59543809D01*
X158876904Y-59781904D01*
X158829285Y-59877142D01*
X158781666Y-59924761D01*
X158686428Y-59972380D01*
X158448333Y-59972380D01*
X158353095Y-59924761D01*
X158305476Y-59877142D01*
X159829285Y-59972380D02*
X159257857Y-59972380D01*
X159543571Y-59972380D02*
X159543571Y-58972380D01*
X159448333Y-59115238D01*
X159353095Y-59210476D01*
X159257857Y-59258095D01*
X154472142Y-61534761D02*
X154615000Y-61582380D01*
X154853095Y-61582380D01*
X154948333Y-61534761D01*
X154995952Y-61487142D01*
X155043571Y-61391904D01*
X155043571Y-61296666D01*
X154995952Y-61201428D01*
X154948333Y-61153809D01*
X154853095Y-61106190D01*
X154662619Y-61058571D01*
X154567380Y-61010952D01*
X154519761Y-60963333D01*
X154472142Y-60868095D01*
X154472142Y-60772857D01*
X154519761Y-60677619D01*
X154567380Y-60630000D01*
X154662619Y-60582380D01*
X154900714Y-60582380D01*
X155043571Y-60630000D01*
X155853095Y-61534761D02*
X155757857Y-61582380D01*
X155567380Y-61582380D01*
X155472142Y-61534761D01*
X155424523Y-61439523D01*
X155424523Y-61058571D01*
X155472142Y-60963333D01*
X155567380Y-60915714D01*
X155757857Y-60915714D01*
X155853095Y-60963333D01*
X155900714Y-61058571D01*
X155900714Y-61153809D01*
X155424523Y-61249047D01*
X156329285Y-61582380D02*
X156329285Y-60915714D01*
X156329285Y-61106190D02*
X156376904Y-61010952D01*
X156424523Y-60963333D01*
X156519761Y-60915714D01*
X156615000Y-60915714D01*
X156948333Y-61582380D02*
X156948333Y-60915714D01*
X156948333Y-60582380D02*
X156900714Y-60630000D01*
X156948333Y-60677619D01*
X156995952Y-60630000D01*
X156948333Y-60582380D01*
X156948333Y-60677619D01*
X157853095Y-61582380D02*
X157853095Y-61058571D01*
X157805476Y-60963333D01*
X157710238Y-60915714D01*
X157519761Y-60915714D01*
X157424523Y-60963333D01*
X157853095Y-61534761D02*
X157757857Y-61582380D01*
X157519761Y-61582380D01*
X157424523Y-61534761D01*
X157376904Y-61439523D01*
X157376904Y-61344285D01*
X157424523Y-61249047D01*
X157519761Y-61201428D01*
X157757857Y-61201428D01*
X157853095Y-61153809D01*
X158472142Y-61582380D02*
X158376904Y-61534761D01*
X158329285Y-61439523D01*
X158329285Y-60582380D01*
X159615000Y-61582380D02*
X159615000Y-60582380D01*
X160805476Y-60534761D02*
X159948333Y-61820476D01*
X161329285Y-60582380D02*
X161519761Y-60582380D01*
X161615000Y-60630000D01*
X161710238Y-60725238D01*
X161757857Y-60915714D01*
X161757857Y-61249047D01*
X161710238Y-61439523D01*
X161615000Y-61534761D01*
X161519761Y-61582380D01*
X161329285Y-61582380D01*
X161234047Y-61534761D01*
X161138809Y-61439523D01*
X161091190Y-61249047D01*
X161091190Y-60915714D01*
X161138809Y-60725238D01*
X161234047Y-60630000D01*
X161329285Y-60582380D01*
X94382166Y-87493928D02*
X94382166Y-87796309D01*
X94200738Y-87433452D02*
X94835738Y-87645119D01*
X94200738Y-87856785D01*
X94200738Y-88068452D02*
X94835738Y-88068452D01*
X94835738Y-88219642D01*
X94805500Y-88310357D01*
X94745023Y-88370833D01*
X94684547Y-88401071D01*
X94563595Y-88431309D01*
X94472880Y-88431309D01*
X94351928Y-88401071D01*
X94291452Y-88370833D01*
X94230976Y-88310357D01*
X94200738Y-88219642D01*
X94200738Y-88068452D01*
X94775261Y-88673214D02*
X94805500Y-88703452D01*
X94835738Y-88763928D01*
X94835738Y-88915119D01*
X94805500Y-88975595D01*
X94775261Y-89005833D01*
X94714785Y-89036071D01*
X94654309Y-89036071D01*
X94563595Y-89005833D01*
X94200738Y-88642976D01*
X94200738Y-89036071D01*
X170815095Y-67445000D02*
X170719857Y-67397380D01*
X170577000Y-67397380D01*
X170434142Y-67445000D01*
X170338904Y-67540238D01*
X170291285Y-67635476D01*
X170243666Y-67825952D01*
X170243666Y-67968809D01*
X170291285Y-68159285D01*
X170338904Y-68254523D01*
X170434142Y-68349761D01*
X170577000Y-68397380D01*
X170672238Y-68397380D01*
X170815095Y-68349761D01*
X170862714Y-68302142D01*
X170862714Y-67968809D01*
X170672238Y-67968809D01*
X171291285Y-68397380D02*
X171291285Y-67397380D01*
X171862714Y-68397380D01*
X171862714Y-67397380D01*
X172338904Y-68397380D02*
X172338904Y-67397380D01*
X172577000Y-67397380D01*
X172719857Y-67445000D01*
X172815095Y-67540238D01*
X172862714Y-67635476D01*
X172910333Y-67825952D01*
X172910333Y-67968809D01*
X172862714Y-68159285D01*
X172815095Y-68254523D01*
X172719857Y-68349761D01*
X172577000Y-68397380D01*
X172338904Y-68397380D01*
X88201500Y-103988809D02*
X88171261Y-104049285D01*
X88171261Y-104140000D01*
X88201500Y-104230714D01*
X88261976Y-104291190D01*
X88322452Y-104321428D01*
X88443404Y-104351666D01*
X88534119Y-104351666D01*
X88655071Y-104321428D01*
X88715547Y-104291190D01*
X88776023Y-104230714D01*
X88806261Y-104140000D01*
X88806261Y-104079523D01*
X88776023Y-103988809D01*
X88745785Y-103958571D01*
X88534119Y-103958571D01*
X88534119Y-104079523D01*
X88806261Y-103686428D02*
X88171261Y-103686428D01*
X88806261Y-103323571D01*
X88171261Y-103323571D01*
X88806261Y-103021190D02*
X88171261Y-103021190D01*
X88171261Y-102870000D01*
X88201500Y-102779285D01*
X88261976Y-102718809D01*
X88322452Y-102688571D01*
X88443404Y-102658333D01*
X88534119Y-102658333D01*
X88655071Y-102688571D01*
X88715547Y-102718809D01*
X88776023Y-102779285D01*
X88806261Y-102870000D01*
X88806261Y-103021190D01*
X94230976Y-62214880D02*
X94200738Y-62305595D01*
X94200738Y-62456785D01*
X94230976Y-62517261D01*
X94261214Y-62547500D01*
X94321690Y-62577738D01*
X94382166Y-62577738D01*
X94442642Y-62547500D01*
X94472880Y-62517261D01*
X94503119Y-62456785D01*
X94533357Y-62335833D01*
X94563595Y-62275357D01*
X94593833Y-62245119D01*
X94654309Y-62214880D01*
X94714785Y-62214880D01*
X94775261Y-62245119D01*
X94805500Y-62275357D01*
X94835738Y-62335833D01*
X94835738Y-62487023D01*
X94805500Y-62577738D01*
X94200738Y-62849880D02*
X94835738Y-62849880D01*
X94200738Y-63152261D02*
X94835738Y-63152261D01*
X94835738Y-63303452D01*
X94805500Y-63394166D01*
X94745023Y-63454642D01*
X94684547Y-63484880D01*
X94563595Y-63515119D01*
X94472880Y-63515119D01*
X94351928Y-63484880D01*
X94291452Y-63454642D01*
X94230976Y-63394166D01*
X94200738Y-63303452D01*
X94200738Y-63152261D01*
X123958047Y-100934761D02*
X123958047Y-101176666D01*
X124018523Y-101176666D02*
X124018523Y-100934761D01*
X124079000Y-100874285D02*
X124079000Y-101237142D01*
X124139476Y-101176666D02*
X124139476Y-100934761D01*
X124199952Y-100934761D02*
X124199952Y-101176666D01*
X123958047Y-101116190D02*
X124079000Y-101237142D01*
X124199952Y-101116190D01*
X123958047Y-100995238D02*
X124079000Y-100874285D01*
X124199952Y-100995238D01*
X123958047Y-100934761D02*
X124079000Y-100874285D01*
X124199952Y-100934761D01*
X124260428Y-101055714D01*
X124199952Y-101176666D01*
X124079000Y-101237142D01*
X123958047Y-101176666D01*
X123897571Y-101055714D01*
X123958047Y-100934761D01*
X94382166Y-112893928D02*
X94382166Y-113196309D01*
X94200738Y-112833452D02*
X94835738Y-113045119D01*
X94200738Y-113256785D01*
X94200738Y-113468452D02*
X94835738Y-113468452D01*
X94835738Y-113619642D01*
X94805500Y-113710357D01*
X94745023Y-113770833D01*
X94684547Y-113801071D01*
X94563595Y-113831309D01*
X94472880Y-113831309D01*
X94351928Y-113801071D01*
X94291452Y-113770833D01*
X94230976Y-113710357D01*
X94200738Y-113619642D01*
X94200738Y-113468452D01*
X94835738Y-114042976D02*
X94835738Y-114466309D01*
X94200738Y-114194166D01*
X94382166Y-77333928D02*
X94382166Y-77636309D01*
X94200738Y-77273452D02*
X94835738Y-77485119D01*
X94200738Y-77696785D01*
X94200738Y-77908452D02*
X94835738Y-77908452D01*
X94835738Y-78059642D01*
X94805500Y-78150357D01*
X94745023Y-78210833D01*
X94684547Y-78241071D01*
X94563595Y-78271309D01*
X94472880Y-78271309D01*
X94351928Y-78241071D01*
X94291452Y-78210833D01*
X94230976Y-78150357D01*
X94200738Y-78059642D01*
X94200738Y-77908452D01*
X94835738Y-78664404D02*
X94835738Y-78724880D01*
X94805500Y-78785357D01*
X94775261Y-78815595D01*
X94714785Y-78845833D01*
X94593833Y-78876071D01*
X94442642Y-78876071D01*
X94321690Y-78845833D01*
X94261214Y-78815595D01*
X94230976Y-78785357D01*
X94200738Y-78724880D01*
X94200738Y-78664404D01*
X94230976Y-78603928D01*
X94261214Y-78573690D01*
X94321690Y-78543452D01*
X94442642Y-78513214D01*
X94593833Y-78513214D01*
X94714785Y-78543452D01*
X94775261Y-78573690D01*
X94805500Y-78603928D01*
X94835738Y-78664404D01*
X94200738Y-56484761D02*
X94503119Y-56273095D01*
X94200738Y-56121904D02*
X94835738Y-56121904D01*
X94835738Y-56363809D01*
X94805500Y-56424285D01*
X94775261Y-56454523D01*
X94714785Y-56484761D01*
X94624071Y-56484761D01*
X94563595Y-56454523D01*
X94533357Y-56424285D01*
X94503119Y-56363809D01*
X94503119Y-56121904D01*
X94533357Y-56756904D02*
X94533357Y-56968571D01*
X94200738Y-57059285D02*
X94200738Y-56756904D01*
X94835738Y-56756904D01*
X94835738Y-57059285D01*
X94230976Y-57301190D02*
X94200738Y-57391904D01*
X94200738Y-57543095D01*
X94230976Y-57603571D01*
X94261214Y-57633809D01*
X94321690Y-57664047D01*
X94382166Y-57664047D01*
X94442642Y-57633809D01*
X94472880Y-57603571D01*
X94503119Y-57543095D01*
X94533357Y-57422142D01*
X94563595Y-57361666D01*
X94593833Y-57331428D01*
X94654309Y-57301190D01*
X94714785Y-57301190D01*
X94775261Y-57331428D01*
X94805500Y-57361666D01*
X94835738Y-57422142D01*
X94835738Y-57573333D01*
X94805500Y-57664047D01*
X94835738Y-58057142D02*
X94835738Y-58178095D01*
X94805500Y-58238571D01*
X94745023Y-58299047D01*
X94624071Y-58329285D01*
X94412404Y-58329285D01*
X94291452Y-58299047D01*
X94230976Y-58238571D01*
X94200738Y-58178095D01*
X94200738Y-58057142D01*
X94230976Y-57996666D01*
X94291452Y-57936190D01*
X94412404Y-57905952D01*
X94624071Y-57905952D01*
X94745023Y-57936190D01*
X94805500Y-57996666D01*
X94835738Y-58057142D01*
X94835738Y-58601428D02*
X94321690Y-58601428D01*
X94261214Y-58631666D01*
X94230976Y-58661904D01*
X94200738Y-58722380D01*
X94200738Y-58843333D01*
X94230976Y-58903809D01*
X94261214Y-58934047D01*
X94321690Y-58964285D01*
X94835738Y-58964285D01*
X94835738Y-59175952D02*
X94835738Y-59538809D01*
X94200738Y-59357380D02*
X94835738Y-59357380D01*
X88624833Y-93798571D02*
X88624833Y-93496190D01*
X88806261Y-93859047D02*
X88171261Y-93647380D01*
X88806261Y-93435714D01*
X88806261Y-93193809D02*
X88806261Y-93072857D01*
X88776023Y-93012380D01*
X88745785Y-92982142D01*
X88655071Y-92921666D01*
X88534119Y-92891428D01*
X88292214Y-92891428D01*
X88231738Y-92921666D01*
X88201500Y-92951904D01*
X88171261Y-93012380D01*
X88171261Y-93133333D01*
X88201500Y-93193809D01*
X88231738Y-93224047D01*
X88292214Y-93254285D01*
X88443404Y-93254285D01*
X88503880Y-93224047D01*
X88534119Y-93193809D01*
X88564357Y-93133333D01*
X88564357Y-93012380D01*
X88534119Y-92951904D01*
X88503880Y-92921666D01*
X88443404Y-92891428D01*
D11*
X96628857Y-131807857D02*
X97898857Y-131807857D01*
X98443142Y-133803571D02*
X96628857Y-133803571D01*
X96628857Y-129993571D01*
X98443142Y-129993571D01*
X99894571Y-132715000D02*
X101708857Y-132715000D01*
X99531714Y-133803571D02*
X100801714Y-129993571D01*
X102071714Y-133803571D01*
X103160285Y-133622142D02*
X103704571Y-133803571D01*
X104611714Y-133803571D01*
X104974571Y-133622142D01*
X105156000Y-133440714D01*
X105337428Y-133077857D01*
X105337428Y-132715000D01*
X105156000Y-132352142D01*
X104974571Y-132170714D01*
X104611714Y-131989285D01*
X103886000Y-131807857D01*
X103523142Y-131626428D01*
X103341714Y-131445000D01*
X103160285Y-131082142D01*
X103160285Y-130719285D01*
X103341714Y-130356428D01*
X103523142Y-130175000D01*
X103886000Y-129993571D01*
X104793142Y-129993571D01*
X105337428Y-130175000D01*
X107696000Y-131989285D02*
X107696000Y-133803571D01*
X106426000Y-129993571D02*
X107696000Y-131989285D01*
X108966000Y-129993571D01*
X110236000Y-132352142D02*
X113138857Y-132352142D01*
X115497428Y-131626428D02*
X115134571Y-131445000D01*
X114953142Y-131263571D01*
X114771714Y-130900714D01*
X114771714Y-130719285D01*
X114953142Y-130356428D01*
X115134571Y-130175000D01*
X115497428Y-129993571D01*
X116223142Y-129993571D01*
X116586000Y-130175000D01*
X116767428Y-130356428D01*
X116948857Y-130719285D01*
X116948857Y-130900714D01*
X116767428Y-131263571D01*
X116586000Y-131445000D01*
X116223142Y-131626428D01*
X115497428Y-131626428D01*
X115134571Y-131807857D01*
X114953142Y-131989285D01*
X114771714Y-132352142D01*
X114771714Y-133077857D01*
X114953142Y-133440714D01*
X115134571Y-133622142D01*
X115497428Y-133803571D01*
X116223142Y-133803571D01*
X116586000Y-133622142D01*
X116767428Y-133440714D01*
X116948857Y-133077857D01*
X116948857Y-132352142D01*
X116767428Y-131989285D01*
X116586000Y-131807857D01*
X116223142Y-131626428D01*
X119307428Y-129993571D02*
X119670285Y-129993571D01*
X120033142Y-130175000D01*
X120214571Y-130356428D01*
X120396000Y-130719285D01*
X120577428Y-131445000D01*
X120577428Y-132352142D01*
X120396000Y-133077857D01*
X120214571Y-133440714D01*
X120033142Y-133622142D01*
X119670285Y-133803571D01*
X119307428Y-133803571D01*
X118944571Y-133622142D01*
X118763142Y-133440714D01*
X118581714Y-133077857D01*
X118400285Y-132352142D01*
X118400285Y-131445000D01*
X118581714Y-130719285D01*
X118763142Y-130356428D01*
X118944571Y-130175000D01*
X119307428Y-129993571D01*
X122754571Y-131626428D02*
X122391714Y-131445000D01*
X122210285Y-131263571D01*
X122028857Y-130900714D01*
X122028857Y-130719285D01*
X122210285Y-130356428D01*
X122391714Y-130175000D01*
X122754571Y-129993571D01*
X123480285Y-129993571D01*
X123843142Y-130175000D01*
X124024571Y-130356428D01*
X124206000Y-130719285D01*
X124206000Y-130900714D01*
X124024571Y-131263571D01*
X123843142Y-131445000D01*
X123480285Y-131626428D01*
X122754571Y-131626428D01*
X122391714Y-131807857D01*
X122210285Y-131989285D01*
X122028857Y-132352142D01*
X122028857Y-133077857D01*
X122210285Y-133440714D01*
X122391714Y-133622142D01*
X122754571Y-133803571D01*
X123480285Y-133803571D01*
X123843142Y-133622142D01*
X124024571Y-133440714D01*
X124206000Y-133077857D01*
X124206000Y-132352142D01*
X124024571Y-131989285D01*
X123843142Y-131807857D01*
X123480285Y-131626428D01*
X127653142Y-129993571D02*
X125838857Y-129993571D01*
X125657428Y-131807857D01*
X125838857Y-131626428D01*
X126201714Y-131445000D01*
X127108857Y-131445000D01*
X127471714Y-131626428D01*
X127653142Y-131807857D01*
X127834571Y-132170714D01*
X127834571Y-133077857D01*
X127653142Y-133440714D01*
X127471714Y-133622142D01*
X127108857Y-133803571D01*
X126201714Y-133803571D01*
X125838857Y-133622142D01*
X125657428Y-133440714D01*
D10*
X142373047Y-121254761D02*
X142373047Y-121496666D01*
X142433523Y-121496666D02*
X142433523Y-121254761D01*
X142494000Y-121194285D02*
X142494000Y-121557142D01*
X142554476Y-121496666D02*
X142554476Y-121254761D01*
X142614952Y-121254761D02*
X142614952Y-121496666D01*
X142373047Y-121436190D02*
X142494000Y-121557142D01*
X142614952Y-121436190D01*
X142373047Y-121315238D02*
X142494000Y-121194285D01*
X142614952Y-121315238D01*
X142373047Y-121254761D02*
X142494000Y-121194285D01*
X142614952Y-121254761D01*
X142675428Y-121375714D01*
X142614952Y-121496666D01*
X142494000Y-121557142D01*
X142373047Y-121496666D01*
X142312571Y-121375714D01*
X142373047Y-121254761D01*
X88201500Y-119228809D02*
X88171261Y-119289285D01*
X88171261Y-119380000D01*
X88201500Y-119470714D01*
X88261976Y-119531190D01*
X88322452Y-119561428D01*
X88443404Y-119591666D01*
X88534119Y-119591666D01*
X88655071Y-119561428D01*
X88715547Y-119531190D01*
X88776023Y-119470714D01*
X88806261Y-119380000D01*
X88806261Y-119319523D01*
X88776023Y-119228809D01*
X88745785Y-119198571D01*
X88534119Y-119198571D01*
X88534119Y-119319523D01*
X88806261Y-118926428D02*
X88171261Y-118926428D01*
X88806261Y-118563571D01*
X88171261Y-118563571D01*
X88806261Y-118261190D02*
X88171261Y-118261190D01*
X88171261Y-118110000D01*
X88201500Y-118019285D01*
X88261976Y-117958809D01*
X88322452Y-117928571D01*
X88443404Y-117898333D01*
X88534119Y-117898333D01*
X88655071Y-117928571D01*
X88715547Y-117958809D01*
X88776023Y-118019285D01*
X88806261Y-118110000D01*
X88806261Y-118261190D01*
X94382166Y-85271428D02*
X94382166Y-85573809D01*
X94200738Y-85210952D02*
X94835738Y-85422619D01*
X94200738Y-85634285D01*
X94200738Y-86178571D02*
X94200738Y-85815714D01*
X94200738Y-85997142D02*
X94835738Y-85997142D01*
X94745023Y-85936666D01*
X94684547Y-85876190D01*
X94654309Y-85815714D01*
X94805500Y-118261190D02*
X94835738Y-118200714D01*
X94835738Y-118110000D01*
X94805500Y-118019285D01*
X94745023Y-117958809D01*
X94684547Y-117928571D01*
X94563595Y-117898333D01*
X94472880Y-117898333D01*
X94351928Y-117928571D01*
X94291452Y-117958809D01*
X94230976Y-118019285D01*
X94200738Y-118110000D01*
X94200738Y-118170476D01*
X94230976Y-118261190D01*
X94261214Y-118291428D01*
X94472880Y-118291428D01*
X94472880Y-118170476D01*
X94200738Y-118563571D02*
X94835738Y-118563571D01*
X94200738Y-118926428D01*
X94835738Y-118926428D01*
X94200738Y-119228809D02*
X94835738Y-119228809D01*
X94835738Y-119380000D01*
X94805500Y-119470714D01*
X94745023Y-119531190D01*
X94684547Y-119561428D01*
X94563595Y-119591666D01*
X94472880Y-119591666D01*
X94351928Y-119561428D01*
X94291452Y-119531190D01*
X94230976Y-119470714D01*
X94200738Y-119380000D01*
X94200738Y-119228809D01*
X161804047Y-54325761D02*
X161804047Y-54567666D01*
X161864523Y-54567666D02*
X161864523Y-54325761D01*
X161925000Y-54265285D02*
X161925000Y-54628142D01*
X161985476Y-54567666D02*
X161985476Y-54325761D01*
X162045952Y-54325761D02*
X162045952Y-54567666D01*
X161804047Y-54507190D02*
X161925000Y-54628142D01*
X162045952Y-54507190D01*
X161804047Y-54386238D02*
X161925000Y-54265285D01*
X162045952Y-54386238D01*
X161804047Y-54325761D02*
X161925000Y-54265285D01*
X162045952Y-54325761D01*
X162106428Y-54446714D01*
X162045952Y-54567666D01*
X161925000Y-54628142D01*
X161804047Y-54567666D01*
X161743571Y-54446714D01*
X161804047Y-54325761D01*
X87991950Y-76245357D02*
X87991950Y-75519642D01*
X88171261Y-76154642D02*
X88806261Y-76003452D01*
X88352690Y-75882500D01*
X88806261Y-75761547D01*
X88171261Y-75610357D01*
X87991950Y-75519642D02*
X87991950Y-74884642D01*
X88806261Y-75005595D02*
X88503880Y-75217261D01*
X88806261Y-75368452D02*
X88171261Y-75368452D01*
X88171261Y-75126547D01*
X88201500Y-75066071D01*
X88231738Y-75035833D01*
X88292214Y-75005595D01*
X88382928Y-75005595D01*
X88443404Y-75035833D01*
X88473642Y-75066071D01*
X88503880Y-75126547D01*
X88503880Y-75368452D01*
X94382166Y-92573928D02*
X94382166Y-92876309D01*
X94200738Y-92513452D02*
X94835738Y-92725119D01*
X94200738Y-92936785D01*
X94200738Y-93148452D02*
X94835738Y-93148452D01*
X94835738Y-93299642D01*
X94805500Y-93390357D01*
X94745023Y-93450833D01*
X94684547Y-93481071D01*
X94563595Y-93511309D01*
X94472880Y-93511309D01*
X94351928Y-93481071D01*
X94291452Y-93450833D01*
X94230976Y-93390357D01*
X94200738Y-93299642D01*
X94200738Y-93148452D01*
X94835738Y-93722976D02*
X94835738Y-94116071D01*
X94593833Y-93904404D01*
X94593833Y-93995119D01*
X94563595Y-94055595D01*
X94533357Y-94085833D01*
X94472880Y-94116071D01*
X94321690Y-94116071D01*
X94261214Y-94085833D01*
X94230976Y-94055595D01*
X94200738Y-93995119D01*
X94200738Y-93813690D01*
X94230976Y-93753214D01*
X94261214Y-93722976D01*
X163963047Y-121127761D02*
X163963047Y-121369666D01*
X164023523Y-121369666D02*
X164023523Y-121127761D01*
X164084000Y-121067285D02*
X164084000Y-121430142D01*
X164144476Y-121369666D02*
X164144476Y-121127761D01*
X164204952Y-121127761D02*
X164204952Y-121369666D01*
X163963047Y-121309190D02*
X164084000Y-121430142D01*
X164204952Y-121309190D01*
X163963047Y-121188238D02*
X164084000Y-121067285D01*
X164204952Y-121188238D01*
X163963047Y-121127761D02*
X164084000Y-121067285D01*
X164204952Y-121127761D01*
X164265428Y-121248714D01*
X164204952Y-121369666D01*
X164084000Y-121430142D01*
X163963047Y-121369666D01*
X163902571Y-121248714D01*
X163963047Y-121127761D01*
X94382166Y-90351428D02*
X94382166Y-90653809D01*
X94200738Y-90290952D02*
X94835738Y-90502619D01*
X94200738Y-90714285D01*
X94775261Y-90895714D02*
X94805500Y-90925952D01*
X94835738Y-90986428D01*
X94835738Y-91137619D01*
X94805500Y-91198095D01*
X94775261Y-91228333D01*
X94714785Y-91258571D01*
X94654309Y-91258571D01*
X94563595Y-91228333D01*
X94200738Y-90865476D01*
X94200738Y-91258571D01*
X94200738Y-69925595D02*
X94503119Y-69713928D01*
X94200738Y-69562738D02*
X94835738Y-69562738D01*
X94835738Y-69804642D01*
X94805500Y-69865119D01*
X94775261Y-69895357D01*
X94714785Y-69925595D01*
X94624071Y-69925595D01*
X94563595Y-69895357D01*
X94533357Y-69865119D01*
X94503119Y-69804642D01*
X94503119Y-69562738D01*
X94835738Y-70500119D02*
X94835738Y-70197738D01*
X94533357Y-70167500D01*
X94563595Y-70197738D01*
X94593833Y-70258214D01*
X94593833Y-70409404D01*
X94563595Y-70469880D01*
X94533357Y-70500119D01*
X94472880Y-70530357D01*
X94321690Y-70530357D01*
X94261214Y-70500119D01*
X94230976Y-70469880D01*
X94200738Y-70409404D01*
X94200738Y-70258214D01*
X94230976Y-70197738D01*
X94261214Y-70167500D01*
X94261214Y-70802500D02*
X94230976Y-70832738D01*
X94200738Y-70802500D01*
X94230976Y-70772261D01*
X94261214Y-70802500D01*
X94200738Y-70802500D01*
X94835738Y-71407261D02*
X94835738Y-71104880D01*
X94533357Y-71074642D01*
X94563595Y-71104880D01*
X94593833Y-71165357D01*
X94593833Y-71316547D01*
X94563595Y-71377023D01*
X94533357Y-71407261D01*
X94472880Y-71437500D01*
X94321690Y-71437500D01*
X94261214Y-71407261D01*
X94230976Y-71377023D01*
X94200738Y-71316547D01*
X94200738Y-71165357D01*
X94230976Y-71104880D01*
X94261214Y-71074642D01*
X88624833Y-89020952D02*
X88624833Y-88718571D01*
X88806261Y-89081428D02*
X88171261Y-88869761D01*
X88806261Y-88658095D01*
X88806261Y-88113809D02*
X88806261Y-88476666D01*
X88806261Y-88295238D02*
X88171261Y-88295238D01*
X88261976Y-88355714D01*
X88322452Y-88416190D01*
X88352690Y-88476666D01*
X88806261Y-87509047D02*
X88806261Y-87871904D01*
X88806261Y-87690476D02*
X88171261Y-87690476D01*
X88261976Y-87750952D01*
X88322452Y-87811428D01*
X88352690Y-87871904D01*
X176546619Y-52760571D02*
X176213285Y-52760571D01*
X176213285Y-53284380D02*
X176213285Y-52284380D01*
X176689476Y-52284380D01*
X176927571Y-52284380D02*
X177499000Y-52284380D01*
X177213285Y-53284380D02*
X177213285Y-52284380D01*
X177832333Y-53284380D02*
X177832333Y-52284380D01*
X178070428Y-52284380D01*
X178213285Y-52332000D01*
X178308523Y-52427238D01*
X178356142Y-52522476D01*
X178403762Y-52712952D01*
X178403762Y-52855809D01*
X178356142Y-53046285D01*
X178308523Y-53141523D01*
X178213285Y-53236761D01*
X178070428Y-53284380D01*
X177832333Y-53284380D01*
X178832333Y-53284380D02*
X178832333Y-52284380D01*
X180022809Y-53236761D02*
X180165666Y-53284380D01*
X180403762Y-53284380D01*
X180499000Y-53236761D01*
X180546619Y-53189142D01*
X180594238Y-53093904D01*
X180594238Y-52998666D01*
X180546619Y-52903428D01*
X180499000Y-52855809D01*
X180403762Y-52808190D01*
X180213285Y-52760571D01*
X180118047Y-52712952D01*
X180070428Y-52665333D01*
X180022809Y-52570095D01*
X180022809Y-52474857D01*
X180070428Y-52379619D01*
X180118047Y-52332000D01*
X180213285Y-52284380D01*
X180451381Y-52284380D01*
X180594238Y-52332000D01*
X181022809Y-52760571D02*
X181356142Y-52760571D01*
X181499000Y-53284380D02*
X181022809Y-53284380D01*
X181022809Y-52284380D01*
X181499000Y-52284380D01*
X182499000Y-53284380D02*
X182165666Y-52808190D01*
X181927571Y-53284380D02*
X181927571Y-52284380D01*
X182308523Y-52284380D01*
X182403762Y-52332000D01*
X182451381Y-52379619D01*
X182499000Y-52474857D01*
X182499000Y-52617714D01*
X182451381Y-52712952D01*
X182403762Y-52760571D01*
X182308523Y-52808190D01*
X181927571Y-52808190D01*
X182927571Y-53284380D02*
X182927571Y-52284380D01*
X183356142Y-52998666D02*
X183832333Y-52998666D01*
X183260904Y-53284380D02*
X183594238Y-52284380D01*
X183927571Y-53284380D01*
X184737095Y-53284380D02*
X184260904Y-53284380D01*
X184260904Y-52284380D01*
X87991950Y-109764285D02*
X87991950Y-109159523D01*
X88231738Y-109643333D02*
X88201500Y-109613095D01*
X88171261Y-109552619D01*
X88171261Y-109401428D01*
X88201500Y-109340952D01*
X88231738Y-109310714D01*
X88292214Y-109280476D01*
X88352690Y-109280476D01*
X88443404Y-109310714D01*
X88806261Y-109673571D01*
X88806261Y-109280476D01*
X87991950Y-109159523D02*
X87991950Y-108554761D01*
X88171261Y-108887380D02*
X88171261Y-108826904D01*
X88201500Y-108766428D01*
X88231738Y-108736190D01*
X88292214Y-108705952D01*
X88413166Y-108675714D01*
X88564357Y-108675714D01*
X88685309Y-108705952D01*
X88745785Y-108736190D01*
X88776023Y-108766428D01*
X88806261Y-108826904D01*
X88806261Y-108887380D01*
X88776023Y-108947857D01*
X88745785Y-108978095D01*
X88685309Y-109008333D01*
X88564357Y-109038571D01*
X88413166Y-109038571D01*
X88292214Y-109008333D01*
X88231738Y-108978095D01*
X88201500Y-108947857D01*
X88171261Y-108887380D01*
X87991950Y-108554761D02*
X87991950Y-107950000D01*
X88171261Y-108464047D02*
X88171261Y-108070952D01*
X88413166Y-108282619D01*
X88413166Y-108191904D01*
X88443404Y-108131428D01*
X88473642Y-108101190D01*
X88534119Y-108070952D01*
X88685309Y-108070952D01*
X88745785Y-108101190D01*
X88776023Y-108131428D01*
X88806261Y-108191904D01*
X88806261Y-108373333D01*
X88776023Y-108433809D01*
X88745785Y-108464047D01*
X87991950Y-107950000D02*
X87991950Y-107405714D01*
X88473642Y-107587142D02*
X88473642Y-107798809D01*
X88806261Y-107798809D02*
X88171261Y-107798809D01*
X88171261Y-107496428D01*
X100767428Y-39303142D02*
X100719809Y-39350761D01*
X100576952Y-39398380D01*
X100481714Y-39398380D01*
X100338857Y-39350761D01*
X100243619Y-39255523D01*
X100196000Y-39160285D01*
X100148380Y-38969809D01*
X100148380Y-38826952D01*
X100196000Y-38636476D01*
X100243619Y-38541238D01*
X100338857Y-38446000D01*
X100481714Y-38398380D01*
X100576952Y-38398380D01*
X100719809Y-38446000D01*
X100767428Y-38493619D01*
X101719809Y-39398380D02*
X101148380Y-39398380D01*
X101434095Y-39398380D02*
X101434095Y-38398380D01*
X101338857Y-38541238D01*
X101243619Y-38636476D01*
X101148380Y-38684095D01*
X102862666Y-39112666D02*
X103338857Y-39112666D01*
X102767428Y-39398380D02*
X103100761Y-38398380D01*
X103434095Y-39398380D01*
X103767428Y-39398380D02*
X103767428Y-38398380D01*
X104338857Y-39398380D01*
X104338857Y-38398380D01*
X104815047Y-39398380D02*
X104815047Y-38398380D01*
X105053142Y-38398380D01*
X105196000Y-38446000D01*
X105291238Y-38541238D01*
X105338857Y-38636476D01*
X105386476Y-38826952D01*
X105386476Y-38969809D01*
X105338857Y-39160285D01*
X105291238Y-39255523D01*
X105196000Y-39350761D01*
X105053142Y-39398380D01*
X104815047Y-39398380D01*
X107148380Y-39303142D02*
X107100761Y-39350761D01*
X106957904Y-39398380D01*
X106862666Y-39398380D01*
X106719809Y-39350761D01*
X106624571Y-39255523D01*
X106576952Y-39160285D01*
X106529333Y-38969809D01*
X106529333Y-38826952D01*
X106576952Y-38636476D01*
X106624571Y-38541238D01*
X106719809Y-38446000D01*
X106862666Y-38398380D01*
X106957904Y-38398380D01*
X107100761Y-38446000D01*
X107148380Y-38493619D01*
X107529333Y-38493619D02*
X107576952Y-38446000D01*
X107672190Y-38398380D01*
X107910285Y-38398380D01*
X108005523Y-38446000D01*
X108053142Y-38493619D01*
X108100761Y-38588857D01*
X108100761Y-38684095D01*
X108053142Y-38826952D01*
X107481714Y-39398380D01*
X108100761Y-39398380D01*
X109243619Y-39112666D02*
X109719809Y-39112666D01*
X109148380Y-39398380D02*
X109481714Y-38398380D01*
X109815047Y-39398380D01*
X110719809Y-39398380D02*
X110386476Y-38922190D01*
X110148380Y-39398380D02*
X110148380Y-38398380D01*
X110529333Y-38398380D01*
X110624571Y-38446000D01*
X110672190Y-38493619D01*
X110719809Y-38588857D01*
X110719809Y-38731714D01*
X110672190Y-38826952D01*
X110624571Y-38874571D01*
X110529333Y-38922190D01*
X110148380Y-38922190D01*
X111148380Y-38874571D02*
X111481714Y-38874571D01*
X111624571Y-39398380D02*
X111148380Y-39398380D01*
X111148380Y-38398380D01*
X111624571Y-38398380D01*
X112815047Y-39398380D02*
X112815047Y-38398380D01*
X113386476Y-39398380D01*
X113386476Y-38398380D01*
X114053142Y-38398380D02*
X114243619Y-38398380D01*
X114338857Y-38446000D01*
X114434095Y-38541238D01*
X114481714Y-38731714D01*
X114481714Y-39065047D01*
X114434095Y-39255523D01*
X114338857Y-39350761D01*
X114243619Y-39398380D01*
X114053142Y-39398380D01*
X113957904Y-39350761D01*
X113862666Y-39255523D01*
X113815047Y-39065047D01*
X113815047Y-38731714D01*
X113862666Y-38541238D01*
X113957904Y-38446000D01*
X114053142Y-38398380D01*
X114767428Y-38398380D02*
X115338857Y-38398380D01*
X115053142Y-39398380D02*
X115053142Y-38398380D01*
X100886476Y-41008380D02*
X100886476Y-40008380D01*
X101457904Y-41008380D01*
X101457904Y-40008380D01*
X102124571Y-40008380D02*
X102315047Y-40008380D01*
X102410285Y-40056000D01*
X102505523Y-40151238D01*
X102553142Y-40341714D01*
X102553142Y-40675047D01*
X102505523Y-40865523D01*
X102410285Y-40960761D01*
X102315047Y-41008380D01*
X102124571Y-41008380D01*
X102029333Y-40960761D01*
X101934095Y-40865523D01*
X101886476Y-40675047D01*
X101886476Y-40341714D01*
X101934095Y-40151238D01*
X102029333Y-40056000D01*
X102124571Y-40008380D01*
X103553142Y-41008380D02*
X103219809Y-40532190D01*
X102981714Y-41008380D02*
X102981714Y-40008380D01*
X103362666Y-40008380D01*
X103457904Y-40056000D01*
X103505523Y-40103619D01*
X103553142Y-40198857D01*
X103553142Y-40341714D01*
X103505523Y-40436952D01*
X103457904Y-40484571D01*
X103362666Y-40532190D01*
X102981714Y-40532190D01*
X103981714Y-41008380D02*
X103981714Y-40008380D01*
X104315047Y-40722666D01*
X104648380Y-40008380D01*
X104648380Y-41008380D01*
X105076952Y-40722666D02*
X105553142Y-40722666D01*
X104981714Y-41008380D02*
X105315047Y-40008380D01*
X105648380Y-41008380D01*
X106457904Y-41008380D02*
X105981714Y-41008380D01*
X105981714Y-40008380D01*
X107267428Y-41008380D02*
X106791238Y-41008380D01*
X106791238Y-40008380D01*
X107791238Y-40532190D02*
X107791238Y-41008380D01*
X107457904Y-40008380D02*
X107791238Y-40532190D01*
X108124571Y-40008380D01*
X109219809Y-41008380D02*
X109219809Y-40008380D01*
X109791238Y-41008380D01*
X109791238Y-40008380D01*
X110267428Y-40484571D02*
X110600761Y-40484571D01*
X110743619Y-41008380D02*
X110267428Y-41008380D01*
X110267428Y-40008380D01*
X110743619Y-40008380D01*
X111172190Y-40484571D02*
X111505523Y-40484571D01*
X111648380Y-41008380D02*
X111172190Y-41008380D01*
X111172190Y-40008380D01*
X111648380Y-40008380D01*
X112076952Y-41008380D02*
X112076952Y-40008380D01*
X112315047Y-40008380D01*
X112457904Y-40056000D01*
X112553142Y-40151238D01*
X112600761Y-40246476D01*
X112648380Y-40436952D01*
X112648380Y-40579809D01*
X112600761Y-40770285D01*
X112553142Y-40865523D01*
X112457904Y-40960761D01*
X112315047Y-41008380D01*
X112076952Y-41008380D01*
X113076952Y-40484571D02*
X113410285Y-40484571D01*
X113553142Y-41008380D02*
X113076952Y-41008380D01*
X113076952Y-40008380D01*
X113553142Y-40008380D01*
X113981714Y-41008380D02*
X113981714Y-40008380D01*
X114219809Y-40008380D01*
X114362666Y-40056000D01*
X114457904Y-40151238D01*
X114505523Y-40246476D01*
X114553142Y-40436952D01*
X114553142Y-40579809D01*
X114505523Y-40770285D01*
X114457904Y-40865523D01*
X114362666Y-40960761D01*
X114219809Y-41008380D01*
X113981714Y-41008380D01*
X108845047Y-106014761D02*
X108845047Y-106256666D01*
X108905523Y-106256666D02*
X108905523Y-106014761D01*
X108966000Y-105954285D02*
X108966000Y-106317142D01*
X109026476Y-106256666D02*
X109026476Y-106014761D01*
X109086952Y-106014761D02*
X109086952Y-106256666D01*
X108845047Y-106196190D02*
X108966000Y-106317142D01*
X109086952Y-106196190D01*
X108845047Y-106075238D02*
X108966000Y-105954285D01*
X109086952Y-106075238D01*
X108845047Y-106014761D02*
X108966000Y-105954285D01*
X109086952Y-106014761D01*
X109147428Y-106135714D01*
X109086952Y-106256666D01*
X108966000Y-106317142D01*
X108845047Y-106256666D01*
X108784571Y-106135714D01*
X108845047Y-106014761D01*
X138962142Y-44494380D02*
X139628809Y-44494380D01*
X139200238Y-45494380D01*
X140438333Y-44827714D02*
X140438333Y-45494380D01*
X140200238Y-44446761D02*
X139962142Y-45161047D01*
X140581190Y-45161047D01*
X141438333Y-45494380D02*
X140962142Y-45494380D01*
X140962142Y-44494380D01*
X141724047Y-45446761D02*
X141866904Y-45494380D01*
X142105000Y-45494380D01*
X142200238Y-45446761D01*
X142247857Y-45399142D01*
X142295476Y-45303904D01*
X142295476Y-45208666D01*
X142247857Y-45113428D01*
X142200238Y-45065809D01*
X142105000Y-45018190D01*
X141914523Y-44970571D01*
X141819285Y-44922952D01*
X141771666Y-44875333D01*
X141724047Y-44780095D01*
X141724047Y-44684857D01*
X141771666Y-44589619D01*
X141819285Y-44542000D01*
X141914523Y-44494380D01*
X142152619Y-44494380D01*
X142295476Y-44542000D01*
X142771666Y-45494380D02*
X142962142Y-45494380D01*
X143057380Y-45446761D01*
X143105000Y-45399142D01*
X143200238Y-45256285D01*
X143247857Y-45065809D01*
X143247857Y-44684857D01*
X143200238Y-44589619D01*
X143152619Y-44542000D01*
X143057380Y-44494380D01*
X142866904Y-44494380D01*
X142771666Y-44542000D01*
X142724047Y-44589619D01*
X142676428Y-44684857D01*
X142676428Y-44922952D01*
X142724047Y-45018190D01*
X142771666Y-45065809D01*
X142866904Y-45113428D01*
X143057380Y-45113428D01*
X143152619Y-45065809D01*
X143200238Y-45018190D01*
X143247857Y-44922952D01*
X143866904Y-44494380D02*
X143962142Y-44494380D01*
X144057380Y-44542000D01*
X144105000Y-44589619D01*
X144152619Y-44684857D01*
X144200238Y-44875333D01*
X144200238Y-45113428D01*
X144152619Y-45303904D01*
X144105000Y-45399142D01*
X144057380Y-45446761D01*
X143962142Y-45494380D01*
X143866904Y-45494380D01*
X143771666Y-45446761D01*
X143724047Y-45399142D01*
X143676428Y-45303904D01*
X143628809Y-45113428D01*
X143628809Y-44875333D01*
X143676428Y-44684857D01*
X143724047Y-44589619D01*
X143771666Y-44542000D01*
X143866904Y-44494380D01*
X138985952Y-47104380D02*
X138985952Y-46104380D01*
X139224047Y-46104380D01*
X139366904Y-46152000D01*
X139462142Y-46247238D01*
X139509761Y-46342476D01*
X139557380Y-46532952D01*
X139557380Y-46675809D01*
X139509761Y-46866285D01*
X139462142Y-46961523D01*
X139366904Y-47056761D01*
X139224047Y-47104380D01*
X138985952Y-47104380D01*
X139985952Y-47104380D02*
X139985952Y-46104380D01*
X140319285Y-46104380D02*
X140652619Y-47104380D01*
X140985952Y-46104380D01*
X141319285Y-47104380D02*
X141319285Y-46104380D01*
X141795476Y-47104380D02*
X141795476Y-46104380D01*
X142033571Y-46104380D01*
X142176428Y-46152000D01*
X142271666Y-46247238D01*
X142319285Y-46342476D01*
X142366904Y-46532952D01*
X142366904Y-46675809D01*
X142319285Y-46866285D01*
X142271666Y-46961523D01*
X142176428Y-47056761D01*
X142033571Y-47104380D01*
X141795476Y-47104380D01*
X142795476Y-46580571D02*
X143128809Y-46580571D01*
X143271666Y-47104380D02*
X142795476Y-47104380D01*
X142795476Y-46104380D01*
X143271666Y-46104380D01*
X144271666Y-47104380D02*
X143938333Y-46628190D01*
X143700238Y-47104380D02*
X143700238Y-46104380D01*
X144081190Y-46104380D01*
X144176428Y-46152000D01*
X144224047Y-46199619D01*
X144271666Y-46294857D01*
X144271666Y-46437714D01*
X144224047Y-46532952D01*
X144176428Y-46580571D01*
X144081190Y-46628190D01*
X143700238Y-46628190D01*
X86848950Y-69335952D02*
X86848950Y-68700952D01*
X87663261Y-68821904D02*
X87360880Y-69033571D01*
X87663261Y-69184761D02*
X87028261Y-69184761D01*
X87028261Y-68942857D01*
X87058500Y-68882380D01*
X87088738Y-68852142D01*
X87149214Y-68821904D01*
X87239928Y-68821904D01*
X87300404Y-68852142D01*
X87330642Y-68882380D01*
X87360880Y-68942857D01*
X87360880Y-69184761D01*
X86848950Y-68700952D02*
X86848950Y-68126428D01*
X87330642Y-68549761D02*
X87330642Y-68338095D01*
X87663261Y-68247380D02*
X87663261Y-68549761D01*
X87028261Y-68549761D01*
X87028261Y-68247380D01*
X86848950Y-68126428D02*
X86848950Y-67521666D01*
X87633023Y-68005476D02*
X87663261Y-67914761D01*
X87663261Y-67763571D01*
X87633023Y-67703095D01*
X87602785Y-67672857D01*
X87542309Y-67642619D01*
X87481833Y-67642619D01*
X87421357Y-67672857D01*
X87391119Y-67703095D01*
X87360880Y-67763571D01*
X87330642Y-67884523D01*
X87300404Y-67945000D01*
X87270166Y-67975238D01*
X87209690Y-68005476D01*
X87149214Y-68005476D01*
X87088738Y-67975238D01*
X87058500Y-67945000D01*
X87028261Y-67884523D01*
X87028261Y-67733333D01*
X87058500Y-67642619D01*
X86848950Y-67521666D02*
X86848950Y-67219285D01*
X87663261Y-67370476D02*
X87028261Y-67370476D01*
X86848950Y-67219285D02*
X86848950Y-66554047D01*
X87663261Y-67068095D02*
X87028261Y-67068095D01*
X87663261Y-66705238D01*
X87028261Y-66705238D01*
X88624833Y-83940952D02*
X88624833Y-83638571D01*
X88806261Y-84001428D02*
X88171261Y-83789761D01*
X88806261Y-83578095D01*
X88806261Y-83033809D02*
X88806261Y-83396666D01*
X88806261Y-83215238D02*
X88171261Y-83215238D01*
X88261976Y-83275714D01*
X88322452Y-83336190D01*
X88352690Y-83396666D01*
X88171261Y-82822142D02*
X88171261Y-82429047D01*
X88413166Y-82640714D01*
X88413166Y-82550000D01*
X88443404Y-82489523D01*
X88473642Y-82459285D01*
X88534119Y-82429047D01*
X88685309Y-82429047D01*
X88745785Y-82459285D01*
X88776023Y-82489523D01*
X88806261Y-82550000D01*
X88806261Y-82731428D01*
X88776023Y-82791904D01*
X88745785Y-82822142D01*
X86721950Y-117299619D02*
X86721950Y-116634380D01*
X87536261Y-117148428D02*
X86901261Y-117148428D01*
X87203642Y-117148428D02*
X87203642Y-116785571D01*
X87536261Y-116785571D02*
X86901261Y-116785571D01*
X86721950Y-116634380D02*
X86721950Y-116332000D01*
X87536261Y-116483190D02*
X86901261Y-116483190D01*
X86721950Y-116332000D02*
X86721950Y-116029619D01*
X87536261Y-116180809D02*
X86901261Y-116180809D01*
X86721950Y-116029619D02*
X86721950Y-115364380D01*
X86901261Y-115757476D02*
X86901261Y-115636523D01*
X86931500Y-115576047D01*
X86991976Y-115515571D01*
X87112928Y-115485333D01*
X87324595Y-115485333D01*
X87445547Y-115515571D01*
X87506023Y-115576047D01*
X87536261Y-115636523D01*
X87536261Y-115757476D01*
X87506023Y-115817952D01*
X87445547Y-115878428D01*
X87324595Y-115908666D01*
X87112928Y-115908666D01*
X86991976Y-115878428D01*
X86931500Y-115817952D01*
X86901261Y-115757476D01*
X88171261Y-101811666D02*
X88806261Y-101600000D01*
X88171261Y-101388333D01*
X88745785Y-100813809D02*
X88776023Y-100844047D01*
X88806261Y-100934761D01*
X88806261Y-100995238D01*
X88776023Y-101085952D01*
X88715547Y-101146428D01*
X88655071Y-101176666D01*
X88534119Y-101206904D01*
X88443404Y-101206904D01*
X88322452Y-101176666D01*
X88261976Y-101146428D01*
X88201500Y-101085952D01*
X88171261Y-100995238D01*
X88171261Y-100934761D01*
X88201500Y-100844047D01*
X88231738Y-100813809D01*
X88745785Y-100178809D02*
X88776023Y-100209047D01*
X88806261Y-100299761D01*
X88806261Y-100360238D01*
X88776023Y-100450952D01*
X88715547Y-100511428D01*
X88655071Y-100541666D01*
X88534119Y-100571904D01*
X88443404Y-100571904D01*
X88322452Y-100541666D01*
X88261976Y-100511428D01*
X88201500Y-100450952D01*
X88171261Y-100360238D01*
X88171261Y-100299761D01*
X88201500Y-100209047D01*
X88231738Y-100178809D01*
X94382166Y-115751428D02*
X94382166Y-116053809D01*
X94200738Y-115690952D02*
X94835738Y-115902619D01*
X94200738Y-116114285D01*
X94835738Y-116265476D02*
X94835738Y-116688809D01*
X94200738Y-116416666D01*
X101225047Y-52674761D02*
X101225047Y-52916666D01*
X101285523Y-52916666D02*
X101285523Y-52674761D01*
X101346000Y-52614285D02*
X101346000Y-52977142D01*
X101406476Y-52916666D02*
X101406476Y-52674761D01*
X101466952Y-52674761D02*
X101466952Y-52916666D01*
X101225047Y-52856190D02*
X101346000Y-52977142D01*
X101466952Y-52856190D01*
X101225047Y-52735238D02*
X101346000Y-52614285D01*
X101466952Y-52735238D01*
X101225047Y-52674761D02*
X101346000Y-52614285D01*
X101466952Y-52674761D01*
X101527428Y-52795714D01*
X101466952Y-52916666D01*
X101346000Y-52977142D01*
X101225047Y-52916666D01*
X101164571Y-52795714D01*
X101225047Y-52674761D01*
X109772380Y-112339047D02*
X109772380Y-111672380D01*
X110772380Y-112100952D01*
X110105714Y-110862857D02*
X110772380Y-110862857D01*
X109724761Y-111100952D02*
X110439047Y-111339047D01*
X110439047Y-110720000D01*
X110772380Y-109862857D02*
X110772380Y-110339047D01*
X109772380Y-110339047D01*
X110724761Y-109577142D02*
X110772380Y-109434285D01*
X110772380Y-109196190D01*
X110724761Y-109100952D01*
X110677142Y-109053333D01*
X110581904Y-109005714D01*
X110486666Y-109005714D01*
X110391428Y-109053333D01*
X110343809Y-109100952D01*
X110296190Y-109196190D01*
X110248571Y-109386666D01*
X110200952Y-109481904D01*
X110153333Y-109529523D01*
X110058095Y-109577142D01*
X109962857Y-109577142D01*
X109867619Y-109529523D01*
X109820000Y-109481904D01*
X109772380Y-109386666D01*
X109772380Y-109148571D01*
X109820000Y-109005714D01*
X110772380Y-108053333D02*
X110772380Y-108624761D01*
X110772380Y-108339047D02*
X109772380Y-108339047D01*
X109915238Y-108434285D01*
X110010476Y-108529523D01*
X110058095Y-108624761D01*
X109772380Y-107720000D02*
X109772380Y-107100952D01*
X110153333Y-107434285D01*
X110153333Y-107291428D01*
X110200952Y-107196190D01*
X110248571Y-107148571D01*
X110343809Y-107100952D01*
X110581904Y-107100952D01*
X110677142Y-107148571D01*
X110724761Y-107196190D01*
X110772380Y-107291428D01*
X110772380Y-107577142D01*
X110724761Y-107672380D01*
X110677142Y-107720000D01*
X110772380Y-106624761D02*
X110772380Y-106434285D01*
X110724761Y-106339047D01*
X110677142Y-106291428D01*
X110534285Y-106196190D01*
X110343809Y-106148571D01*
X109962857Y-106148571D01*
X109867619Y-106196190D01*
X109820000Y-106243809D01*
X109772380Y-106339047D01*
X109772380Y-106529523D01*
X109820000Y-106624761D01*
X109867619Y-106672380D01*
X109962857Y-106720000D01*
X110200952Y-106720000D01*
X110296190Y-106672380D01*
X110343809Y-106624761D01*
X110391428Y-106529523D01*
X110391428Y-106339047D01*
X110343809Y-106243809D01*
X110296190Y-106196190D01*
X110200952Y-106148571D01*
X112382380Y-112410476D02*
X111382380Y-112410476D01*
X111382380Y-112172380D01*
X111430000Y-112029523D01*
X111525238Y-111934285D01*
X111620476Y-111886666D01*
X111810952Y-111839047D01*
X111953809Y-111839047D01*
X112144285Y-111886666D01*
X112239523Y-111934285D01*
X112334761Y-112029523D01*
X112382380Y-112172380D01*
X112382380Y-112410476D01*
X111858571Y-111410476D02*
X111858571Y-111077142D01*
X112382380Y-110934285D02*
X112382380Y-111410476D01*
X111382380Y-111410476D01*
X111382380Y-110934285D01*
X112287142Y-109934285D02*
X112334761Y-109981904D01*
X112382380Y-110124761D01*
X112382380Y-110220000D01*
X112334761Y-110362857D01*
X112239523Y-110458095D01*
X112144285Y-110505714D01*
X111953809Y-110553333D01*
X111810952Y-110553333D01*
X111620476Y-110505714D01*
X111525238Y-110458095D01*
X111430000Y-110362857D01*
X111382380Y-110220000D01*
X111382380Y-110124761D01*
X111430000Y-109981904D01*
X111477619Y-109934285D01*
X111382380Y-109315238D02*
X111382380Y-109124761D01*
X111430000Y-109029523D01*
X111525238Y-108934285D01*
X111715714Y-108886666D01*
X112049047Y-108886666D01*
X112239523Y-108934285D01*
X112334761Y-109029523D01*
X112382380Y-109124761D01*
X112382380Y-109315238D01*
X112334761Y-109410476D01*
X112239523Y-109505714D01*
X112049047Y-109553333D01*
X111715714Y-109553333D01*
X111525238Y-109505714D01*
X111430000Y-109410476D01*
X111382380Y-109315238D01*
X112382380Y-108458095D02*
X111382380Y-108458095D01*
X111382380Y-108220000D01*
X111430000Y-108077142D01*
X111525238Y-107981904D01*
X111620476Y-107934285D01*
X111810952Y-107886666D01*
X111953809Y-107886666D01*
X112144285Y-107934285D01*
X112239523Y-107981904D01*
X112334761Y-108077142D01*
X112382380Y-108220000D01*
X112382380Y-108458095D01*
X111858571Y-107458095D02*
X111858571Y-107124761D01*
X112382380Y-106981904D02*
X112382380Y-107458095D01*
X111382380Y-107458095D01*
X111382380Y-106981904D01*
X112382380Y-105981904D02*
X111906190Y-106315238D01*
X112382380Y-106553333D02*
X111382380Y-106553333D01*
X111382380Y-106172380D01*
X111430000Y-106077142D01*
X111477619Y-106029523D01*
X111572857Y-105981904D01*
X111715714Y-105981904D01*
X111810952Y-106029523D01*
X111858571Y-106077142D01*
X111906190Y-106172380D01*
X111906190Y-106553333D01*
X94382166Y-107813928D02*
X94382166Y-108116309D01*
X94200738Y-107753452D02*
X94835738Y-107965119D01*
X94200738Y-108176785D01*
X94200738Y-108388452D02*
X94835738Y-108388452D01*
X94835738Y-108539642D01*
X94805500Y-108630357D01*
X94745023Y-108690833D01*
X94684547Y-108721071D01*
X94563595Y-108751309D01*
X94472880Y-108751309D01*
X94351928Y-108721071D01*
X94291452Y-108690833D01*
X94230976Y-108630357D01*
X94200738Y-108539642D01*
X94200738Y-108388452D01*
X94835738Y-109295595D02*
X94835738Y-109174642D01*
X94805500Y-109114166D01*
X94775261Y-109083928D01*
X94684547Y-109023452D01*
X94563595Y-108993214D01*
X94321690Y-108993214D01*
X94261214Y-109023452D01*
X94230976Y-109053690D01*
X94200738Y-109114166D01*
X94200738Y-109235119D01*
X94230976Y-109295595D01*
X94261214Y-109325833D01*
X94321690Y-109356071D01*
X94472880Y-109356071D01*
X94533357Y-109325833D01*
X94563595Y-109295595D01*
X94593833Y-109235119D01*
X94593833Y-109114166D01*
X94563595Y-109053690D01*
X94533357Y-109023452D01*
X94472880Y-108993214D01*
X94382166Y-95431428D02*
X94382166Y-95733809D01*
X94200738Y-95370952D02*
X94835738Y-95582619D01*
X94200738Y-95794285D01*
X94835738Y-95945476D02*
X94835738Y-96338571D01*
X94593833Y-96126904D01*
X94593833Y-96217619D01*
X94563595Y-96278095D01*
X94533357Y-96308333D01*
X94472880Y-96338571D01*
X94321690Y-96338571D01*
X94261214Y-96308333D01*
X94230976Y-96278095D01*
X94200738Y-96217619D01*
X94200738Y-96036190D01*
X94230976Y-95975714D01*
X94261214Y-95945476D01*
X88201500Y-106528809D02*
X88171261Y-106589285D01*
X88171261Y-106680000D01*
X88201500Y-106770714D01*
X88261976Y-106831190D01*
X88322452Y-106861428D01*
X88443404Y-106891666D01*
X88534119Y-106891666D01*
X88655071Y-106861428D01*
X88715547Y-106831190D01*
X88776023Y-106770714D01*
X88806261Y-106680000D01*
X88806261Y-106619523D01*
X88776023Y-106528809D01*
X88745785Y-106498571D01*
X88534119Y-106498571D01*
X88534119Y-106619523D01*
X88806261Y-106226428D02*
X88171261Y-106226428D01*
X88806261Y-105863571D01*
X88171261Y-105863571D01*
X88806261Y-105561190D02*
X88171261Y-105561190D01*
X88171261Y-105410000D01*
X88201500Y-105319285D01*
X88261976Y-105258809D01*
X88322452Y-105228571D01*
X88443404Y-105198333D01*
X88534119Y-105198333D01*
X88655071Y-105228571D01*
X88715547Y-105258809D01*
X88776023Y-105319285D01*
X88806261Y-105410000D01*
X88806261Y-105561190D01*
X134810714Y-118535380D02*
X134620238Y-118535380D01*
X134525000Y-118583000D01*
X134477380Y-118630619D01*
X134382142Y-118773476D01*
X134334523Y-118963952D01*
X134334523Y-119344904D01*
X134382142Y-119440142D01*
X134429761Y-119487761D01*
X134525000Y-119535380D01*
X134715476Y-119535380D01*
X134810714Y-119487761D01*
X134858333Y-119440142D01*
X134905952Y-119344904D01*
X134905952Y-119106809D01*
X134858333Y-119011571D01*
X134810714Y-118963952D01*
X134715476Y-118916333D01*
X134525000Y-118916333D01*
X134429761Y-118963952D01*
X134382142Y-119011571D01*
X134334523Y-119106809D01*
X135286904Y-118630619D02*
X135334523Y-118583000D01*
X135429761Y-118535380D01*
X135667857Y-118535380D01*
X135763095Y-118583000D01*
X135810714Y-118630619D01*
X135858333Y-118725857D01*
X135858333Y-118821095D01*
X135810714Y-118963952D01*
X135239285Y-119535380D01*
X135858333Y-119535380D01*
X136239285Y-118630619D02*
X136286904Y-118583000D01*
X136382142Y-118535380D01*
X136620238Y-118535380D01*
X136715476Y-118583000D01*
X136763095Y-118630619D01*
X136810714Y-118725857D01*
X136810714Y-118821095D01*
X136763095Y-118963952D01*
X136191666Y-119535380D01*
X136810714Y-119535380D01*
X137715476Y-118535380D02*
X137239285Y-118535380D01*
X137191666Y-119011571D01*
X137239285Y-118963952D01*
X137334523Y-118916333D01*
X137572619Y-118916333D01*
X137667857Y-118963952D01*
X137715476Y-119011571D01*
X137763095Y-119106809D01*
X137763095Y-119344904D01*
X137715476Y-119440142D01*
X137667857Y-119487761D01*
X137572619Y-119535380D01*
X137334523Y-119535380D01*
X137239285Y-119487761D01*
X137191666Y-119440142D01*
X138620238Y-118535380D02*
X138429761Y-118535380D01*
X138334523Y-118583000D01*
X138286904Y-118630619D01*
X138191666Y-118773476D01*
X138144047Y-118963952D01*
X138144047Y-119344904D01*
X138191666Y-119440142D01*
X138239285Y-119487761D01*
X138334523Y-119535380D01*
X138525000Y-119535380D01*
X138620238Y-119487761D01*
X138667857Y-119440142D01*
X138715476Y-119344904D01*
X138715476Y-119106809D01*
X138667857Y-119011571D01*
X138620238Y-118963952D01*
X138525000Y-118916333D01*
X138334523Y-118916333D01*
X138239285Y-118963952D01*
X138191666Y-119011571D01*
X138144047Y-119106809D01*
X132858333Y-120145380D02*
X133477380Y-120145380D01*
X133144047Y-120526333D01*
X133286904Y-120526333D01*
X133382142Y-120573952D01*
X133429761Y-120621571D01*
X133477380Y-120716809D01*
X133477380Y-120954904D01*
X133429761Y-121050142D01*
X133382142Y-121097761D01*
X133286904Y-121145380D01*
X133001190Y-121145380D01*
X132905952Y-121097761D01*
X132858333Y-121050142D01*
X133858333Y-120240619D02*
X133905952Y-120193000D01*
X134001190Y-120145380D01*
X134239285Y-120145380D01*
X134334523Y-120193000D01*
X134382142Y-120240619D01*
X134429761Y-120335857D01*
X134429761Y-120431095D01*
X134382142Y-120573952D01*
X133810714Y-121145380D01*
X134429761Y-121145380D01*
X134858333Y-121145380D02*
X134858333Y-120145380D01*
X135429761Y-121145380D02*
X135001190Y-120573952D01*
X135429761Y-120145380D02*
X134858333Y-120716809D01*
X136572619Y-121097761D02*
X136715476Y-121145380D01*
X136953571Y-121145380D01*
X137048809Y-121097761D01*
X137096428Y-121050142D01*
X137144047Y-120954904D01*
X137144047Y-120859666D01*
X137096428Y-120764428D01*
X137048809Y-120716809D01*
X136953571Y-120669190D01*
X136763095Y-120621571D01*
X136667857Y-120573952D01*
X136620238Y-120526333D01*
X136572619Y-120431095D01*
X136572619Y-120335857D01*
X136620238Y-120240619D01*
X136667857Y-120193000D01*
X136763095Y-120145380D01*
X137001190Y-120145380D01*
X137144047Y-120193000D01*
X138144047Y-121145380D02*
X137810714Y-120669190D01*
X137572619Y-121145380D02*
X137572619Y-120145380D01*
X137953571Y-120145380D01*
X138048809Y-120193000D01*
X138096428Y-120240619D01*
X138144047Y-120335857D01*
X138144047Y-120478714D01*
X138096428Y-120573952D01*
X138048809Y-120621571D01*
X137953571Y-120669190D01*
X137572619Y-120669190D01*
X138525000Y-120859666D02*
X139001190Y-120859666D01*
X138429761Y-121145380D02*
X138763095Y-120145380D01*
X139096428Y-121145380D01*
X139429761Y-121145380D02*
X139429761Y-120145380D01*
X139763095Y-120859666D01*
X140096428Y-120145380D01*
X140096428Y-121145380D01*
X170243666Y-62317380D02*
X170577000Y-63317380D01*
X170910333Y-62317380D01*
X171815095Y-63222142D02*
X171767476Y-63269761D01*
X171624619Y-63317380D01*
X171529380Y-63317380D01*
X171386523Y-63269761D01*
X171291285Y-63174523D01*
X171243666Y-63079285D01*
X171196047Y-62888809D01*
X171196047Y-62745952D01*
X171243666Y-62555476D01*
X171291285Y-62460238D01*
X171386523Y-62365000D01*
X171529380Y-62317380D01*
X171624619Y-62317380D01*
X171767476Y-62365000D01*
X171815095Y-62412619D01*
X172815095Y-63222142D02*
X172767476Y-63269761D01*
X172624619Y-63317380D01*
X172529380Y-63317380D01*
X172386523Y-63269761D01*
X172291285Y-63174523D01*
X172243666Y-63079285D01*
X172196047Y-62888809D01*
X172196047Y-62745952D01*
X172243666Y-62555476D01*
X172291285Y-62460238D01*
X172386523Y-62365000D01*
X172529380Y-62317380D01*
X172624619Y-62317380D01*
X172767476Y-62365000D01*
X172815095Y-62412619D01*
X88806261Y-63893095D02*
X88171261Y-63893095D01*
X88473642Y-63893095D02*
X88473642Y-63530238D01*
X88806261Y-63530238D02*
X88171261Y-63530238D01*
X88806261Y-62925476D02*
X88806261Y-63227857D01*
X88171261Y-63227857D01*
X88806261Y-62713809D02*
X88171261Y-62713809D01*
X88171261Y-62562619D01*
X88201500Y-62471904D01*
X88261976Y-62411428D01*
X88322452Y-62381190D01*
X88443404Y-62350952D01*
X88534119Y-62350952D01*
X88655071Y-62381190D01*
X88715547Y-62411428D01*
X88776023Y-62471904D01*
X88806261Y-62562619D01*
X88806261Y-62713809D01*
X88624833Y-62109047D02*
X88624833Y-61806666D01*
X88806261Y-62169523D02*
X88171261Y-61957857D01*
X88806261Y-61746190D01*
X180737095Y-70032571D02*
X180879952Y-70080190D01*
X180927571Y-70127809D01*
X180975190Y-70223047D01*
X180975190Y-70365904D01*
X180927571Y-70461142D01*
X180879952Y-70508761D01*
X180784714Y-70556380D01*
X180403761Y-70556380D01*
X180403761Y-69556380D01*
X180737095Y-69556380D01*
X180832333Y-69604000D01*
X180879952Y-69651619D01*
X180927571Y-69746857D01*
X180927571Y-69842095D01*
X180879952Y-69937333D01*
X180832333Y-69984952D01*
X180737095Y-70032571D01*
X180403761Y-70032571D01*
X181879952Y-70556380D02*
X181403761Y-70556380D01*
X181403761Y-69556380D01*
X182165666Y-70270666D02*
X182641857Y-70270666D01*
X182070428Y-70556380D02*
X182403761Y-69556380D01*
X182737095Y-70556380D01*
X183641857Y-70461142D02*
X183594238Y-70508761D01*
X183451380Y-70556380D01*
X183356142Y-70556380D01*
X183213285Y-70508761D01*
X183118047Y-70413523D01*
X183070428Y-70318285D01*
X183022809Y-70127809D01*
X183022809Y-69984952D01*
X183070428Y-69794476D01*
X183118047Y-69699238D01*
X183213285Y-69604000D01*
X183356142Y-69556380D01*
X183451380Y-69556380D01*
X183594238Y-69604000D01*
X183641857Y-69651619D01*
X184070428Y-70556380D02*
X184070428Y-69556380D01*
X184641857Y-70556380D02*
X184213285Y-69984952D01*
X184641857Y-69556380D02*
X184070428Y-70127809D01*
X88624833Y-81400952D02*
X88624833Y-81098571D01*
X88806261Y-81461428D02*
X88171261Y-81249761D01*
X88806261Y-81038095D01*
X88806261Y-80493809D02*
X88806261Y-80856666D01*
X88806261Y-80675238D02*
X88171261Y-80675238D01*
X88261976Y-80735714D01*
X88322452Y-80796190D01*
X88352690Y-80856666D01*
X88382928Y-79949523D02*
X88806261Y-79949523D01*
X88141023Y-80100714D02*
X88594595Y-80251904D01*
X88594595Y-79858809D01*
X180833380Y-122711857D02*
X179833380Y-122711857D01*
X180833380Y-122140428D01*
X179833380Y-122140428D01*
X179833380Y-121473761D02*
X179833380Y-121283285D01*
X179881000Y-121188047D01*
X179976238Y-121092809D01*
X180166714Y-121045190D01*
X180500047Y-121045190D01*
X180690523Y-121092809D01*
X180785761Y-121188047D01*
X180833380Y-121283285D01*
X180833380Y-121473761D01*
X180785761Y-121569000D01*
X180690523Y-121664238D01*
X180500047Y-121711857D01*
X180166714Y-121711857D01*
X179976238Y-121664238D01*
X179881000Y-121569000D01*
X179833380Y-121473761D01*
X180833380Y-119854714D02*
X179833380Y-119854714D01*
X179833380Y-119473761D01*
X179881000Y-119378523D01*
X179928619Y-119330904D01*
X180023857Y-119283285D01*
X180166714Y-119283285D01*
X180261952Y-119330904D01*
X180309571Y-119378523D01*
X180357190Y-119473761D01*
X180357190Y-119854714D01*
X179833380Y-118664238D02*
X179833380Y-118473761D01*
X179881000Y-118378523D01*
X179976238Y-118283285D01*
X180166714Y-118235666D01*
X180500047Y-118235666D01*
X180690523Y-118283285D01*
X180785761Y-118378523D01*
X180833380Y-118473761D01*
X180833380Y-118664238D01*
X180785761Y-118759476D01*
X180690523Y-118854714D01*
X180500047Y-118902333D01*
X180166714Y-118902333D01*
X179976238Y-118854714D01*
X179881000Y-118759476D01*
X179833380Y-118664238D01*
X179833380Y-117902333D02*
X180833380Y-117664238D01*
X180119095Y-117473761D01*
X180833380Y-117283285D01*
X179833380Y-117045190D01*
X180309571Y-116664238D02*
X180309571Y-116330904D01*
X180833380Y-116188047D02*
X180833380Y-116664238D01*
X179833380Y-116664238D01*
X179833380Y-116188047D01*
X180833380Y-115188047D02*
X180357190Y-115521380D01*
X180833380Y-115759476D02*
X179833380Y-115759476D01*
X179833380Y-115378523D01*
X179881000Y-115283285D01*
X179928619Y-115235666D01*
X180023857Y-115188047D01*
X180166714Y-115188047D01*
X180261952Y-115235666D01*
X180309571Y-115283285D01*
X180357190Y-115378523D01*
X180357190Y-115759476D01*
X180833380Y-113997571D02*
X179833380Y-113997571D01*
X179833380Y-113616619D01*
X179881000Y-113521380D01*
X179928619Y-113473761D01*
X180023857Y-113426142D01*
X180166714Y-113426142D01*
X180261952Y-113473761D01*
X180309571Y-113521380D01*
X180357190Y-113616619D01*
X180357190Y-113997571D01*
X180833380Y-112426142D02*
X180357190Y-112759476D01*
X180833380Y-112997571D02*
X179833380Y-112997571D01*
X179833380Y-112616619D01*
X179881000Y-112521380D01*
X179928619Y-112473761D01*
X180023857Y-112426142D01*
X180166714Y-112426142D01*
X180261952Y-112473761D01*
X180309571Y-112521380D01*
X180357190Y-112616619D01*
X180357190Y-112997571D01*
X179833380Y-111807095D02*
X179833380Y-111616619D01*
X179881000Y-111521380D01*
X179976238Y-111426142D01*
X180166714Y-111378523D01*
X180500047Y-111378523D01*
X180690523Y-111426142D01*
X180785761Y-111521380D01*
X180833380Y-111616619D01*
X180833380Y-111807095D01*
X180785761Y-111902333D01*
X180690523Y-111997571D01*
X180500047Y-112045190D01*
X180166714Y-112045190D01*
X179976238Y-111997571D01*
X179881000Y-111902333D01*
X179833380Y-111807095D01*
X179833380Y-111092809D02*
X179833380Y-110521380D01*
X180833380Y-110807095D02*
X179833380Y-110807095D01*
X180309571Y-110188047D02*
X180309571Y-109854714D01*
X180833380Y-109711857D02*
X180833380Y-110188047D01*
X179833380Y-110188047D01*
X179833380Y-109711857D01*
X180738142Y-108711857D02*
X180785761Y-108759476D01*
X180833380Y-108902333D01*
X180833380Y-108997571D01*
X180785761Y-109140428D01*
X180690523Y-109235666D01*
X180595285Y-109283285D01*
X180404809Y-109330904D01*
X180261952Y-109330904D01*
X180071476Y-109283285D01*
X179976238Y-109235666D01*
X179881000Y-109140428D01*
X179833380Y-108997571D01*
X179833380Y-108902333D01*
X179881000Y-108759476D01*
X179928619Y-108711857D01*
X179833380Y-108426142D02*
X179833380Y-107854714D01*
X180833380Y-108140428D02*
X179833380Y-108140428D01*
X180833380Y-107521380D02*
X179833380Y-107521380D01*
X179833380Y-106854714D02*
X179833380Y-106664238D01*
X179881000Y-106569000D01*
X179976238Y-106473761D01*
X180166714Y-106426142D01*
X180500047Y-106426142D01*
X180690523Y-106473761D01*
X180785761Y-106569000D01*
X180833380Y-106664238D01*
X180833380Y-106854714D01*
X180785761Y-106949952D01*
X180690523Y-107045190D01*
X180500047Y-107092809D01*
X180166714Y-107092809D01*
X179976238Y-107045190D01*
X179881000Y-106949952D01*
X179833380Y-106854714D01*
X180833380Y-105997571D02*
X179833380Y-105997571D01*
X180833380Y-105426142D01*
X179833380Y-105426142D01*
X179833380Y-103997571D02*
X179833380Y-103807095D01*
X179881000Y-103711857D01*
X179976238Y-103616619D01*
X180166714Y-103569000D01*
X180500047Y-103569000D01*
X180690523Y-103616619D01*
X180785761Y-103711857D01*
X180833380Y-103807095D01*
X180833380Y-103997571D01*
X180785761Y-104092809D01*
X180690523Y-104188047D01*
X180500047Y-104235666D01*
X180166714Y-104235666D01*
X179976238Y-104188047D01*
X179881000Y-104092809D01*
X179833380Y-103997571D01*
X180833380Y-103140428D02*
X179833380Y-103140428D01*
X180833380Y-102569000D01*
X179833380Y-102569000D01*
X179833380Y-101473761D02*
X179833380Y-100902333D01*
X180833380Y-101188047D02*
X179833380Y-101188047D01*
X180833380Y-100569000D02*
X179833380Y-100569000D01*
X180309571Y-100569000D02*
X180309571Y-99997571D01*
X180833380Y-99997571D02*
X179833380Y-99997571D01*
X180833380Y-99521380D02*
X179833380Y-99521380D01*
X180785761Y-99092809D02*
X180833380Y-98949952D01*
X180833380Y-98711857D01*
X180785761Y-98616619D01*
X180738142Y-98569000D01*
X180642904Y-98521380D01*
X180547666Y-98521380D01*
X180452428Y-98569000D01*
X180404809Y-98616619D01*
X180357190Y-98711857D01*
X180309571Y-98902333D01*
X180261952Y-98997571D01*
X180214333Y-99045190D01*
X180119095Y-99092809D01*
X180023857Y-99092809D01*
X179928619Y-99045190D01*
X179881000Y-98997571D01*
X179833380Y-98902333D01*
X179833380Y-98664238D01*
X179881000Y-98521380D01*
X180309571Y-96997571D02*
X180357190Y-96854714D01*
X180404809Y-96807095D01*
X180500047Y-96759476D01*
X180642904Y-96759476D01*
X180738142Y-96807095D01*
X180785761Y-96854714D01*
X180833380Y-96949952D01*
X180833380Y-97330904D01*
X179833380Y-97330904D01*
X179833380Y-96997571D01*
X179881000Y-96902333D01*
X179928619Y-96854714D01*
X180023857Y-96807095D01*
X180119095Y-96807095D01*
X180214333Y-96854714D01*
X180261952Y-96902333D01*
X180309571Y-96997571D01*
X180309571Y-97330904D01*
X179833380Y-96140428D02*
X179833380Y-95949952D01*
X179881000Y-95854714D01*
X179976238Y-95759476D01*
X180166714Y-95711857D01*
X180500047Y-95711857D01*
X180690523Y-95759476D01*
X180785761Y-95854714D01*
X180833380Y-95949952D01*
X180833380Y-96140428D01*
X180785761Y-96235666D01*
X180690523Y-96330904D01*
X180500047Y-96378523D01*
X180166714Y-96378523D01*
X179976238Y-96330904D01*
X179881000Y-96235666D01*
X179833380Y-96140428D01*
X180547666Y-95330904D02*
X180547666Y-94854714D01*
X180833380Y-95426142D02*
X179833380Y-95092809D01*
X180833380Y-94759476D01*
X180833380Y-93854714D02*
X180357190Y-94188047D01*
X180833380Y-94426142D02*
X179833380Y-94426142D01*
X179833380Y-94045190D01*
X179881000Y-93949952D01*
X179928619Y-93902333D01*
X180023857Y-93854714D01*
X180166714Y-93854714D01*
X180261952Y-93902333D01*
X180309571Y-93949952D01*
X180357190Y-94045190D01*
X180357190Y-94426142D01*
X180833380Y-93426142D02*
X179833380Y-93426142D01*
X179833380Y-93188047D01*
X179881000Y-93045190D01*
X179976238Y-92949952D01*
X180071476Y-92902333D01*
X180261952Y-92854714D01*
X180404809Y-92854714D01*
X180595285Y-92902333D01*
X180690523Y-92949952D01*
X180785761Y-93045190D01*
X180833380Y-93188047D01*
X180833380Y-93426142D01*
X180738142Y-92426142D02*
X180785761Y-92378523D01*
X180833380Y-92426142D01*
X180785761Y-92473761D01*
X180738142Y-92426142D01*
X180833380Y-92426142D01*
X180452428Y-92426142D02*
X179881000Y-92473761D01*
X179833380Y-92426142D01*
X179881000Y-92378523D01*
X180452428Y-92426142D01*
X179833380Y-92426142D01*
X181443380Y-121783285D02*
X182252904Y-121783285D01*
X182348142Y-121735666D01*
X182395761Y-121688047D01*
X182443380Y-121592809D01*
X182443380Y-121402333D01*
X182395761Y-121307095D01*
X182348142Y-121259476D01*
X182252904Y-121211857D01*
X181443380Y-121211857D01*
X182395761Y-120783285D02*
X182443380Y-120640428D01*
X182443380Y-120402333D01*
X182395761Y-120307095D01*
X182348142Y-120259476D01*
X182252904Y-120211857D01*
X182157666Y-120211857D01*
X182062428Y-120259476D01*
X182014809Y-120307095D01*
X181967190Y-120402333D01*
X181919571Y-120592809D01*
X181871952Y-120688047D01*
X181824333Y-120735666D01*
X181729095Y-120783285D01*
X181633857Y-120783285D01*
X181538619Y-120735666D01*
X181491000Y-120688047D01*
X181443380Y-120592809D01*
X181443380Y-120354714D01*
X181491000Y-120211857D01*
X181919571Y-119783285D02*
X181919571Y-119449952D01*
X182443380Y-119307095D02*
X182443380Y-119783285D01*
X181443380Y-119783285D01*
X181443380Y-119307095D01*
X182157666Y-118164238D02*
X182157666Y-117688047D01*
X182443380Y-118259476D02*
X181443380Y-117926142D01*
X182443380Y-117592809D01*
X182443380Y-115926142D02*
X181967190Y-116259476D01*
X182443380Y-116497571D02*
X181443380Y-116497571D01*
X181443380Y-116116619D01*
X181491000Y-116021380D01*
X181538619Y-115973761D01*
X181633857Y-115926142D01*
X181776714Y-115926142D01*
X181871952Y-115973761D01*
X181919571Y-116021380D01*
X181967190Y-116116619D01*
X181967190Y-116497571D01*
X181919571Y-115497571D02*
X181919571Y-115164238D01*
X182443380Y-115021380D02*
X182443380Y-115497571D01*
X181443380Y-115497571D01*
X181443380Y-115021380D01*
X181491000Y-114069000D02*
X181443380Y-114164238D01*
X181443380Y-114307095D01*
X181491000Y-114449952D01*
X181586238Y-114545190D01*
X181681476Y-114592809D01*
X181871952Y-114640428D01*
X182014809Y-114640428D01*
X182205285Y-114592809D01*
X182300523Y-114545190D01*
X182395761Y-114449952D01*
X182443380Y-114307095D01*
X182443380Y-114211857D01*
X182395761Y-114069000D01*
X182348142Y-114021380D01*
X182014809Y-114021380D01*
X182014809Y-114211857D01*
X181443380Y-113592809D02*
X182252904Y-113592809D01*
X182348142Y-113545190D01*
X182395761Y-113497571D01*
X182443380Y-113402333D01*
X182443380Y-113211857D01*
X182395761Y-113116619D01*
X182348142Y-113069000D01*
X182252904Y-113021380D01*
X181443380Y-113021380D01*
X182443380Y-112069000D02*
X182443380Y-112545190D01*
X181443380Y-112545190D01*
X182157666Y-111783285D02*
X182157666Y-111307095D01*
X182443380Y-111878523D02*
X181443380Y-111545190D01*
X182443380Y-111211857D01*
X181443380Y-111021380D02*
X181443380Y-110449952D01*
X182443380Y-110735666D02*
X181443380Y-110735666D01*
X181919571Y-110116619D02*
X181919571Y-109783285D01*
X182443380Y-109640428D02*
X182443380Y-110116619D01*
X181443380Y-110116619D01*
X181443380Y-109640428D01*
X182443380Y-109211857D02*
X181443380Y-109211857D01*
X181443380Y-108973761D01*
X181491000Y-108830904D01*
X181586238Y-108735666D01*
X181681476Y-108688047D01*
X181871952Y-108640428D01*
X182014809Y-108640428D01*
X182205285Y-108688047D01*
X182300523Y-108735666D01*
X182395761Y-108830904D01*
X182443380Y-108973761D01*
X182443380Y-109211857D01*
X181443380Y-106973761D02*
X181443380Y-107449952D01*
X181919571Y-107497571D01*
X181871952Y-107449952D01*
X181824333Y-107354714D01*
X181824333Y-107116619D01*
X181871952Y-107021380D01*
X181919571Y-106973761D01*
X182014809Y-106926142D01*
X182252904Y-106926142D01*
X182348142Y-106973761D01*
X182395761Y-107021380D01*
X182443380Y-107116619D01*
X182443380Y-107354714D01*
X182395761Y-107449952D01*
X182348142Y-107497571D01*
X181443380Y-106640428D02*
X182443380Y-106307095D01*
X181443380Y-105973761D01*
X182443380Y-104878523D02*
X181443380Y-104878523D01*
X181443380Y-104497571D01*
X181491000Y-104402333D01*
X181538619Y-104354714D01*
X181633857Y-104307095D01*
X181776714Y-104307095D01*
X181871952Y-104354714D01*
X181919571Y-104402333D01*
X181967190Y-104497571D01*
X181967190Y-104878523D01*
X181443380Y-103688047D02*
X181443380Y-103497571D01*
X181491000Y-103402333D01*
X181586238Y-103307095D01*
X181776714Y-103259476D01*
X182110047Y-103259476D01*
X182300523Y-103307095D01*
X182395761Y-103402333D01*
X182443380Y-103497571D01*
X182443380Y-103688047D01*
X182395761Y-103783285D01*
X182300523Y-103878523D01*
X182110047Y-103926142D01*
X181776714Y-103926142D01*
X181586238Y-103878523D01*
X181491000Y-103783285D01*
X181443380Y-103688047D01*
X181443380Y-102926142D02*
X182443380Y-102688047D01*
X181729095Y-102497571D01*
X182443380Y-102307095D01*
X181443380Y-102069000D01*
X181919571Y-101688047D02*
X181919571Y-101354714D01*
X182443380Y-101211857D02*
X182443380Y-101688047D01*
X181443380Y-101688047D01*
X181443380Y-101211857D01*
X182443380Y-100211857D02*
X181967190Y-100545190D01*
X182443380Y-100783285D02*
X181443380Y-100783285D01*
X181443380Y-100402333D01*
X181491000Y-100307095D01*
X181538619Y-100259476D01*
X181633857Y-100211857D01*
X181776714Y-100211857D01*
X181871952Y-100259476D01*
X181919571Y-100307095D01*
X181967190Y-100402333D01*
X181967190Y-100783285D01*
X182395761Y-99069000D02*
X182443380Y-98926142D01*
X182443380Y-98688047D01*
X182395761Y-98592809D01*
X182348142Y-98545190D01*
X182252904Y-98497571D01*
X182157666Y-98497571D01*
X182062428Y-98545190D01*
X182014809Y-98592809D01*
X181967190Y-98688047D01*
X181919571Y-98878523D01*
X181871952Y-98973761D01*
X181824333Y-99021380D01*
X181729095Y-99069000D01*
X181633857Y-99069000D01*
X181538619Y-99021380D01*
X181491000Y-98973761D01*
X181443380Y-98878523D01*
X181443380Y-98640428D01*
X181491000Y-98497571D01*
X181443380Y-98069000D02*
X182252904Y-98069000D01*
X182348142Y-98021380D01*
X182395761Y-97973761D01*
X182443380Y-97878523D01*
X182443380Y-97688047D01*
X182395761Y-97592809D01*
X182348142Y-97545190D01*
X182252904Y-97497571D01*
X181443380Y-97497571D01*
X182443380Y-97021380D02*
X181443380Y-97021380D01*
X181443380Y-96640428D01*
X181491000Y-96545190D01*
X181538619Y-96497571D01*
X181633857Y-96449952D01*
X181776714Y-96449952D01*
X181871952Y-96497571D01*
X181919571Y-96545190D01*
X181967190Y-96640428D01*
X181967190Y-97021380D01*
X182443380Y-96021380D02*
X181443380Y-96021380D01*
X181443380Y-95640428D01*
X181491000Y-95545190D01*
X181538619Y-95497571D01*
X181633857Y-95449952D01*
X181776714Y-95449952D01*
X181871952Y-95497571D01*
X181919571Y-95545190D01*
X181967190Y-95640428D01*
X181967190Y-96021380D01*
X182443380Y-94545190D02*
X182443380Y-95021380D01*
X181443380Y-95021380D01*
X181967190Y-94021380D02*
X182443380Y-94021380D01*
X181443380Y-94354714D02*
X181967190Y-94021380D01*
X181443380Y-93688047D01*
X182395761Y-93307095D02*
X182443380Y-93307095D01*
X182538619Y-93354714D01*
X182586238Y-93402333D01*
X183958142Y-113426142D02*
X184005761Y-113473761D01*
X184053380Y-113616619D01*
X184053380Y-113711857D01*
X184005761Y-113854714D01*
X183910523Y-113949952D01*
X183815285Y-113997571D01*
X183624809Y-114045190D01*
X183481952Y-114045190D01*
X183291476Y-113997571D01*
X183196238Y-113949952D01*
X183101000Y-113854714D01*
X183053380Y-113711857D01*
X183053380Y-113616619D01*
X183101000Y-113473761D01*
X183148619Y-113426142D01*
X183529571Y-112997571D02*
X183529571Y-112664238D01*
X184053380Y-112521380D02*
X184053380Y-112997571D01*
X183053380Y-112997571D01*
X183053380Y-112521380D01*
X184053380Y-112092809D02*
X183053380Y-112092809D01*
X184053380Y-111521380D01*
X183053380Y-111521380D01*
X183053380Y-111188047D02*
X183053380Y-110616619D01*
X184053380Y-110902333D02*
X183053380Y-110902333D01*
X183529571Y-110283285D02*
X183529571Y-109949952D01*
X184053380Y-109807095D02*
X184053380Y-110283285D01*
X183053380Y-110283285D01*
X183053380Y-109807095D01*
X184053380Y-108807095D02*
X183577190Y-109140428D01*
X184053380Y-109378523D02*
X183053380Y-109378523D01*
X183053380Y-108997571D01*
X183101000Y-108902333D01*
X183148619Y-108854714D01*
X183243857Y-108807095D01*
X183386714Y-108807095D01*
X183481952Y-108854714D01*
X183529571Y-108902333D01*
X183577190Y-108997571D01*
X183577190Y-109378523D01*
X184053380Y-107616619D02*
X183053380Y-107616619D01*
X183053380Y-107235666D01*
X183101000Y-107140428D01*
X183148619Y-107092809D01*
X183243857Y-107045190D01*
X183386714Y-107045190D01*
X183481952Y-107092809D01*
X183529571Y-107140428D01*
X183577190Y-107235666D01*
X183577190Y-107616619D01*
X183053380Y-106426142D02*
X183053380Y-106235666D01*
X183101000Y-106140428D01*
X183196238Y-106045190D01*
X183386714Y-105997571D01*
X183720047Y-105997571D01*
X183910523Y-106045190D01*
X184005761Y-106140428D01*
X184053380Y-106235666D01*
X184053380Y-106426142D01*
X184005761Y-106521380D01*
X183910523Y-106616619D01*
X183720047Y-106664238D01*
X183386714Y-106664238D01*
X183196238Y-106616619D01*
X183101000Y-106521380D01*
X183053380Y-106426142D01*
X184005761Y-105616619D02*
X184053380Y-105473761D01*
X184053380Y-105235666D01*
X184005761Y-105140428D01*
X183958142Y-105092809D01*
X183862904Y-105045190D01*
X183767666Y-105045190D01*
X183672428Y-105092809D01*
X183624809Y-105140428D01*
X183577190Y-105235666D01*
X183529571Y-105426142D01*
X183481952Y-105521380D01*
X183434333Y-105569000D01*
X183339095Y-105616619D01*
X183243857Y-105616619D01*
X183148619Y-105569000D01*
X183101000Y-105521380D01*
X183053380Y-105426142D01*
X183053380Y-105188047D01*
X183101000Y-105045190D01*
X184053380Y-104616619D02*
X183053380Y-104616619D01*
X183053380Y-104283285D02*
X183053380Y-103711857D01*
X184053380Y-103997571D02*
X183053380Y-103997571D01*
X184053380Y-103378523D02*
X183053380Y-103378523D01*
X183053380Y-103045190D02*
X184053380Y-102711857D01*
X183053380Y-102378523D01*
X183529571Y-102045190D02*
X183529571Y-101711857D01*
X184053380Y-101569000D02*
X184053380Y-102045190D01*
X183053380Y-102045190D01*
X183053380Y-101569000D01*
X183958142Y-101140428D02*
X184005761Y-101092809D01*
X184053380Y-101140428D01*
X184005761Y-101188047D01*
X183958142Y-101140428D01*
X184053380Y-101140428D01*
X88745785Y-65782976D02*
X88776023Y-65813214D01*
X88806261Y-65903928D01*
X88806261Y-65964404D01*
X88776023Y-66055119D01*
X88715547Y-66115595D01*
X88655071Y-66145833D01*
X88534119Y-66176071D01*
X88443404Y-66176071D01*
X88322452Y-66145833D01*
X88261976Y-66115595D01*
X88201500Y-66055119D01*
X88171261Y-65964404D01*
X88171261Y-65903928D01*
X88201500Y-65813214D01*
X88231738Y-65782976D01*
X88806261Y-65208452D02*
X88806261Y-65510833D01*
X88171261Y-65510833D01*
X88806261Y-64996785D02*
X88171261Y-64996785D01*
X88806261Y-64633928D02*
X88443404Y-64906071D01*
X88171261Y-64633928D02*
X88534119Y-64996785D01*
X105791190Y-53685952D02*
X105695952Y-53638333D01*
X105648333Y-53590714D01*
X105600714Y-53495476D01*
X105600714Y-53447857D01*
X105648333Y-53352619D01*
X105695952Y-53305000D01*
X105791190Y-53257380D01*
X105981666Y-53257380D01*
X106076904Y-53305000D01*
X106124523Y-53352619D01*
X106172142Y-53447857D01*
X106172142Y-53495476D01*
X106124523Y-53590714D01*
X106076904Y-53638333D01*
X105981666Y-53685952D01*
X105791190Y-53685952D01*
X105695952Y-53733571D01*
X105648333Y-53781190D01*
X105600714Y-53876428D01*
X105600714Y-54066904D01*
X105648333Y-54162142D01*
X105695952Y-54209761D01*
X105791190Y-54257380D01*
X105981666Y-54257380D01*
X106076904Y-54209761D01*
X106124523Y-54162142D01*
X106172142Y-54066904D01*
X106172142Y-53876428D01*
X106124523Y-53781190D01*
X106076904Y-53733571D01*
X105981666Y-53685952D01*
X106791190Y-53257380D02*
X106886428Y-53257380D01*
X106981666Y-53305000D01*
X107029285Y-53352619D01*
X107076904Y-53447857D01*
X107124523Y-53638333D01*
X107124523Y-53876428D01*
X107076904Y-54066904D01*
X107029285Y-54162142D01*
X106981666Y-54209761D01*
X106886428Y-54257380D01*
X106791190Y-54257380D01*
X106695952Y-54209761D01*
X106648333Y-54162142D01*
X106600714Y-54066904D01*
X106553095Y-53876428D01*
X106553095Y-53638333D01*
X106600714Y-53447857D01*
X106648333Y-53352619D01*
X106695952Y-53305000D01*
X106791190Y-53257380D01*
X107695952Y-53685952D02*
X107600714Y-53638333D01*
X107553095Y-53590714D01*
X107505476Y-53495476D01*
X107505476Y-53447857D01*
X107553095Y-53352619D01*
X107600714Y-53305000D01*
X107695952Y-53257380D01*
X107886428Y-53257380D01*
X107981666Y-53305000D01*
X108029285Y-53352619D01*
X108076904Y-53447857D01*
X108076904Y-53495476D01*
X108029285Y-53590714D01*
X107981666Y-53638333D01*
X107886428Y-53685952D01*
X107695952Y-53685952D01*
X107600714Y-53733571D01*
X107553095Y-53781190D01*
X107505476Y-53876428D01*
X107505476Y-54066904D01*
X107553095Y-54162142D01*
X107600714Y-54209761D01*
X107695952Y-54257380D01*
X107886428Y-54257380D01*
X107981666Y-54209761D01*
X108029285Y-54162142D01*
X108076904Y-54066904D01*
X108076904Y-53876428D01*
X108029285Y-53781190D01*
X107981666Y-53733571D01*
X107886428Y-53685952D01*
X108981666Y-53257380D02*
X108505476Y-53257380D01*
X108457857Y-53733571D01*
X108505476Y-53685952D01*
X108600714Y-53638333D01*
X108838809Y-53638333D01*
X108934047Y-53685952D01*
X108981666Y-53733571D01*
X109029285Y-53828809D01*
X109029285Y-54066904D01*
X108981666Y-54162142D01*
X108934047Y-54209761D01*
X108838809Y-54257380D01*
X108600714Y-54257380D01*
X108505476Y-54209761D01*
X108457857Y-54162142D01*
X106600714Y-55772142D02*
X106553095Y-55819761D01*
X106410238Y-55867380D01*
X106315000Y-55867380D01*
X106172142Y-55819761D01*
X106076904Y-55724523D01*
X106029285Y-55629285D01*
X105981666Y-55438809D01*
X105981666Y-55295952D01*
X106029285Y-55105476D01*
X106076904Y-55010238D01*
X106172142Y-54915000D01*
X106315000Y-54867380D01*
X106410238Y-54867380D01*
X106553095Y-54915000D01*
X106600714Y-54962619D01*
X107029285Y-55867380D02*
X107029285Y-54867380D01*
X107410238Y-54867380D01*
X107505476Y-54915000D01*
X107553095Y-54962619D01*
X107600714Y-55057857D01*
X107600714Y-55200714D01*
X107553095Y-55295952D01*
X107505476Y-55343571D01*
X107410238Y-55391190D01*
X107029285Y-55391190D01*
X108029285Y-54867380D02*
X108029285Y-55676904D01*
X108076904Y-55772142D01*
X108124523Y-55819761D01*
X108219761Y-55867380D01*
X108410238Y-55867380D01*
X108505476Y-55819761D01*
X108553095Y-55772142D01*
X108600714Y-55676904D01*
X108600714Y-54867380D01*
X87991950Y-114844285D02*
X87991950Y-114239523D01*
X88171261Y-114420952D02*
X88171261Y-114541904D01*
X88201500Y-114602380D01*
X88231738Y-114632619D01*
X88322452Y-114693095D01*
X88443404Y-114723333D01*
X88685309Y-114723333D01*
X88745785Y-114693095D01*
X88776023Y-114662857D01*
X88806261Y-114602380D01*
X88806261Y-114481428D01*
X88776023Y-114420952D01*
X88745785Y-114390714D01*
X88685309Y-114360476D01*
X88534119Y-114360476D01*
X88473642Y-114390714D01*
X88443404Y-114420952D01*
X88413166Y-114481428D01*
X88413166Y-114602380D01*
X88443404Y-114662857D01*
X88473642Y-114693095D01*
X88534119Y-114723333D01*
X87991950Y-114239523D02*
X87991950Y-113634761D01*
X88171261Y-113967380D02*
X88171261Y-113906904D01*
X88201500Y-113846428D01*
X88231738Y-113816190D01*
X88292214Y-113785952D01*
X88413166Y-113755714D01*
X88564357Y-113755714D01*
X88685309Y-113785952D01*
X88745785Y-113816190D01*
X88776023Y-113846428D01*
X88806261Y-113906904D01*
X88806261Y-113967380D01*
X88776023Y-114027857D01*
X88745785Y-114058095D01*
X88685309Y-114088333D01*
X88564357Y-114118571D01*
X88413166Y-114118571D01*
X88292214Y-114088333D01*
X88231738Y-114058095D01*
X88201500Y-114027857D01*
X88171261Y-113967380D01*
X87991950Y-113634761D02*
X87991950Y-113030000D01*
X88171261Y-113544047D02*
X88171261Y-113120714D01*
X88806261Y-113392857D01*
X87991950Y-113030000D02*
X87991950Y-112485714D01*
X88473642Y-112667142D02*
X88473642Y-112878809D01*
X88806261Y-112878809D02*
X88171261Y-112878809D01*
X88171261Y-112576428D01*
X88806261Y-61413571D02*
X88171261Y-61413571D01*
X88473642Y-61413571D02*
X88473642Y-61050714D01*
X88806261Y-61050714D02*
X88171261Y-61050714D01*
X88171261Y-60627380D02*
X88171261Y-60506428D01*
X88201500Y-60445952D01*
X88261976Y-60385476D01*
X88382928Y-60355238D01*
X88594595Y-60355238D01*
X88715547Y-60385476D01*
X88776023Y-60445952D01*
X88806261Y-60506428D01*
X88806261Y-60627380D01*
X88776023Y-60687857D01*
X88715547Y-60748333D01*
X88594595Y-60778571D01*
X88382928Y-60778571D01*
X88261976Y-60748333D01*
X88201500Y-60687857D01*
X88171261Y-60627380D01*
X88806261Y-59780714D02*
X88806261Y-60083095D01*
X88171261Y-60083095D01*
X88806261Y-59569047D02*
X88171261Y-59569047D01*
X88171261Y-59417857D01*
X88201500Y-59327142D01*
X88261976Y-59266666D01*
X88322452Y-59236428D01*
X88443404Y-59206190D01*
X88534119Y-59206190D01*
X88655071Y-59236428D01*
X88715547Y-59266666D01*
X88776023Y-59327142D01*
X88806261Y-59417857D01*
X88806261Y-59569047D01*
X86848950Y-112431285D02*
X86848950Y-111826523D01*
X87239928Y-112007952D02*
X87663261Y-112007952D01*
X86998023Y-112159142D02*
X87451595Y-112310333D01*
X87451595Y-111917238D01*
X86848950Y-111826523D02*
X86848950Y-111221761D01*
X87028261Y-111554380D02*
X87028261Y-111493904D01*
X87058500Y-111433428D01*
X87088738Y-111403190D01*
X87149214Y-111372952D01*
X87270166Y-111342714D01*
X87421357Y-111342714D01*
X87542309Y-111372952D01*
X87602785Y-111403190D01*
X87633023Y-111433428D01*
X87663261Y-111493904D01*
X87663261Y-111554380D01*
X87633023Y-111614857D01*
X87602785Y-111645095D01*
X87542309Y-111675333D01*
X87421357Y-111705571D01*
X87270166Y-111705571D01*
X87149214Y-111675333D01*
X87088738Y-111645095D01*
X87058500Y-111614857D01*
X87028261Y-111554380D01*
X86848950Y-111221761D02*
X86848950Y-110617000D01*
X87028261Y-110768190D02*
X87028261Y-111070571D01*
X87330642Y-111100809D01*
X87300404Y-111070571D01*
X87270166Y-111010095D01*
X87270166Y-110858904D01*
X87300404Y-110798428D01*
X87330642Y-110768190D01*
X87391119Y-110737952D01*
X87542309Y-110737952D01*
X87602785Y-110768190D01*
X87633023Y-110798428D01*
X87663261Y-110858904D01*
X87663261Y-111010095D01*
X87633023Y-111070571D01*
X87602785Y-111100809D01*
X86848950Y-110617000D02*
X86848950Y-110072714D01*
X87330642Y-110254142D02*
X87330642Y-110465809D01*
X87663261Y-110465809D02*
X87028261Y-110465809D01*
X87028261Y-110163428D01*
X94382166Y-102733928D02*
X94382166Y-103036309D01*
X94200738Y-102673452D02*
X94835738Y-102885119D01*
X94200738Y-103096785D01*
X94200738Y-103308452D02*
X94835738Y-103308452D01*
X94835738Y-103459642D01*
X94805500Y-103550357D01*
X94745023Y-103610833D01*
X94684547Y-103641071D01*
X94563595Y-103671309D01*
X94472880Y-103671309D01*
X94351928Y-103641071D01*
X94291452Y-103610833D01*
X94230976Y-103550357D01*
X94200738Y-103459642D01*
X94200738Y-103308452D01*
X94835738Y-104245833D02*
X94835738Y-103943452D01*
X94533357Y-103913214D01*
X94563595Y-103943452D01*
X94593833Y-104003928D01*
X94593833Y-104155119D01*
X94563595Y-104215595D01*
X94533357Y-104245833D01*
X94472880Y-104276071D01*
X94321690Y-104276071D01*
X94261214Y-104245833D01*
X94230976Y-104215595D01*
X94200738Y-104155119D01*
X94200738Y-104003928D01*
X94230976Y-103943452D01*
X94261214Y-103913214D01*
X120694380Y-100655047D02*
X120694380Y-99988380D01*
X121694380Y-100416952D01*
X121027714Y-99178857D02*
X121694380Y-99178857D01*
X120646761Y-99416952D02*
X121361047Y-99655047D01*
X121361047Y-99036000D01*
X121694380Y-98178857D02*
X121694380Y-98655047D01*
X120694380Y-98655047D01*
X121646761Y-97893142D02*
X121694380Y-97750285D01*
X121694380Y-97512190D01*
X121646761Y-97416952D01*
X121599142Y-97369333D01*
X121503904Y-97321714D01*
X121408666Y-97321714D01*
X121313428Y-97369333D01*
X121265809Y-97416952D01*
X121218190Y-97512190D01*
X121170571Y-97702666D01*
X121122952Y-97797904D01*
X121075333Y-97845523D01*
X120980095Y-97893142D01*
X120884857Y-97893142D01*
X120789619Y-97845523D01*
X120742000Y-97797904D01*
X120694380Y-97702666D01*
X120694380Y-97464571D01*
X120742000Y-97321714D01*
X120694380Y-96416952D02*
X120694380Y-96893142D01*
X121170571Y-96940761D01*
X121122952Y-96893142D01*
X121075333Y-96797904D01*
X121075333Y-96559809D01*
X121122952Y-96464571D01*
X121170571Y-96416952D01*
X121265809Y-96369333D01*
X121503904Y-96369333D01*
X121599142Y-96416952D01*
X121646761Y-96464571D01*
X121694380Y-96559809D01*
X121694380Y-96797904D01*
X121646761Y-96893142D01*
X121599142Y-96940761D01*
X120694380Y-96036000D02*
X120694380Y-95369333D01*
X121694380Y-95797904D01*
X120694380Y-95083619D02*
X120694380Y-94464571D01*
X121075333Y-94797904D01*
X121075333Y-94655047D01*
X121122952Y-94559809D01*
X121170571Y-94512190D01*
X121265809Y-94464571D01*
X121503904Y-94464571D01*
X121599142Y-94512190D01*
X121646761Y-94559809D01*
X121694380Y-94655047D01*
X121694380Y-94940761D01*
X121646761Y-95036000D01*
X121599142Y-95083619D01*
X123304380Y-99059809D02*
X123304380Y-99536000D01*
X122304380Y-99536000D01*
X123018666Y-98774095D02*
X123018666Y-98297904D01*
X123304380Y-98869333D02*
X122304380Y-98536000D01*
X123304380Y-98202666D01*
X122304380Y-98012190D02*
X122304380Y-97440761D01*
X123304380Y-97726476D02*
X122304380Y-97726476D01*
X123209142Y-96536000D02*
X123256761Y-96583619D01*
X123304380Y-96726476D01*
X123304380Y-96821714D01*
X123256761Y-96964571D01*
X123161523Y-97059809D01*
X123066285Y-97107428D01*
X122875809Y-97155047D01*
X122732952Y-97155047D01*
X122542476Y-97107428D01*
X122447238Y-97059809D01*
X122352000Y-96964571D01*
X122304380Y-96821714D01*
X122304380Y-96726476D01*
X122352000Y-96583619D01*
X122399619Y-96536000D01*
X123304380Y-96107428D02*
X122304380Y-96107428D01*
X122780571Y-96107428D02*
X122780571Y-95536000D01*
X123304380Y-95536000D02*
X122304380Y-95536000D01*
X168219619Y-39187380D02*
X167886285Y-38711190D01*
X167648190Y-39187380D02*
X167648190Y-38187380D01*
X168029142Y-38187380D01*
X168124380Y-38235000D01*
X168172000Y-38282619D01*
X168219619Y-38377857D01*
X168219619Y-38520714D01*
X168172000Y-38615952D01*
X168124380Y-38663571D01*
X168029142Y-38711190D01*
X167648190Y-38711190D01*
X168648190Y-38663571D02*
X168981523Y-38663571D01*
X169124380Y-39187380D02*
X168648190Y-39187380D01*
X168648190Y-38187380D01*
X169124380Y-38187380D01*
X169505333Y-39139761D02*
X169648190Y-39187380D01*
X169886285Y-39187380D01*
X169981523Y-39139761D01*
X170029142Y-39092142D01*
X170076761Y-38996904D01*
X170076761Y-38901666D01*
X170029142Y-38806428D01*
X169981523Y-38758809D01*
X169886285Y-38711190D01*
X169695809Y-38663571D01*
X169600571Y-38615952D01*
X169552952Y-38568333D01*
X169505333Y-38473095D01*
X169505333Y-38377857D01*
X169552952Y-38282619D01*
X169600571Y-38235000D01*
X169695809Y-38187380D01*
X169933904Y-38187380D01*
X170076761Y-38235000D01*
X170505333Y-38663571D02*
X170838666Y-38663571D01*
X170981523Y-39187380D02*
X170505333Y-39187380D01*
X170505333Y-38187380D01*
X170981523Y-38187380D01*
X171267238Y-38187380D02*
X171838666Y-38187380D01*
X171552952Y-39187380D02*
X171552952Y-38187380D01*
X164223571Y-67959952D02*
X164271190Y-67817095D01*
X164318809Y-67769476D01*
X164414047Y-67721857D01*
X164556904Y-67721857D01*
X164652142Y-67769476D01*
X164699761Y-67817095D01*
X164747380Y-67912333D01*
X164747380Y-68293285D01*
X163747380Y-68293285D01*
X163747380Y-67959952D01*
X163795000Y-67864714D01*
X163842619Y-67817095D01*
X163937857Y-67769476D01*
X164033095Y-67769476D01*
X164128333Y-67817095D01*
X164175952Y-67864714D01*
X164223571Y-67959952D01*
X164223571Y-68293285D01*
X164461666Y-67340904D02*
X164461666Y-66864714D01*
X164747380Y-67436142D02*
X163747380Y-67102809D01*
X164747380Y-66769476D01*
X163747380Y-66436142D02*
X164556904Y-66436142D01*
X164652142Y-66388523D01*
X164699761Y-66340904D01*
X164747380Y-66245666D01*
X164747380Y-66055190D01*
X164699761Y-65959952D01*
X164652142Y-65912333D01*
X164556904Y-65864714D01*
X163747380Y-65864714D01*
X164747380Y-65388523D02*
X163747380Y-65388523D01*
X163747380Y-65150428D01*
X163795000Y-65007571D01*
X163890238Y-64912333D01*
X163985476Y-64864714D01*
X164175952Y-64817095D01*
X164318809Y-64817095D01*
X164509285Y-64864714D01*
X164604523Y-64912333D01*
X164699761Y-65007571D01*
X164747380Y-65150428D01*
X164747380Y-65388523D01*
X164747380Y-63055190D02*
X164271190Y-63388523D01*
X164747380Y-63626619D02*
X163747380Y-63626619D01*
X163747380Y-63245666D01*
X163795000Y-63150428D01*
X163842619Y-63102809D01*
X163937857Y-63055190D01*
X164080714Y-63055190D01*
X164175952Y-63102809D01*
X164223571Y-63150428D01*
X164271190Y-63245666D01*
X164271190Y-63626619D01*
X164461666Y-62674238D02*
X164461666Y-62198047D01*
X164747380Y-62769476D02*
X163747380Y-62436142D01*
X164747380Y-62102809D01*
X163747380Y-61912333D02*
X163747380Y-61340904D01*
X164747380Y-61626619D02*
X163747380Y-61626619D01*
X164223571Y-61007571D02*
X164223571Y-60674238D01*
X164747380Y-60531380D02*
X164747380Y-61007571D01*
X163747380Y-61007571D01*
X163747380Y-60531380D01*
X164747380Y-59340904D02*
X163747380Y-59340904D01*
X164699761Y-58912333D02*
X164747380Y-58769476D01*
X164747380Y-58531380D01*
X164699761Y-58436142D01*
X164652142Y-58388523D01*
X164556904Y-58340904D01*
X164461666Y-58340904D01*
X164366428Y-58388523D01*
X164318809Y-58436142D01*
X164271190Y-58531380D01*
X164223571Y-58721857D01*
X164175952Y-58817095D01*
X164128333Y-58864714D01*
X164033095Y-58912333D01*
X163937857Y-58912333D01*
X163842619Y-58864714D01*
X163795000Y-58817095D01*
X163747380Y-58721857D01*
X163747380Y-58483761D01*
X163795000Y-58340904D01*
X164747380Y-56626619D02*
X164747380Y-57198047D01*
X164747380Y-56912333D02*
X163747380Y-56912333D01*
X163890238Y-57007571D01*
X163985476Y-57102809D01*
X164033095Y-57198047D01*
X164747380Y-56150428D02*
X164747380Y-55959952D01*
X164699761Y-55864714D01*
X164652142Y-55817095D01*
X164509285Y-55721857D01*
X164318809Y-55674238D01*
X163937857Y-55674238D01*
X163842619Y-55721857D01*
X163795000Y-55769476D01*
X163747380Y-55864714D01*
X163747380Y-56055190D01*
X163795000Y-56150428D01*
X163842619Y-56198047D01*
X163937857Y-56245666D01*
X164175952Y-56245666D01*
X164271190Y-56198047D01*
X164318809Y-56150428D01*
X164366428Y-56055190D01*
X164366428Y-55864714D01*
X164318809Y-55769476D01*
X164271190Y-55721857D01*
X164175952Y-55674238D01*
X163842619Y-55293285D02*
X163795000Y-55245666D01*
X163747380Y-55150428D01*
X163747380Y-54912333D01*
X163795000Y-54817095D01*
X163842619Y-54769476D01*
X163937857Y-54721857D01*
X164033095Y-54721857D01*
X164175952Y-54769476D01*
X164747380Y-55340904D01*
X164747380Y-54721857D01*
X163747380Y-54102809D02*
X163747380Y-54007571D01*
X163795000Y-53912333D01*
X163842619Y-53864714D01*
X163937857Y-53817095D01*
X164128333Y-53769476D01*
X164366428Y-53769476D01*
X164556904Y-53817095D01*
X164652142Y-53864714D01*
X164699761Y-53912333D01*
X164747380Y-54007571D01*
X164747380Y-54102809D01*
X164699761Y-54198047D01*
X164652142Y-54245666D01*
X164556904Y-54293285D01*
X164366428Y-54340904D01*
X164128333Y-54340904D01*
X163937857Y-54293285D01*
X163842619Y-54245666D01*
X163795000Y-54198047D01*
X163747380Y-54102809D01*
X163747380Y-53150428D02*
X163747380Y-53055190D01*
X163795000Y-52959952D01*
X163842619Y-52912333D01*
X163937857Y-52864714D01*
X164128333Y-52817095D01*
X164366428Y-52817095D01*
X164556904Y-52864714D01*
X164652142Y-52912333D01*
X164699761Y-52959952D01*
X164747380Y-53055190D01*
X164747380Y-53150428D01*
X164699761Y-53245666D01*
X164652142Y-53293285D01*
X164556904Y-53340904D01*
X164366428Y-53388523D01*
X164128333Y-53388523D01*
X163937857Y-53340904D01*
X163842619Y-53293285D01*
X163795000Y-53245666D01*
X163747380Y-53150428D01*
X165357380Y-68626619D02*
X166357380Y-68388523D01*
X165643095Y-68198047D01*
X166357380Y-68007571D01*
X165357380Y-67769476D01*
X166357380Y-67388523D02*
X165357380Y-67388523D01*
X165357380Y-67055190D02*
X165357380Y-66483761D01*
X166357380Y-66769476D02*
X165357380Y-66769476D01*
X166357380Y-66150428D02*
X165357380Y-66150428D01*
X165833571Y-66150428D02*
X165833571Y-65579000D01*
X166357380Y-65579000D02*
X165357380Y-65579000D01*
X165357380Y-63912333D02*
X165357380Y-64102809D01*
X165405000Y-64198047D01*
X165452619Y-64245666D01*
X165595476Y-64340904D01*
X165785952Y-64388523D01*
X166166904Y-64388523D01*
X166262142Y-64340904D01*
X166309761Y-64293285D01*
X166357380Y-64198047D01*
X166357380Y-64007571D01*
X166309761Y-63912333D01*
X166262142Y-63864714D01*
X166166904Y-63817095D01*
X165928809Y-63817095D01*
X165833571Y-63864714D01*
X165785952Y-63912333D01*
X165738333Y-64007571D01*
X165738333Y-64198047D01*
X165785952Y-64293285D01*
X165833571Y-64340904D01*
X165928809Y-64388523D01*
X166262142Y-63388523D02*
X166309761Y-63340904D01*
X166357380Y-63388523D01*
X166309761Y-63436142D01*
X166262142Y-63388523D01*
X166357380Y-63388523D01*
X166357380Y-62388523D02*
X166357380Y-62959952D01*
X166357380Y-62674238D02*
X165357380Y-62674238D01*
X165500238Y-62769476D01*
X165595476Y-62864714D01*
X165643095Y-62959952D01*
X165690714Y-61531380D02*
X166357380Y-61531380D01*
X165309761Y-61769476D02*
X166024047Y-62007571D01*
X166024047Y-61388523D01*
X165690714Y-60579000D02*
X166357380Y-60579000D01*
X165309761Y-60817095D02*
X166024047Y-61055190D01*
X166024047Y-60436142D01*
X166357380Y-59293285D02*
X165357380Y-59293285D01*
X166071666Y-58959952D01*
X165357380Y-58626619D01*
X166357380Y-58626619D01*
X166357380Y-58150428D02*
X165357380Y-58150428D01*
X165833571Y-58150428D02*
X165833571Y-57579000D01*
X166357380Y-57579000D02*
X165357380Y-57579000D01*
X165690714Y-57198047D02*
X165690714Y-56674238D01*
X166357380Y-57198047D01*
X166357380Y-56674238D01*
X165357380Y-55626619D02*
X166357380Y-54959952D01*
X165357380Y-54959952D02*
X166357380Y-55626619D01*
X165357380Y-54721857D02*
X165357380Y-54150428D01*
X166357380Y-54436142D02*
X165357380Y-54436142D01*
X166071666Y-53864714D02*
X166071666Y-53388523D01*
X166357380Y-53959952D02*
X165357380Y-53626619D01*
X166357380Y-53293285D01*
X166357380Y-52483761D02*
X166357380Y-52959952D01*
X165357380Y-52959952D01*
X87991950Y-73787000D02*
X87991950Y-73152000D01*
X88806261Y-73272952D02*
X88503880Y-73484619D01*
X88806261Y-73635809D02*
X88171261Y-73635809D01*
X88171261Y-73393904D01*
X88201500Y-73333428D01*
X88231738Y-73303190D01*
X88292214Y-73272952D01*
X88382928Y-73272952D01*
X88443404Y-73303190D01*
X88473642Y-73333428D01*
X88503880Y-73393904D01*
X88503880Y-73635809D01*
X87991950Y-73152000D02*
X87991950Y-72517000D01*
X88806261Y-73000809D02*
X88171261Y-73000809D01*
X88171261Y-72849619D01*
X88201500Y-72758904D01*
X88261976Y-72698428D01*
X88322452Y-72668190D01*
X88443404Y-72637952D01*
X88534119Y-72637952D01*
X88655071Y-72668190D01*
X88715547Y-72698428D01*
X88776023Y-72758904D01*
X88806261Y-72849619D01*
X88806261Y-73000809D01*
X94200738Y-72132976D02*
X94835738Y-72132976D01*
X94200738Y-72435357D02*
X94835738Y-72435357D01*
X94200738Y-72798214D01*
X94835738Y-72798214D01*
X94835738Y-73009880D02*
X94835738Y-73372738D01*
X94200738Y-73191309D02*
X94835738Y-73191309D01*
X94200738Y-73947261D02*
X94503119Y-73735595D01*
X94200738Y-73584404D02*
X94835738Y-73584404D01*
X94835738Y-73826309D01*
X94805500Y-73886785D01*
X94775261Y-73917023D01*
X94714785Y-73947261D01*
X94624071Y-73947261D01*
X94563595Y-73917023D01*
X94533357Y-73886785D01*
X94503119Y-73826309D01*
X94503119Y-73584404D01*
X155797523Y-118630619D02*
X155845142Y-118583000D01*
X155940380Y-118535380D01*
X156178476Y-118535380D01*
X156273714Y-118583000D01*
X156321333Y-118630619D01*
X156368952Y-118725857D01*
X156368952Y-118821095D01*
X156321333Y-118963952D01*
X155749904Y-119535380D01*
X156368952Y-119535380D01*
X156940380Y-118963952D02*
X156845142Y-118916333D01*
X156797523Y-118868714D01*
X156749904Y-118773476D01*
X156749904Y-118725857D01*
X156797523Y-118630619D01*
X156845142Y-118583000D01*
X156940380Y-118535380D01*
X157130857Y-118535380D01*
X157226095Y-118583000D01*
X157273714Y-118630619D01*
X157321333Y-118725857D01*
X157321333Y-118773476D01*
X157273714Y-118868714D01*
X157226095Y-118916333D01*
X157130857Y-118963952D01*
X156940380Y-118963952D01*
X156845142Y-119011571D01*
X156797523Y-119059190D01*
X156749904Y-119154428D01*
X156749904Y-119344904D01*
X156797523Y-119440142D01*
X156845142Y-119487761D01*
X156940380Y-119535380D01*
X157130857Y-119535380D01*
X157226095Y-119487761D01*
X157273714Y-119440142D01*
X157321333Y-119344904D01*
X157321333Y-119154428D01*
X157273714Y-119059190D01*
X157226095Y-119011571D01*
X157130857Y-118963952D01*
X157702285Y-118630619D02*
X157749904Y-118583000D01*
X157845142Y-118535380D01*
X158083238Y-118535380D01*
X158178476Y-118583000D01*
X158226095Y-118630619D01*
X158273714Y-118725857D01*
X158273714Y-118821095D01*
X158226095Y-118963952D01*
X157654666Y-119535380D01*
X158273714Y-119535380D01*
X159178476Y-118535380D02*
X158702285Y-118535380D01*
X158654666Y-119011571D01*
X158702285Y-118963952D01*
X158797523Y-118916333D01*
X159035619Y-118916333D01*
X159130857Y-118963952D01*
X159178476Y-119011571D01*
X159226095Y-119106809D01*
X159226095Y-119344904D01*
X159178476Y-119440142D01*
X159130857Y-119487761D01*
X159035619Y-119535380D01*
X158797523Y-119535380D01*
X158702285Y-119487761D01*
X158654666Y-119440142D01*
X160083238Y-118535380D02*
X159892761Y-118535380D01*
X159797523Y-118583000D01*
X159749904Y-118630619D01*
X159654666Y-118773476D01*
X159607047Y-118963952D01*
X159607047Y-119344904D01*
X159654666Y-119440142D01*
X159702285Y-119487761D01*
X159797523Y-119535380D01*
X159988000Y-119535380D01*
X160083238Y-119487761D01*
X160130857Y-119440142D01*
X160178476Y-119344904D01*
X160178476Y-119106809D01*
X160130857Y-119011571D01*
X160083238Y-118963952D01*
X159988000Y-118916333D01*
X159797523Y-118916333D01*
X159702285Y-118963952D01*
X159654666Y-119011571D01*
X159607047Y-119106809D01*
X153297523Y-120145380D02*
X153916571Y-120145380D01*
X153583238Y-120526333D01*
X153726095Y-120526333D01*
X153821333Y-120573952D01*
X153868952Y-120621571D01*
X153916571Y-120716809D01*
X153916571Y-120954904D01*
X153868952Y-121050142D01*
X153821333Y-121097761D01*
X153726095Y-121145380D01*
X153440380Y-121145380D01*
X153345142Y-121097761D01*
X153297523Y-121050142D01*
X154297523Y-120240619D02*
X154345142Y-120193000D01*
X154440380Y-120145380D01*
X154678476Y-120145380D01*
X154773714Y-120193000D01*
X154821333Y-120240619D01*
X154868952Y-120335857D01*
X154868952Y-120431095D01*
X154821333Y-120573952D01*
X154249904Y-121145380D01*
X154868952Y-121145380D01*
X155297523Y-121145380D02*
X155297523Y-120145380D01*
X155868952Y-121145380D02*
X155440380Y-120573952D01*
X155868952Y-120145380D02*
X155297523Y-120716809D01*
X157059428Y-120621571D02*
X157392761Y-120621571D01*
X157535619Y-121145380D02*
X157059428Y-121145380D01*
X157059428Y-120145380D01*
X157535619Y-120145380D01*
X157964190Y-120621571D02*
X158297523Y-120621571D01*
X158440380Y-121145380D02*
X157964190Y-121145380D01*
X157964190Y-120145380D01*
X158440380Y-120145380D01*
X158868952Y-121145380D02*
X158868952Y-120145380D01*
X159249904Y-120145380D01*
X159345142Y-120193000D01*
X159392761Y-120240619D01*
X159440380Y-120335857D01*
X159440380Y-120478714D01*
X159392761Y-120573952D01*
X159345142Y-120621571D01*
X159249904Y-120669190D01*
X158868952Y-120669190D01*
X160440380Y-121145380D02*
X160107047Y-120669190D01*
X159868952Y-121145380D02*
X159868952Y-120145380D01*
X160249904Y-120145380D01*
X160345142Y-120193000D01*
X160392761Y-120240619D01*
X160440380Y-120335857D01*
X160440380Y-120478714D01*
X160392761Y-120573952D01*
X160345142Y-120621571D01*
X160249904Y-120669190D01*
X159868952Y-120669190D01*
X161059428Y-120145380D02*
X161249904Y-120145380D01*
X161345142Y-120193000D01*
X161440380Y-120288238D01*
X161488000Y-120478714D01*
X161488000Y-120812047D01*
X161440380Y-121002523D01*
X161345142Y-121097761D01*
X161249904Y-121145380D01*
X161059428Y-121145380D01*
X160964190Y-121097761D01*
X160868952Y-121002523D01*
X160821333Y-120812047D01*
X160821333Y-120478714D01*
X160868952Y-120288238D01*
X160964190Y-120193000D01*
X161059428Y-120145380D01*
X161916571Y-121145380D02*
X161916571Y-120145380D01*
X162249904Y-120859666D01*
X162583238Y-120145380D01*
X162583238Y-121145380D01*
X88806261Y-71513095D02*
X88171261Y-71513095D01*
X88171261Y-71089761D02*
X88171261Y-70968809D01*
X88201500Y-70908333D01*
X88261976Y-70847857D01*
X88382928Y-70817619D01*
X88594595Y-70817619D01*
X88715547Y-70847857D01*
X88776023Y-70908333D01*
X88806261Y-70968809D01*
X88806261Y-71089761D01*
X88776023Y-71150238D01*
X88715547Y-71210714D01*
X88594595Y-71240952D01*
X88382928Y-71240952D01*
X88261976Y-71210714D01*
X88201500Y-71150238D01*
X88171261Y-71089761D01*
X88141023Y-70091904D02*
X88957452Y-70636190D01*
X87991950Y-70031428D02*
X87991950Y-69305714D01*
X88806261Y-69880238D02*
X88171261Y-69880238D01*
X88624833Y-69668571D01*
X88171261Y-69456904D01*
X88806261Y-69456904D01*
X88624833Y-86480952D02*
X88624833Y-86178571D01*
X88806261Y-86541428D02*
X88171261Y-86329761D01*
X88806261Y-86118095D01*
X88806261Y-85573809D02*
X88806261Y-85936666D01*
X88806261Y-85755238D02*
X88171261Y-85755238D01*
X88261976Y-85815714D01*
X88322452Y-85876190D01*
X88352690Y-85936666D01*
X88231738Y-85331904D02*
X88201500Y-85301666D01*
X88171261Y-85241190D01*
X88171261Y-85090000D01*
X88201500Y-85029523D01*
X88231738Y-84999285D01*
X88292214Y-84969047D01*
X88352690Y-84969047D01*
X88443404Y-84999285D01*
X88806261Y-85362142D01*
X88806261Y-84969047D01*
X88171261Y-99271666D02*
X88806261Y-99060000D01*
X88171261Y-98848333D01*
X88745785Y-98273809D02*
X88776023Y-98304047D01*
X88806261Y-98394761D01*
X88806261Y-98455238D01*
X88776023Y-98545952D01*
X88715547Y-98606428D01*
X88655071Y-98636666D01*
X88534119Y-98666904D01*
X88443404Y-98666904D01*
X88322452Y-98636666D01*
X88261976Y-98606428D01*
X88201500Y-98545952D01*
X88171261Y-98455238D01*
X88171261Y-98394761D01*
X88201500Y-98304047D01*
X88231738Y-98273809D01*
X88745785Y-97638809D02*
X88776023Y-97669047D01*
X88806261Y-97759761D01*
X88806261Y-97820238D01*
X88776023Y-97910952D01*
X88715547Y-97971428D01*
X88655071Y-98001666D01*
X88534119Y-98031904D01*
X88443404Y-98031904D01*
X88322452Y-98001666D01*
X88261976Y-97971428D01*
X88201500Y-97910952D01*
X88171261Y-97820238D01*
X88171261Y-97759761D01*
X88201500Y-97669047D01*
X88231738Y-97638809D01*
X95015050Y-74567142D02*
X95015050Y-74869523D01*
X94200738Y-74718333D02*
X94835738Y-74718333D01*
X95015050Y-74869523D02*
X95015050Y-75534761D01*
X94200738Y-75020714D02*
X94835738Y-75020714D01*
X94200738Y-75383571D01*
X94835738Y-75383571D01*
X95015050Y-75534761D02*
X95015050Y-76018571D01*
X94835738Y-75595238D02*
X94835738Y-75958095D01*
X94200738Y-75776666D02*
X94835738Y-75776666D01*
X95015050Y-76018571D02*
X95015050Y-76562857D01*
X94382166Y-76139523D02*
X94382166Y-76441904D01*
X94200738Y-76079047D02*
X94835738Y-76290714D01*
X94200738Y-76502380D01*
X144024047Y-43403761D02*
X144024047Y-43645666D01*
X144084523Y-43645666D02*
X144084523Y-43403761D01*
X144145000Y-43343285D02*
X144145000Y-43706142D01*
X144205476Y-43645666D02*
X144205476Y-43403761D01*
X144265952Y-43403761D02*
X144265952Y-43645666D01*
X144024047Y-43585190D02*
X144145000Y-43706142D01*
X144265952Y-43585190D01*
X144024047Y-43464238D02*
X144145000Y-43343285D01*
X144265952Y-43464238D01*
X144024047Y-43403761D02*
X144145000Y-43343285D01*
X144265952Y-43403761D01*
X144326428Y-43524714D01*
X144265952Y-43645666D01*
X144145000Y-43706142D01*
X144024047Y-43645666D01*
X143963571Y-43524714D01*
X144024047Y-43403761D01*
X180737095Y-54745000D02*
X180641857Y-54697380D01*
X180499000Y-54697380D01*
X180356142Y-54745000D01*
X180260904Y-54840238D01*
X180213285Y-54935476D01*
X180165666Y-55125952D01*
X180165666Y-55268809D01*
X180213285Y-55459285D01*
X180260904Y-55554523D01*
X180356142Y-55649761D01*
X180499000Y-55697380D01*
X180594238Y-55697380D01*
X180737095Y-55649761D01*
X180784714Y-55602142D01*
X180784714Y-55268809D01*
X180594238Y-55268809D01*
X181784714Y-55697380D02*
X181451381Y-55221190D01*
X181213285Y-55697380D02*
X181213285Y-54697380D01*
X181594238Y-54697380D01*
X181689476Y-54745000D01*
X181737095Y-54792619D01*
X181784714Y-54887857D01*
X181784714Y-55030714D01*
X181737095Y-55125952D01*
X181689476Y-55173571D01*
X181594238Y-55221190D01*
X181213285Y-55221190D01*
X182213285Y-55173571D02*
X182546619Y-55173571D01*
X182689476Y-55697380D02*
X182213285Y-55697380D01*
X182213285Y-54697380D01*
X182689476Y-54697380D01*
X183118047Y-55173571D02*
X183451381Y-55173571D01*
X183594238Y-55697380D02*
X183118047Y-55697380D01*
X183118047Y-54697380D01*
X183594238Y-54697380D01*
X184022809Y-55697380D02*
X184022809Y-54697380D01*
X184594238Y-55697380D01*
X184594238Y-54697380D01*
X94200738Y-67385595D02*
X94503119Y-67173928D01*
X94200738Y-67022738D02*
X94835738Y-67022738D01*
X94835738Y-67264642D01*
X94805500Y-67325119D01*
X94775261Y-67355357D01*
X94714785Y-67385595D01*
X94624071Y-67385595D01*
X94563595Y-67355357D01*
X94533357Y-67325119D01*
X94503119Y-67264642D01*
X94503119Y-67022738D01*
X94835738Y-67597261D02*
X94835738Y-68020595D01*
X94200738Y-67748452D01*
X94261214Y-68262500D02*
X94230976Y-68292738D01*
X94200738Y-68262500D01*
X94230976Y-68232261D01*
X94261214Y-68262500D01*
X94200738Y-68262500D01*
X94835738Y-68867261D02*
X94835738Y-68564880D01*
X94533357Y-68534642D01*
X94563595Y-68564880D01*
X94593833Y-68625357D01*
X94593833Y-68776547D01*
X94563595Y-68837023D01*
X94533357Y-68867261D01*
X94472880Y-68897500D01*
X94321690Y-68897500D01*
X94261214Y-68867261D01*
X94230976Y-68837023D01*
X94200738Y-68776547D01*
X94200738Y-68625357D01*
X94230976Y-68564880D01*
X94261214Y-68534642D01*
X88624833Y-96338571D02*
X88624833Y-96036190D01*
X88806261Y-96399047D02*
X88171261Y-96187380D01*
X88806261Y-95975714D01*
X88443404Y-95673333D02*
X88413166Y-95733809D01*
X88382928Y-95764047D01*
X88322452Y-95794285D01*
X88292214Y-95794285D01*
X88231738Y-95764047D01*
X88201500Y-95733809D01*
X88171261Y-95673333D01*
X88171261Y-95552380D01*
X88201500Y-95491904D01*
X88231738Y-95461666D01*
X88292214Y-95431428D01*
X88322452Y-95431428D01*
X88382928Y-95461666D01*
X88413166Y-95491904D01*
X88443404Y-95552380D01*
X88443404Y-95673333D01*
X88473642Y-95733809D01*
X88503880Y-95764047D01*
X88564357Y-95794285D01*
X88685309Y-95794285D01*
X88745785Y-95764047D01*
X88776023Y-95733809D01*
X88806261Y-95673333D01*
X88806261Y-95552380D01*
X88776023Y-95491904D01*
X88745785Y-95461666D01*
X88685309Y-95431428D01*
X88564357Y-95431428D01*
X88503880Y-95461666D01*
X88473642Y-95491904D01*
X88443404Y-95552380D01*
X157202476Y-39187380D02*
X157202476Y-38187380D01*
X157583428Y-38187380D01*
X157678666Y-38235000D01*
X157726285Y-38282619D01*
X157773904Y-38377857D01*
X157773904Y-38520714D01*
X157726285Y-38615952D01*
X157678666Y-38663571D01*
X157583428Y-38711190D01*
X157202476Y-38711190D01*
X158392952Y-38187380D02*
X158583428Y-38187380D01*
X158678666Y-38235000D01*
X158773904Y-38330238D01*
X158821523Y-38520714D01*
X158821523Y-38854047D01*
X158773904Y-39044523D01*
X158678666Y-39139761D01*
X158583428Y-39187380D01*
X158392952Y-39187380D01*
X158297714Y-39139761D01*
X158202476Y-39044523D01*
X158154857Y-38854047D01*
X158154857Y-38520714D01*
X158202476Y-38330238D01*
X158297714Y-38235000D01*
X158392952Y-38187380D01*
X159154857Y-38187380D02*
X159392952Y-39187380D01*
X159583428Y-38473095D01*
X159773904Y-39187380D01*
X160012000Y-38187380D01*
X160392952Y-38663571D02*
X160726285Y-38663571D01*
X160869142Y-39187380D02*
X160392952Y-39187380D01*
X160392952Y-38187380D01*
X160869142Y-38187380D01*
X161869142Y-39187380D02*
X161535809Y-38711190D01*
X161297714Y-39187380D02*
X161297714Y-38187380D01*
X161678666Y-38187380D01*
X161773904Y-38235000D01*
X161821523Y-38282619D01*
X161869142Y-38377857D01*
X161869142Y-38520714D01*
X161821523Y-38615952D01*
X161773904Y-38663571D01*
X161678666Y-38711190D01*
X161297714Y-38711190D01*
X94382166Y-82413928D02*
X94382166Y-82716309D01*
X94200738Y-82353452D02*
X94835738Y-82565119D01*
X94200738Y-82776785D01*
X94200738Y-82988452D02*
X94835738Y-82988452D01*
X94835738Y-83139642D01*
X94805500Y-83230357D01*
X94745023Y-83290833D01*
X94684547Y-83321071D01*
X94563595Y-83351309D01*
X94472880Y-83351309D01*
X94351928Y-83321071D01*
X94291452Y-83290833D01*
X94230976Y-83230357D01*
X94200738Y-83139642D01*
X94200738Y-82988452D01*
X94200738Y-83956071D02*
X94200738Y-83593214D01*
X94200738Y-83774642D02*
X94835738Y-83774642D01*
X94745023Y-83714166D01*
X94684547Y-83653690D01*
X94654309Y-83593214D01*
X96145047Y-81757761D02*
X96145047Y-81999666D01*
X96205523Y-81999666D02*
X96205523Y-81757761D01*
X96266000Y-81697285D02*
X96266000Y-82060142D01*
X96326476Y-81999666D02*
X96326476Y-81757761D01*
X96386952Y-81757761D02*
X96386952Y-81999666D01*
X96145047Y-81939190D02*
X96266000Y-82060142D01*
X96386952Y-81939190D01*
X96145047Y-81818238D02*
X96266000Y-81697285D01*
X96386952Y-81818238D01*
X96145047Y-81757761D02*
X96266000Y-81697285D01*
X96386952Y-81757761D01*
X96447428Y-81878714D01*
X96386952Y-81999666D01*
X96266000Y-82060142D01*
X96145047Y-81999666D01*
X96084571Y-81878714D01*
X96145047Y-81757761D01*
X95829428Y-102140238D02*
X95829428Y-102473571D01*
X95305619Y-102616428D02*
X95305619Y-102140238D01*
X96305619Y-102140238D01*
X96305619Y-102616428D01*
X96305619Y-102949761D02*
X95305619Y-103616428D01*
X96305619Y-103616428D02*
X95305619Y-102949761D01*
X95305619Y-103997380D02*
X96305619Y-103997380D01*
X96305619Y-104378333D01*
X96258000Y-104473571D01*
X96210380Y-104521190D01*
X96115142Y-104568809D01*
X95972285Y-104568809D01*
X95877047Y-104521190D01*
X95829428Y-104473571D01*
X95781809Y-104378333D01*
X95781809Y-103997380D01*
X95591333Y-104949761D02*
X95591333Y-105425952D01*
X95305619Y-104854523D02*
X96305619Y-105187857D01*
X95305619Y-105521190D01*
X95305619Y-105854523D02*
X96305619Y-105854523D01*
X95305619Y-106425952D01*
X96305619Y-106425952D01*
X95353238Y-106854523D02*
X95305619Y-106997380D01*
X95305619Y-107235476D01*
X95353238Y-107330714D01*
X95400857Y-107378333D01*
X95496095Y-107425952D01*
X95591333Y-107425952D01*
X95686571Y-107378333D01*
X95734190Y-107330714D01*
X95781809Y-107235476D01*
X95829428Y-107045000D01*
X95877047Y-106949761D01*
X95924666Y-106902142D01*
X96019904Y-106854523D01*
X96115142Y-106854523D01*
X96210380Y-106902142D01*
X96258000Y-106949761D01*
X96305619Y-107045000D01*
X96305619Y-107283095D01*
X96258000Y-107425952D01*
X95305619Y-107854523D02*
X96305619Y-107854523D01*
X96305619Y-108521190D02*
X96305619Y-108711666D01*
X96258000Y-108806904D01*
X96162761Y-108902142D01*
X95972285Y-108949761D01*
X95638952Y-108949761D01*
X95448476Y-108902142D01*
X95353238Y-108806904D01*
X95305619Y-108711666D01*
X95305619Y-108521190D01*
X95353238Y-108425952D01*
X95448476Y-108330714D01*
X95638952Y-108283095D01*
X95972285Y-108283095D01*
X96162761Y-108330714D01*
X96258000Y-108425952D01*
X96305619Y-108521190D01*
X95305619Y-109378333D02*
X96305619Y-109378333D01*
X95305619Y-109949761D01*
X96305619Y-109949761D01*
X94382166Y-105591428D02*
X94382166Y-105893809D01*
X94200738Y-105530952D02*
X94835738Y-105742619D01*
X94200738Y-105954285D01*
X94835738Y-106468333D02*
X94835738Y-106165952D01*
X94533357Y-106135714D01*
X94563595Y-106165952D01*
X94593833Y-106226428D01*
X94593833Y-106377619D01*
X94563595Y-106438095D01*
X94533357Y-106468333D01*
X94472880Y-106498571D01*
X94321690Y-106498571D01*
X94261214Y-106468333D01*
X94230976Y-106438095D01*
X94200738Y-106377619D01*
X94200738Y-106226428D01*
X94230976Y-106165952D01*
X94261214Y-106135714D01*
X94230976Y-59493452D02*
X94200738Y-59584166D01*
X94200738Y-59735357D01*
X94230976Y-59795833D01*
X94261214Y-59826071D01*
X94321690Y-59856309D01*
X94382166Y-59856309D01*
X94442642Y-59826071D01*
X94472880Y-59795833D01*
X94503119Y-59735357D01*
X94533357Y-59614404D01*
X94563595Y-59553928D01*
X94593833Y-59523690D01*
X94654309Y-59493452D01*
X94714785Y-59493452D01*
X94775261Y-59523690D01*
X94805500Y-59553928D01*
X94835738Y-59614404D01*
X94835738Y-59765595D01*
X94805500Y-59856309D01*
X94835738Y-60249404D02*
X94835738Y-60370357D01*
X94805500Y-60430833D01*
X94745023Y-60491309D01*
X94624071Y-60521547D01*
X94412404Y-60521547D01*
X94291452Y-60491309D01*
X94230976Y-60430833D01*
X94200738Y-60370357D01*
X94200738Y-60249404D01*
X94230976Y-60188928D01*
X94291452Y-60128452D01*
X94412404Y-60098214D01*
X94624071Y-60098214D01*
X94745023Y-60128452D01*
X94805500Y-60188928D01*
X94835738Y-60249404D01*
X94200738Y-60793690D02*
X94835738Y-60793690D01*
X94835738Y-60944880D01*
X94805500Y-61035595D01*
X94745023Y-61096071D01*
X94684547Y-61126309D01*
X94563595Y-61156547D01*
X94472880Y-61156547D01*
X94351928Y-61126309D01*
X94291452Y-61096071D01*
X94230976Y-61035595D01*
X94200738Y-60944880D01*
X94200738Y-60793690D01*
X94382166Y-97653928D02*
X94382166Y-97956309D01*
X94200738Y-97593452D02*
X94835738Y-97805119D01*
X94200738Y-98016785D01*
X94200738Y-98228452D02*
X94835738Y-98228452D01*
X94835738Y-98379642D01*
X94805500Y-98470357D01*
X94745023Y-98530833D01*
X94684547Y-98561071D01*
X94563595Y-98591309D01*
X94472880Y-98591309D01*
X94351928Y-98561071D01*
X94291452Y-98530833D01*
X94230976Y-98470357D01*
X94200738Y-98379642D01*
X94200738Y-98228452D01*
X94624071Y-99135595D02*
X94200738Y-99135595D01*
X94865976Y-98984404D02*
X94412404Y-98833214D01*
X94412404Y-99226309D01*
X88624833Y-78860952D02*
X88624833Y-78558571D01*
X88806261Y-78921428D02*
X88171261Y-78709761D01*
X88806261Y-78498095D01*
X88806261Y-77953809D02*
X88806261Y-78316666D01*
X88806261Y-78135238D02*
X88171261Y-78135238D01*
X88261976Y-78195714D01*
X88322452Y-78256190D01*
X88352690Y-78316666D01*
X88171261Y-77379285D02*
X88171261Y-77681666D01*
X88473642Y-77711904D01*
X88443404Y-77681666D01*
X88413166Y-77621190D01*
X88413166Y-77470000D01*
X88443404Y-77409523D01*
X88473642Y-77379285D01*
X88534119Y-77349047D01*
X88685309Y-77349047D01*
X88745785Y-77379285D01*
X88776023Y-77409523D01*
X88806261Y-77470000D01*
X88806261Y-77621190D01*
X88776023Y-77681666D01*
X88745785Y-77711904D01*
X94382166Y-110671428D02*
X94382166Y-110973809D01*
X94200738Y-110610952D02*
X94835738Y-110822619D01*
X94200738Y-111034285D01*
X94835738Y-111518095D02*
X94835738Y-111397142D01*
X94805500Y-111336666D01*
X94775261Y-111306428D01*
X94684547Y-111245952D01*
X94563595Y-111215714D01*
X94321690Y-111215714D01*
X94261214Y-111245952D01*
X94230976Y-111276190D01*
X94200738Y-111336666D01*
X94200738Y-111457619D01*
X94230976Y-111518095D01*
X94261214Y-111548333D01*
X94321690Y-111578571D01*
X94472880Y-111578571D01*
X94533357Y-111548333D01*
X94563595Y-111518095D01*
X94593833Y-111457619D01*
X94593833Y-111336666D01*
X94563595Y-111276190D01*
X94533357Y-111245952D01*
X94472880Y-111215714D01*
X88171261Y-58631666D02*
X88806261Y-58420000D01*
X88171261Y-58208333D01*
X88745785Y-57633809D02*
X88776023Y-57664047D01*
X88806261Y-57754761D01*
X88806261Y-57815238D01*
X88776023Y-57905952D01*
X88715547Y-57966428D01*
X88655071Y-57996666D01*
X88534119Y-58026904D01*
X88443404Y-58026904D01*
X88322452Y-57996666D01*
X88261976Y-57966428D01*
X88201500Y-57905952D01*
X88171261Y-57815238D01*
X88171261Y-57754761D01*
X88201500Y-57664047D01*
X88231738Y-57633809D01*
X88745785Y-56998809D02*
X88776023Y-57029047D01*
X88806261Y-57119761D01*
X88806261Y-57180238D01*
X88776023Y-57270952D01*
X88715547Y-57331428D01*
X88655071Y-57361666D01*
X88534119Y-57391904D01*
X88443404Y-57391904D01*
X88322452Y-57361666D01*
X88261976Y-57331428D01*
X88201500Y-57270952D01*
X88171261Y-57180238D01*
X88171261Y-57119761D01*
X88201500Y-57029047D01*
X88231738Y-56998809D01*
X94382166Y-100511428D02*
X94382166Y-100813809D01*
X94200738Y-100450952D02*
X94835738Y-100662619D01*
X94200738Y-100874285D01*
X94624071Y-101358095D02*
X94200738Y-101358095D01*
X94865976Y-101206904D02*
X94412404Y-101055714D01*
X94412404Y-101448809D01*
X94382166Y-80191428D02*
X94382166Y-80493809D01*
X94200738Y-80130952D02*
X94835738Y-80342619D01*
X94200738Y-80554285D01*
X94835738Y-80886904D02*
X94835738Y-80947380D01*
X94805500Y-81007857D01*
X94775261Y-81038095D01*
X94714785Y-81068333D01*
X94593833Y-81098571D01*
X94442642Y-81098571D01*
X94321690Y-81068333D01*
X94261214Y-81038095D01*
X94230976Y-81007857D01*
X94200738Y-80947380D01*
X94200738Y-80886904D01*
X94230976Y-80826428D01*
X94261214Y-80796190D01*
X94321690Y-80765952D01*
X94442642Y-80735714D01*
X94593833Y-80735714D01*
X94714785Y-80765952D01*
X94775261Y-80796190D01*
X94805500Y-80826428D01*
X94835738Y-80886904D01*
X88624833Y-91560952D02*
X88624833Y-91258571D01*
X88806261Y-91621428D02*
X88171261Y-91409761D01*
X88806261Y-91198095D01*
X88806261Y-90653809D02*
X88806261Y-91016666D01*
X88806261Y-90835238D02*
X88171261Y-90835238D01*
X88261976Y-90895714D01*
X88322452Y-90956190D01*
X88352690Y-91016666D01*
X88171261Y-90260714D02*
X88171261Y-90200238D01*
X88201500Y-90139761D01*
X88231738Y-90109523D01*
X88292214Y-90079285D01*
X88413166Y-90049047D01*
X88564357Y-90049047D01*
X88685309Y-90079285D01*
X88745785Y-90109523D01*
X88776023Y-90139761D01*
X88806261Y-90200238D01*
X88806261Y-90260714D01*
X88776023Y-90321190D01*
X88745785Y-90351428D01*
X88685309Y-90381666D01*
X88564357Y-90411904D01*
X88413166Y-90411904D01*
X88292214Y-90381666D01*
X88231738Y-90351428D01*
X88201500Y-90321190D01*
X88171261Y-90260714D01*
X94835738Y-64316428D02*
X94835738Y-64679285D01*
X94200738Y-64497857D02*
X94835738Y-64497857D01*
X94200738Y-65253809D02*
X94503119Y-65042142D01*
X94200738Y-64890952D02*
X94835738Y-64890952D01*
X94835738Y-65132857D01*
X94805500Y-65193333D01*
X94775261Y-65223571D01*
X94714785Y-65253809D01*
X94624071Y-65253809D01*
X94563595Y-65223571D01*
X94533357Y-65193333D01*
X94503119Y-65132857D01*
X94503119Y-64890952D01*
X94382166Y-65495714D02*
X94382166Y-65798095D01*
X94200738Y-65435238D02*
X94835738Y-65646904D01*
X94200738Y-65858571D01*
X94200738Y-66070238D02*
X94835738Y-66070238D01*
X94835738Y-66312142D01*
X94805500Y-66372619D01*
X94775261Y-66402857D01*
X94714785Y-66433095D01*
X94624071Y-66433095D01*
X94563595Y-66402857D01*
X94533357Y-66372619D01*
X94503119Y-66312142D01*
X94503119Y-66070238D01*
G04 #@! TO.C,C6*
X124396142Y-75223666D02*
X124443761Y-75271285D01*
X124491380Y-75414142D01*
X124491380Y-75509380D01*
X124443761Y-75652238D01*
X124348523Y-75747476D01*
X124253285Y-75795095D01*
X124062809Y-75842714D01*
X123919952Y-75842714D01*
X123729476Y-75795095D01*
X123634238Y-75747476D01*
X123539000Y-75652238D01*
X123491380Y-75509380D01*
X123491380Y-75414142D01*
X123539000Y-75271285D01*
X123586619Y-75223666D01*
X123491380Y-74366523D02*
X123491380Y-74557000D01*
X123539000Y-74652238D01*
X123586619Y-74699857D01*
X123729476Y-74795095D01*
X123919952Y-74842714D01*
X124300904Y-74842714D01*
X124396142Y-74795095D01*
X124443761Y-74747476D01*
X124491380Y-74652238D01*
X124491380Y-74461761D01*
X124443761Y-74366523D01*
X124396142Y-74318904D01*
X124300904Y-74271285D01*
X124062809Y-74271285D01*
X123967571Y-74318904D01*
X123919952Y-74366523D01*
X123872333Y-74461761D01*
X123872333Y-74652238D01*
X123919952Y-74747476D01*
X123967571Y-74795095D01*
X124062809Y-74842714D01*
G04 #@! TO.C,C1*
X104100333Y-42394142D02*
X104052714Y-42441761D01*
X103909857Y-42489380D01*
X103814619Y-42489380D01*
X103671761Y-42441761D01*
X103576523Y-42346523D01*
X103528904Y-42251285D01*
X103481285Y-42060809D01*
X103481285Y-41917952D01*
X103528904Y-41727476D01*
X103576523Y-41632238D01*
X103671761Y-41537000D01*
X103814619Y-41489380D01*
X103909857Y-41489380D01*
X104052714Y-41537000D01*
X104100333Y-41584619D01*
X105052714Y-42489380D02*
X104481285Y-42489380D01*
X104767000Y-42489380D02*
X104767000Y-41489380D01*
X104671761Y-41632238D01*
X104576523Y-41727476D01*
X104481285Y-41775095D01*
G04 #@! TO.C,C2*
X111573343Y-42394142D02*
X111525724Y-42441761D01*
X111382867Y-42489380D01*
X111287629Y-42489380D01*
X111144771Y-42441761D01*
X111049533Y-42346523D01*
X111001914Y-42251285D01*
X110954295Y-42060809D01*
X110954295Y-41917952D01*
X111001914Y-41727476D01*
X111049533Y-41632238D01*
X111144771Y-41537000D01*
X111287629Y-41489380D01*
X111382867Y-41489380D01*
X111525724Y-41537000D01*
X111573343Y-41584619D01*
X111954295Y-41584619D02*
X112001914Y-41537000D01*
X112097152Y-41489380D01*
X112335248Y-41489380D01*
X112430486Y-41537000D01*
X112478105Y-41584619D01*
X112525724Y-41679857D01*
X112525724Y-41775095D01*
X112478105Y-41917952D01*
X111906676Y-42489380D01*
X112525724Y-42489380D01*
G04 #@! TO.C,J3*
X176831666Y-69556380D02*
X176831666Y-70270666D01*
X176784047Y-70413523D01*
X176688809Y-70508761D01*
X176545952Y-70556380D01*
X176450714Y-70556380D01*
X177212619Y-69556380D02*
X177831666Y-69556380D01*
X177498333Y-69937333D01*
X177641190Y-69937333D01*
X177736428Y-69984952D01*
X177784047Y-70032571D01*
X177831666Y-70127809D01*
X177831666Y-70365904D01*
X177784047Y-70461142D01*
X177736428Y-70508761D01*
X177641190Y-70556380D01*
X177355476Y-70556380D01*
X177260238Y-70508761D01*
X177212619Y-70461142D01*
G04 #@! TO.C,U3*
X135890095Y-45182380D02*
X135890095Y-45991904D01*
X135937714Y-46087142D01*
X135985333Y-46134761D01*
X136080571Y-46182380D01*
X136271047Y-46182380D01*
X136366285Y-46134761D01*
X136413904Y-46087142D01*
X136461523Y-45991904D01*
X136461523Y-45182380D01*
X136842476Y-45182380D02*
X137461523Y-45182380D01*
X137128190Y-45563333D01*
X137271047Y-45563333D01*
X137366285Y-45610952D01*
X137413904Y-45658571D01*
X137461523Y-45753809D01*
X137461523Y-45991904D01*
X137413904Y-46087142D01*
X137366285Y-46134761D01*
X137271047Y-46182380D01*
X136985333Y-46182380D01*
X136890095Y-46134761D01*
X136842476Y-46087142D01*
G04 #@! TO.C,J2*
X174164666Y-82495380D02*
X174164666Y-83209666D01*
X174117047Y-83352523D01*
X174021809Y-83447761D01*
X173878952Y-83495380D01*
X173783714Y-83495380D01*
X174593238Y-82590619D02*
X174640857Y-82543000D01*
X174736095Y-82495380D01*
X174974190Y-82495380D01*
X175069428Y-82543000D01*
X175117047Y-82590619D01*
X175164666Y-82685857D01*
X175164666Y-82781095D01*
X175117047Y-82923952D01*
X174545619Y-83495380D01*
X175164666Y-83495380D01*
G04 #@! TO.C,R4*
X140295333Y-124912380D02*
X139962000Y-124436190D01*
X139723904Y-124912380D02*
X139723904Y-123912380D01*
X140104857Y-123912380D01*
X140200095Y-123960000D01*
X140247714Y-124007619D01*
X140295333Y-124102857D01*
X140295333Y-124245714D01*
X140247714Y-124340952D01*
X140200095Y-124388571D01*
X140104857Y-124436190D01*
X139723904Y-124436190D01*
X141152476Y-124245714D02*
X141152476Y-124912380D01*
X140914380Y-123864761D02*
X140676285Y-124579047D01*
X141295333Y-124579047D01*
G04 #@! TO.C,C9*
X118812333Y-108420142D02*
X118764714Y-108467761D01*
X118621857Y-108515380D01*
X118526619Y-108515380D01*
X118383761Y-108467761D01*
X118288523Y-108372523D01*
X118240904Y-108277285D01*
X118193285Y-108086809D01*
X118193285Y-107943952D01*
X118240904Y-107753476D01*
X118288523Y-107658238D01*
X118383761Y-107563000D01*
X118526619Y-107515380D01*
X118621857Y-107515380D01*
X118764714Y-107563000D01*
X118812333Y-107610619D01*
X119288523Y-108515380D02*
X119479000Y-108515380D01*
X119574238Y-108467761D01*
X119621857Y-108420142D01*
X119717095Y-108277285D01*
X119764714Y-108086809D01*
X119764714Y-107705857D01*
X119717095Y-107610619D01*
X119669476Y-107563000D01*
X119574238Y-107515380D01*
X119383761Y-107515380D01*
X119288523Y-107563000D01*
X119240904Y-107610619D01*
X119193285Y-107705857D01*
X119193285Y-107943952D01*
X119240904Y-108039190D01*
X119288523Y-108086809D01*
X119383761Y-108134428D01*
X119574238Y-108134428D01*
X119669476Y-108086809D01*
X119717095Y-108039190D01*
X119764714Y-107943952D01*
G04 #@! TO.C,C12*
X144010142Y-131167142D02*
X143962523Y-131214761D01*
X143819666Y-131262380D01*
X143724428Y-131262380D01*
X143581571Y-131214761D01*
X143486333Y-131119523D01*
X143438714Y-131024285D01*
X143391095Y-130833809D01*
X143391095Y-130690952D01*
X143438714Y-130500476D01*
X143486333Y-130405238D01*
X143581571Y-130310000D01*
X143724428Y-130262380D01*
X143819666Y-130262380D01*
X143962523Y-130310000D01*
X144010142Y-130357619D01*
X144962523Y-131262380D02*
X144391095Y-131262380D01*
X144676809Y-131262380D02*
X144676809Y-130262380D01*
X144581571Y-130405238D01*
X144486333Y-130500476D01*
X144391095Y-130548095D01*
X145343476Y-130357619D02*
X145391095Y-130310000D01*
X145486333Y-130262380D01*
X145724428Y-130262380D01*
X145819666Y-130310000D01*
X145867285Y-130357619D01*
X145914904Y-130452857D01*
X145914904Y-130548095D01*
X145867285Y-130690952D01*
X145295857Y-131262380D01*
X145914904Y-131262380D01*
G04 #@! TO.C,C5*
X124801333Y-40489142D02*
X124753714Y-40536761D01*
X124610857Y-40584380D01*
X124515619Y-40584380D01*
X124372761Y-40536761D01*
X124277523Y-40441523D01*
X124229904Y-40346285D01*
X124182285Y-40155809D01*
X124182285Y-40012952D01*
X124229904Y-39822476D01*
X124277523Y-39727238D01*
X124372761Y-39632000D01*
X124515619Y-39584380D01*
X124610857Y-39584380D01*
X124753714Y-39632000D01*
X124801333Y-39679619D01*
X125706095Y-39584380D02*
X125229904Y-39584380D01*
X125182285Y-40060571D01*
X125229904Y-40012952D01*
X125325142Y-39965333D01*
X125563238Y-39965333D01*
X125658476Y-40012952D01*
X125706095Y-40060571D01*
X125753714Y-40155809D01*
X125753714Y-40393904D01*
X125706095Y-40489142D01*
X125658476Y-40536761D01*
X125563238Y-40584380D01*
X125325142Y-40584380D01*
X125229904Y-40536761D01*
X125182285Y-40489142D01*
G04 #@! TO.C,SW1*
X168211666Y-43584761D02*
X168354523Y-43632380D01*
X168592619Y-43632380D01*
X168687857Y-43584761D01*
X168735476Y-43537142D01*
X168783095Y-43441904D01*
X168783095Y-43346666D01*
X168735476Y-43251428D01*
X168687857Y-43203809D01*
X168592619Y-43156190D01*
X168402142Y-43108571D01*
X168306904Y-43060952D01*
X168259285Y-43013333D01*
X168211666Y-42918095D01*
X168211666Y-42822857D01*
X168259285Y-42727619D01*
X168306904Y-42680000D01*
X168402142Y-42632380D01*
X168640238Y-42632380D01*
X168783095Y-42680000D01*
X169116428Y-42632380D02*
X169354523Y-43632380D01*
X169545000Y-42918095D01*
X169735476Y-43632380D01*
X169973571Y-42632380D01*
X170878333Y-43632380D02*
X170306904Y-43632380D01*
X170592619Y-43632380D02*
X170592619Y-42632380D01*
X170497380Y-42775238D01*
X170402142Y-42870476D01*
X170306904Y-42918095D01*
G04 #@! TO.C,R2*
X118689380Y-61888666D02*
X118213190Y-62222000D01*
X118689380Y-62460095D02*
X117689380Y-62460095D01*
X117689380Y-62079142D01*
X117737000Y-61983904D01*
X117784619Y-61936285D01*
X117879857Y-61888666D01*
X118022714Y-61888666D01*
X118117952Y-61936285D01*
X118165571Y-61983904D01*
X118213190Y-62079142D01*
X118213190Y-62460095D01*
X117784619Y-61507714D02*
X117737000Y-61460095D01*
X117689380Y-61364857D01*
X117689380Y-61126761D01*
X117737000Y-61031523D01*
X117784619Y-60983904D01*
X117879857Y-60936285D01*
X117975095Y-60936285D01*
X118117952Y-60983904D01*
X118689380Y-61555333D01*
X118689380Y-60936285D01*
G04 #@! TO.C,C7*
X156678333Y-70588142D02*
X156630714Y-70635761D01*
X156487857Y-70683380D01*
X156392619Y-70683380D01*
X156249761Y-70635761D01*
X156154523Y-70540523D01*
X156106904Y-70445285D01*
X156059285Y-70254809D01*
X156059285Y-70111952D01*
X156106904Y-69921476D01*
X156154523Y-69826238D01*
X156249761Y-69731000D01*
X156392619Y-69683380D01*
X156487857Y-69683380D01*
X156630714Y-69731000D01*
X156678333Y-69778619D01*
X157011666Y-69683380D02*
X157678333Y-69683380D01*
X157249761Y-70683380D01*
G04 #@! TO.C,R3*
X151090333Y-42870380D02*
X150757000Y-42394190D01*
X150518904Y-42870380D02*
X150518904Y-41870380D01*
X150899857Y-41870380D01*
X150995095Y-41918000D01*
X151042714Y-41965619D01*
X151090333Y-42060857D01*
X151090333Y-42203714D01*
X151042714Y-42298952D01*
X150995095Y-42346571D01*
X150899857Y-42394190D01*
X150518904Y-42394190D01*
X151423666Y-41870380D02*
X152042714Y-41870380D01*
X151709380Y-42251333D01*
X151852238Y-42251333D01*
X151947476Y-42298952D01*
X151995095Y-42346571D01*
X152042714Y-42441809D01*
X152042714Y-42679904D01*
X151995095Y-42775142D01*
X151947476Y-42822761D01*
X151852238Y-42870380D01*
X151566523Y-42870380D01*
X151471285Y-42822761D01*
X151423666Y-42775142D01*
G04 #@! TO.C,RN1*
X95575523Y-55951380D02*
X95242190Y-55475190D01*
X95004095Y-55951380D02*
X95004095Y-54951380D01*
X95385047Y-54951380D01*
X95480285Y-54999000D01*
X95527904Y-55046619D01*
X95575523Y-55141857D01*
X95575523Y-55284714D01*
X95527904Y-55379952D01*
X95480285Y-55427571D01*
X95385047Y-55475190D01*
X95004095Y-55475190D01*
X96004095Y-55951380D02*
X96004095Y-54951380D01*
X96575523Y-55951380D01*
X96575523Y-54951380D01*
X97575523Y-55951380D02*
X97004095Y-55951380D01*
X97289809Y-55951380D02*
X97289809Y-54951380D01*
X97194571Y-55094238D01*
X97099333Y-55189476D01*
X97004095Y-55237095D01*
G04 #@! TO.C,C10*
X171803142Y-90146142D02*
X171755523Y-90193761D01*
X171612666Y-90241380D01*
X171517428Y-90241380D01*
X171374571Y-90193761D01*
X171279333Y-90098523D01*
X171231714Y-90003285D01*
X171184095Y-89812809D01*
X171184095Y-89669952D01*
X171231714Y-89479476D01*
X171279333Y-89384238D01*
X171374571Y-89289000D01*
X171517428Y-89241380D01*
X171612666Y-89241380D01*
X171755523Y-89289000D01*
X171803142Y-89336619D01*
X172755523Y-90241380D02*
X172184095Y-90241380D01*
X172469809Y-90241380D02*
X172469809Y-89241380D01*
X172374571Y-89384238D01*
X172279333Y-89479476D01*
X172184095Y-89527095D01*
X173374571Y-89241380D02*
X173469809Y-89241380D01*
X173565047Y-89289000D01*
X173612666Y-89336619D01*
X173660285Y-89431857D01*
X173707904Y-89622333D01*
X173707904Y-89860428D01*
X173660285Y-90050904D01*
X173612666Y-90146142D01*
X173565047Y-90193761D01*
X173469809Y-90241380D01*
X173374571Y-90241380D01*
X173279333Y-90193761D01*
X173231714Y-90146142D01*
X173184095Y-90050904D01*
X173136476Y-89860428D01*
X173136476Y-89622333D01*
X173184095Y-89431857D01*
X173231714Y-89336619D01*
X173279333Y-89289000D01*
X173374571Y-89241380D01*
G04 #@! TO.C,LED1*
X158265952Y-47188380D02*
X157789761Y-47188380D01*
X157789761Y-46188380D01*
X158599285Y-46664571D02*
X158932619Y-46664571D01*
X159075476Y-47188380D02*
X158599285Y-47188380D01*
X158599285Y-46188380D01*
X159075476Y-46188380D01*
X159504047Y-47188380D02*
X159504047Y-46188380D01*
X159742142Y-46188380D01*
X159885000Y-46236000D01*
X159980238Y-46331238D01*
X160027857Y-46426476D01*
X160075476Y-46616952D01*
X160075476Y-46759809D01*
X160027857Y-46950285D01*
X159980238Y-47045523D01*
X159885000Y-47140761D01*
X159742142Y-47188380D01*
X159504047Y-47188380D01*
X161027857Y-47188380D02*
X160456428Y-47188380D01*
X160742142Y-47188380D02*
X160742142Y-46188380D01*
X160646904Y-46331238D01*
X160551666Y-46426476D01*
X160456428Y-46474095D01*
G04 #@! TO.C,J1*
X91233666Y-54951380D02*
X91233666Y-55665666D01*
X91186047Y-55808523D01*
X91090809Y-55903761D01*
X90947952Y-55951380D01*
X90852714Y-55951380D01*
X92233666Y-55951380D02*
X91662238Y-55951380D01*
X91947952Y-55951380D02*
X91947952Y-54951380D01*
X91852714Y-55094238D01*
X91757476Y-55189476D01*
X91662238Y-55237095D01*
G04 #@! TO.C,U1*
X106553095Y-76287380D02*
X106553095Y-77096904D01*
X106600714Y-77192142D01*
X106648333Y-77239761D01*
X106743571Y-77287380D01*
X106934047Y-77287380D01*
X107029285Y-77239761D01*
X107076904Y-77192142D01*
X107124523Y-77096904D01*
X107124523Y-76287380D01*
X108124523Y-77287380D02*
X107553095Y-77287380D01*
X107838809Y-77287380D02*
X107838809Y-76287380D01*
X107743571Y-76430238D01*
X107648333Y-76525476D01*
X107553095Y-76573095D01*
G04 #@! TO.C,U7*
X157353095Y-106005380D02*
X157353095Y-106814904D01*
X157400714Y-106910142D01*
X157448333Y-106957761D01*
X157543571Y-107005380D01*
X157734047Y-107005380D01*
X157829285Y-106957761D01*
X157876904Y-106910142D01*
X157924523Y-106814904D01*
X157924523Y-106005380D01*
X158305476Y-106005380D02*
X158972142Y-106005380D01*
X158543571Y-107005380D01*
G04 #@! TO.C,U4*
X110358095Y-114260380D02*
X110358095Y-115069904D01*
X110405714Y-115165142D01*
X110453333Y-115212761D01*
X110548571Y-115260380D01*
X110739047Y-115260380D01*
X110834285Y-115212761D01*
X110881904Y-115165142D01*
X110929523Y-115069904D01*
X110929523Y-114260380D01*
X111834285Y-114593714D02*
X111834285Y-115260380D01*
X111596190Y-114212761D02*
X111358095Y-114927047D01*
X111977142Y-114927047D01*
G04 #@! TO.C,C8*
X169124333Y-76938142D02*
X169076714Y-76985761D01*
X168933857Y-77033380D01*
X168838619Y-77033380D01*
X168695761Y-76985761D01*
X168600523Y-76890523D01*
X168552904Y-76795285D01*
X168505285Y-76604809D01*
X168505285Y-76461952D01*
X168552904Y-76271476D01*
X168600523Y-76176238D01*
X168695761Y-76081000D01*
X168838619Y-76033380D01*
X168933857Y-76033380D01*
X169076714Y-76081000D01*
X169124333Y-76128619D01*
X169695761Y-76461952D02*
X169600523Y-76414333D01*
X169552904Y-76366714D01*
X169505285Y-76271476D01*
X169505285Y-76223857D01*
X169552904Y-76128619D01*
X169600523Y-76081000D01*
X169695761Y-76033380D01*
X169886238Y-76033380D01*
X169981476Y-76081000D01*
X170029095Y-76128619D01*
X170076714Y-76223857D01*
X170076714Y-76271476D01*
X170029095Y-76366714D01*
X169981476Y-76414333D01*
X169886238Y-76461952D01*
X169695761Y-76461952D01*
X169600523Y-76509571D01*
X169552904Y-76557190D01*
X169505285Y-76652428D01*
X169505285Y-76842904D01*
X169552904Y-76938142D01*
X169600523Y-76985761D01*
X169695761Y-77033380D01*
X169886238Y-77033380D01*
X169981476Y-76985761D01*
X170029095Y-76938142D01*
X170076714Y-76842904D01*
X170076714Y-76652428D01*
X170029095Y-76557190D01*
X169981476Y-76509571D01*
X169886238Y-76461952D01*
G04 #@! TO.C,R1*
X124912380Y-59348666D02*
X124436190Y-59682000D01*
X124912380Y-59920095D02*
X123912380Y-59920095D01*
X123912380Y-59539142D01*
X123960000Y-59443904D01*
X124007619Y-59396285D01*
X124102857Y-59348666D01*
X124245714Y-59348666D01*
X124340952Y-59396285D01*
X124388571Y-59443904D01*
X124436190Y-59539142D01*
X124436190Y-59920095D01*
X124912380Y-58396285D02*
X124912380Y-58967714D01*
X124912380Y-58682000D02*
X123912380Y-58682000D01*
X124055238Y-58777238D01*
X124150476Y-58872476D01*
X124198095Y-58967714D01*
G04 #@! TO.C,C4*
X116419333Y-47982142D02*
X116371714Y-48029761D01*
X116228857Y-48077380D01*
X116133619Y-48077380D01*
X115990761Y-48029761D01*
X115895523Y-47934523D01*
X115847904Y-47839285D01*
X115800285Y-47648809D01*
X115800285Y-47505952D01*
X115847904Y-47315476D01*
X115895523Y-47220238D01*
X115990761Y-47125000D01*
X116133619Y-47077380D01*
X116228857Y-47077380D01*
X116371714Y-47125000D01*
X116419333Y-47172619D01*
X117276476Y-47410714D02*
X117276476Y-48077380D01*
X117038380Y-47029761D02*
X116800285Y-47744047D01*
X117419333Y-47744047D01*
G04 #@! TO.C,U5*
X121031095Y-88987380D02*
X121031095Y-89796904D01*
X121078714Y-89892142D01*
X121126333Y-89939761D01*
X121221571Y-89987380D01*
X121412047Y-89987380D01*
X121507285Y-89939761D01*
X121554904Y-89892142D01*
X121602523Y-89796904D01*
X121602523Y-88987380D01*
X122554904Y-88987380D02*
X122078714Y-88987380D01*
X122031095Y-89463571D01*
X122078714Y-89415952D01*
X122173952Y-89368333D01*
X122412047Y-89368333D01*
X122507285Y-89415952D01*
X122554904Y-89463571D01*
X122602523Y-89558809D01*
X122602523Y-89796904D01*
X122554904Y-89892142D01*
X122507285Y-89939761D01*
X122412047Y-89987380D01*
X122173952Y-89987380D01*
X122078714Y-89939761D01*
X122031095Y-89892142D01*
G04 #@! TO.C,C3*
X124293333Y-51030142D02*
X124245714Y-51077761D01*
X124102857Y-51125380D01*
X124007619Y-51125380D01*
X123864761Y-51077761D01*
X123769523Y-50982523D01*
X123721904Y-50887285D01*
X123674285Y-50696809D01*
X123674285Y-50553952D01*
X123721904Y-50363476D01*
X123769523Y-50268238D01*
X123864761Y-50173000D01*
X124007619Y-50125380D01*
X124102857Y-50125380D01*
X124245714Y-50173000D01*
X124293333Y-50220619D01*
X124626666Y-50125380D02*
X125245714Y-50125380D01*
X124912380Y-50506333D01*
X125055238Y-50506333D01*
X125150476Y-50553952D01*
X125198095Y-50601571D01*
X125245714Y-50696809D01*
X125245714Y-50934904D01*
X125198095Y-51030142D01*
X125150476Y-51077761D01*
X125055238Y-51125380D01*
X124769523Y-51125380D01*
X124674285Y-51077761D01*
X124626666Y-51030142D01*
G04 #@! TO.C,U6*
X135768095Y-104227380D02*
X135768095Y-105036904D01*
X135815714Y-105132142D01*
X135863333Y-105179761D01*
X135958571Y-105227380D01*
X136149047Y-105227380D01*
X136244285Y-105179761D01*
X136291904Y-105132142D01*
X136339523Y-105036904D01*
X136339523Y-104227380D01*
X137244285Y-104227380D02*
X137053809Y-104227380D01*
X136958571Y-104275000D01*
X136910952Y-104322619D01*
X136815714Y-104465476D01*
X136768095Y-104655952D01*
X136768095Y-105036904D01*
X136815714Y-105132142D01*
X136863333Y-105179761D01*
X136958571Y-105227380D01*
X137149047Y-105227380D01*
X137244285Y-105179761D01*
X137291904Y-105132142D01*
X137339523Y-105036904D01*
X137339523Y-104798809D01*
X137291904Y-104703571D01*
X137244285Y-104655952D01*
X137149047Y-104608333D01*
X136958571Y-104608333D01*
X136863333Y-104655952D01*
X136815714Y-104703571D01*
X136768095Y-104798809D01*
G04 #@! TO.C,D1*
X121737380Y-60174095D02*
X120737380Y-60174095D01*
X120737380Y-59936000D01*
X120785000Y-59793142D01*
X120880238Y-59697904D01*
X120975476Y-59650285D01*
X121165952Y-59602666D01*
X121308809Y-59602666D01*
X121499285Y-59650285D01*
X121594523Y-59697904D01*
X121689761Y-59793142D01*
X121737380Y-59936000D01*
X121737380Y-60174095D01*
X121737380Y-58650285D02*
X121737380Y-59221714D01*
X121737380Y-58936000D02*
X120737380Y-58936000D01*
X120880238Y-59031238D01*
X120975476Y-59126476D01*
X121023095Y-59221714D01*
G04 #@! TO.C,Y1*
X107483809Y-48109190D02*
X107483809Y-48585380D01*
X107150476Y-47585380D02*
X107483809Y-48109190D01*
X107817142Y-47585380D01*
X108674285Y-48585380D02*
X108102857Y-48585380D01*
X108388571Y-48585380D02*
X108388571Y-47585380D01*
X108293333Y-47728238D01*
X108198095Y-47823476D01*
X108102857Y-47871095D01*
G04 #@! TO.C,C11*
X129425142Y-126863142D02*
X129377523Y-126910761D01*
X129234666Y-126958380D01*
X129139428Y-126958380D01*
X128996571Y-126910761D01*
X128901333Y-126815523D01*
X128853714Y-126720285D01*
X128806095Y-126529809D01*
X128806095Y-126386952D01*
X128853714Y-126196476D01*
X128901333Y-126101238D01*
X128996571Y-126006000D01*
X129139428Y-125958380D01*
X129234666Y-125958380D01*
X129377523Y-126006000D01*
X129425142Y-126053619D01*
X130377523Y-126958380D02*
X129806095Y-126958380D01*
X130091809Y-126958380D02*
X130091809Y-125958380D01*
X129996571Y-126101238D01*
X129901333Y-126196476D01*
X129806095Y-126244095D01*
X131329904Y-126958380D02*
X130758476Y-126958380D01*
X131044190Y-126958380D02*
X131044190Y-125958380D01*
X130948952Y-126101238D01*
X130853714Y-126196476D01*
X130758476Y-126244095D01*
G04 #@! TO.C,U2*
X144272095Y-59650380D02*
X144272095Y-60459904D01*
X144319714Y-60555142D01*
X144367333Y-60602761D01*
X144462571Y-60650380D01*
X144653047Y-60650380D01*
X144748285Y-60602761D01*
X144795904Y-60555142D01*
X144843523Y-60459904D01*
X144843523Y-59650380D01*
X145272095Y-59745619D02*
X145319714Y-59698000D01*
X145414952Y-59650380D01*
X145653047Y-59650380D01*
X145748285Y-59698000D01*
X145795904Y-59745619D01*
X145843523Y-59840857D01*
X145843523Y-59936095D01*
X145795904Y-60078952D01*
X145224476Y-60650380D01*
X145843523Y-60650380D01*
D12*
G04 #@! TO.C,C6*
X128800000Y-74014000D02*
X125160000Y-74014000D01*
X128800000Y-76354000D02*
X128800000Y-76109000D01*
X125160000Y-74259000D02*
X125160000Y-74014000D01*
X125160000Y-76354000D02*
X125160000Y-76109000D01*
X128800000Y-74259000D02*
X128800000Y-74014000D01*
X128800000Y-76354000D02*
X125160000Y-76354000D01*
G04 #@! TO.C,C1*
X106107000Y-42645000D02*
X102467000Y-42645000D01*
X102467000Y-42890000D02*
X102467000Y-42645000D01*
X106107000Y-42890000D02*
X106107000Y-42645000D01*
X102467000Y-44985000D02*
X102467000Y-44740000D01*
X106107000Y-44985000D02*
X106107000Y-44740000D01*
X106107000Y-44985000D02*
X102467000Y-44985000D01*
G04 #@! TO.C,C2*
X109920000Y-42645000D02*
X113560000Y-42645000D01*
X113560000Y-44740000D02*
X113560000Y-44985000D01*
X109920000Y-42645000D02*
X109920000Y-42890000D01*
X109920000Y-44985000D02*
X113560000Y-44985000D01*
X113560000Y-42645000D02*
X113560000Y-42890000D01*
X109920000Y-44740000D02*
X109920000Y-44985000D01*
G04 #@! TO.C,J3*
X184892800Y-59010000D02*
X176262800Y-59010000D01*
X184892800Y-53870000D02*
X176262800Y-53870000D01*
X176262800Y-67540000D02*
X175912800Y-67540000D01*
X184892800Y-69230000D02*
X184892800Y-53870000D01*
X184892800Y-66866195D02*
X176262800Y-66866195D01*
X184892800Y-67102385D02*
X176262800Y-67102385D01*
X184892800Y-69110000D02*
X176262800Y-69110000D01*
X184892800Y-66630000D02*
X176262800Y-66630000D01*
X184892800Y-61550000D02*
X176262800Y-61550000D01*
X184892800Y-68047145D02*
X176262800Y-68047145D01*
X184892800Y-68637620D02*
X176262800Y-68637620D01*
X184892800Y-67456670D02*
X176262800Y-67456670D01*
X184892800Y-67810955D02*
X176262800Y-67810955D01*
X184892800Y-67220480D02*
X176262800Y-67220480D01*
X184892800Y-67929050D02*
X176262800Y-67929050D01*
X176262800Y-60640000D02*
X175852800Y-60640000D01*
X176262800Y-59920000D02*
X175852800Y-59920000D01*
X176262800Y-55560000D02*
X175852800Y-55560000D01*
X184892800Y-69230000D02*
X176262800Y-69230000D01*
X184892800Y-67692860D02*
X176262800Y-67692860D01*
X184892800Y-68873810D02*
X176262800Y-68873810D01*
X176262800Y-69230000D02*
X176262800Y-53870000D01*
X184892800Y-68165240D02*
X176262800Y-68165240D01*
X184892800Y-66984290D02*
X176262800Y-66984290D01*
X176262800Y-57380000D02*
X175852800Y-57380000D01*
X184892800Y-68401430D02*
X176262800Y-68401430D01*
X176262800Y-62460000D02*
X175852800Y-62460000D01*
X184892800Y-64090000D02*
X176262800Y-64090000D01*
X173692800Y-69230000D02*
X173692800Y-67900000D01*
X184892800Y-68991905D02*
X176262800Y-68991905D01*
X184892800Y-68755715D02*
X176262800Y-68755715D01*
X184892800Y-67338575D02*
X176262800Y-67338575D01*
X176262800Y-65720000D02*
X175852800Y-65720000D01*
X184892800Y-67574765D02*
X176262800Y-67574765D01*
X176262800Y-58100000D02*
X175852800Y-58100000D01*
X184892800Y-68519525D02*
X176262800Y-68519525D01*
X184892800Y-68283335D02*
X176262800Y-68283335D01*
X184892800Y-66748100D02*
X176262800Y-66748100D01*
X176262800Y-63180000D02*
X175852800Y-63180000D01*
X176262800Y-65000000D02*
X175852800Y-65000000D01*
X176262800Y-68260000D02*
X175912800Y-68260000D01*
X174802800Y-69230000D02*
X173692800Y-69230000D01*
X184892800Y-56470000D02*
X176262800Y-56470000D01*
X176262800Y-54840000D02*
X175852800Y-54840000D01*
G04 #@! TO.C,U3*
X145540000Y-50870000D02*
X145540000Y-40590000D01*
X127520000Y-50870000D02*
X145540000Y-50870000D01*
X127520000Y-40590000D02*
X127520000Y-50870000D01*
X127580000Y-48380000D02*
X145480000Y-48380000D01*
X145480000Y-44730000D02*
X145480000Y-43080000D01*
X127580000Y-43080000D02*
X127580000Y-48380000D01*
X145480000Y-48380000D02*
X145480000Y-46730000D01*
X145480000Y-43080000D02*
X127580000Y-43080000D01*
X145540000Y-40590000D02*
X127520000Y-40590000D01*
X145480000Y-44730000D02*
G75*
G03*
X145480000Y-46730000I0J-1000000D01*
G01*
G04 #@! TO.C,J2*
X185504000Y-78458000D02*
X185504000Y-87658000D01*
X171004000Y-78458000D02*
X172304000Y-78458000D01*
X171004000Y-80458000D02*
X171004000Y-78458000D01*
X176904000Y-78458000D02*
X185504000Y-78458000D01*
X171004000Y-87658000D02*
X171004000Y-85658000D01*
X185504000Y-87658000D02*
X171004000Y-87658000D01*
X170704000Y-86258000D02*
X170704000Y-87958000D01*
X170704000Y-87958000D02*
X172004000Y-87958000D01*
G04 #@! TO.C,R4*
X138415000Y-125380000D02*
X142255000Y-125380000D01*
X143205000Y-124460000D02*
X142255000Y-124460000D01*
X142255000Y-123540000D02*
X138415000Y-123540000D01*
X137465000Y-124460000D02*
X138415000Y-124460000D01*
X142255000Y-125380000D02*
X142255000Y-123540000D01*
X138415000Y-123540000D02*
X138415000Y-125380000D01*
G04 #@! TO.C,C9*
X120799000Y-109193000D02*
X120799000Y-109438000D01*
X117159000Y-111533000D02*
X120799000Y-111533000D01*
X120799000Y-111288000D02*
X120799000Y-111533000D01*
X117159000Y-109193000D02*
X117159000Y-109438000D01*
X117159000Y-109193000D02*
X120799000Y-109193000D01*
X117159000Y-111288000D02*
X117159000Y-111533000D01*
G04 #@! TO.C,C12*
X143483000Y-126176000D02*
X143483000Y-129816000D01*
X143728000Y-129816000D02*
X143483000Y-129816000D01*
X145823000Y-129816000D02*
X145578000Y-129816000D01*
X145823000Y-126176000D02*
X145823000Y-129816000D01*
X143728000Y-126176000D02*
X143483000Y-126176000D01*
X145823000Y-126176000D02*
X145578000Y-126176000D01*
G04 #@! TO.C,C5*
X123148000Y-40740000D02*
X126788000Y-40740000D01*
X123148000Y-43080000D02*
X126788000Y-43080000D01*
X123148000Y-42835000D02*
X123148000Y-43080000D01*
X126788000Y-42835000D02*
X126788000Y-43080000D01*
X126788000Y-40740000D02*
X126788000Y-40985000D01*
X123148000Y-40740000D02*
X123148000Y-40985000D01*
G04 #@! TO.C,SW1*
X167295000Y-46430000D02*
X171795000Y-46430000D01*
X171795000Y-39930000D02*
X167295000Y-39930000D01*
X166045000Y-42430000D02*
X166045000Y-43930000D01*
X173045000Y-43930000D02*
X173045000Y-42430000D01*
G04 #@! TO.C,R2*
X118110000Y-58725000D02*
X118110000Y-59675000D01*
X119030000Y-63515000D02*
X119030000Y-59675000D01*
X118110000Y-64465000D02*
X118110000Y-63515000D01*
X117190000Y-59675000D02*
X117190000Y-63515000D01*
X117190000Y-63515000D02*
X119030000Y-63515000D01*
X119030000Y-59675000D02*
X117190000Y-59675000D01*
G04 #@! TO.C,C7*
X155920000Y-71058000D02*
X155675000Y-71058000D01*
X155675000Y-71058000D02*
X155675000Y-74698000D01*
X158015000Y-71058000D02*
X157770000Y-71058000D01*
X155920000Y-74698000D02*
X155675000Y-74698000D01*
X158015000Y-71058000D02*
X158015000Y-74698000D01*
X158015000Y-74698000D02*
X157770000Y-74698000D01*
G04 #@! TO.C,R3*
X153050000Y-41560000D02*
X149210000Y-41560000D01*
X149210000Y-41560000D02*
X149210000Y-43400000D01*
X149210000Y-43400000D02*
X153050000Y-43400000D01*
X153050000Y-43400000D02*
X153050000Y-41560000D01*
X154000000Y-42480000D02*
X153050000Y-42480000D01*
X148260000Y-42480000D02*
X149210000Y-42480000D01*
G04 #@! TO.C,RN1*
X97666000Y-82085000D02*
X97666000Y-56345000D01*
X94866000Y-56345000D02*
X94866000Y-82085000D01*
X94866000Y-79375000D02*
X97666000Y-79375000D01*
X94866000Y-82085000D02*
X97666000Y-82085000D01*
X97666000Y-56345000D02*
X94866000Y-56345000D01*
G04 #@! TO.C,C10*
X174055000Y-90959000D02*
X177695000Y-90959000D01*
X177695000Y-88619000D02*
X177695000Y-88864000D01*
X177695000Y-90714000D02*
X177695000Y-90959000D01*
X174055000Y-90714000D02*
X174055000Y-90959000D01*
X174055000Y-88619000D02*
X174055000Y-88864000D01*
X174055000Y-88619000D02*
X177695000Y-88619000D01*
G04 #@! TO.C,LED1*
X156825000Y-41135000D02*
X156825000Y-44225000D01*
X156825000Y-44224830D02*
G75*
G03*
X162375000Y-42679538I2560000J1544830D01*
G01*
X162375000Y-42680462D02*
G75*
G03*
X156825000Y-41135170I-2990000J462D01*
G01*
X161885000Y-42680000D02*
G75*
G03*
X161885000Y-42680000I-2500000J0D01*
G01*
G04 #@! TO.C,J1*
X88835000Y-57840000D02*
X88835000Y-56510000D01*
X88835000Y-56510000D02*
X90165000Y-56510000D01*
X94035000Y-56510000D02*
X94035000Y-120130000D01*
X88835000Y-120130000D02*
X94035000Y-120130000D01*
X91435000Y-56510000D02*
X94035000Y-56510000D01*
X88835000Y-59110000D02*
X91435000Y-59110000D01*
X88835000Y-59110000D02*
X88835000Y-120130000D01*
X91435000Y-59110000D02*
X91435000Y-56510000D01*
G04 #@! TO.C,U1*
X116265000Y-102355000D02*
X116265000Y-51315000D01*
X98365000Y-102355000D02*
X116265000Y-102355000D01*
X113775000Y-51375000D02*
X108315000Y-51375000D01*
X113775000Y-102295000D02*
X113775000Y-51375000D01*
X106315000Y-51375000D02*
X100855000Y-51375000D01*
X100855000Y-51375000D02*
X100855000Y-102295000D01*
X116265000Y-51315000D02*
X98365000Y-51315000D01*
X100855000Y-102295000D02*
X113775000Y-102295000D01*
X98365000Y-51315000D02*
X98365000Y-102355000D01*
X106315000Y-51375000D02*
G75*
G03*
X108315000Y-51375000I1000000J0D01*
G01*
G04 #@! TO.C,U7*
X169572500Y-125100000D02*
X169572500Y-81260000D01*
X146472500Y-131860000D02*
X169572500Y-131860000D01*
X170592500Y-119930000D02*
X170592500Y-122470000D01*
X169572500Y-81260000D02*
X146472500Y-81260000D01*
X146472500Y-81260000D02*
X146472500Y-131860000D01*
X167292500Y-131860000D02*
X167292500Y-129600000D01*
X169572500Y-131860000D02*
X169572500Y-130000000D01*
X169742500Y-127550000D02*
G75*
G03*
X169742500Y-127550000I-900000J0D01*
G01*
X171392500Y-127550000D02*
G75*
G03*
X171392500Y-127550000I-2550000J0D01*
G01*
G04 #@! TO.C,U4*
X116260000Y-125220000D02*
X116260000Y-104660000D01*
X116260000Y-104660000D02*
X105980000Y-104660000D01*
X105980000Y-125220000D02*
X116260000Y-125220000D01*
X113770000Y-104720000D02*
X112120000Y-104720000D01*
X113770000Y-125160000D02*
X113770000Y-104720000D01*
X108470000Y-104720000D02*
X108470000Y-125160000D01*
X108470000Y-125160000D02*
X113770000Y-125160000D01*
X105980000Y-104660000D02*
X105980000Y-125220000D01*
X110120000Y-104720000D02*
X108470000Y-104720000D01*
X110120000Y-104720000D02*
G75*
G03*
X112120000Y-104720000I1000000J0D01*
G01*
G04 #@! TO.C,C8*
X164991000Y-72195394D02*
X169019000Y-72195394D01*
X168045000Y-75196394D02*
X170825000Y-75196394D01*
X163228000Y-74836394D02*
X165965000Y-74836394D01*
X164755000Y-72355394D02*
X169255000Y-72355394D01*
X165436000Y-71955394D02*
X168574000Y-71955394D01*
X168045000Y-74195394D02*
X170618000Y-74195394D01*
X163210000Y-74956394D02*
X165965000Y-74956394D01*
X163578000Y-73755394D02*
X165965000Y-73755394D01*
X168045000Y-74876394D02*
X170789000Y-74876394D01*
X168045000Y-73595394D02*
X170348000Y-73595394D01*
X163365000Y-74275394D02*
X165965000Y-74275394D01*
X168045000Y-73835394D02*
X170471000Y-73835394D01*
X168045000Y-74635394D02*
X170743000Y-74635394D01*
X168045000Y-73555394D02*
X170326000Y-73555394D01*
X164455000Y-79243605D02*
X165205000Y-79243605D01*
X163539000Y-73835394D02*
X165965000Y-73835394D01*
X163437000Y-74075394D02*
X165965000Y-74075394D01*
X163521000Y-73875394D02*
X165965000Y-73875394D01*
X165124000Y-72115394D02*
X168886000Y-72115394D01*
X164928000Y-72235394D02*
X169082000Y-72235394D01*
X168045000Y-73435394D02*
X170254000Y-73435394D01*
X163250000Y-74715394D02*
X165965000Y-74715394D01*
X168045000Y-74355394D02*
X170670000Y-74355394D01*
X163392000Y-74195394D02*
X165965000Y-74195394D01*
X163180000Y-75276394D02*
X170830000Y-75276394D01*
X163176000Y-75356394D02*
X170834000Y-75356394D01*
X165527000Y-71915394D02*
X168483000Y-71915394D01*
X168045000Y-74275394D02*
X170645000Y-74275394D01*
X168045000Y-73995394D02*
X170541000Y-73995394D01*
X163195000Y-75076394D02*
X165965000Y-75076394D01*
X164178000Y-72875394D02*
X169832000Y-72875394D01*
X163379000Y-74235394D02*
X165965000Y-74235394D01*
X168045000Y-75236394D02*
X170828000Y-75236394D01*
X164107000Y-72955394D02*
X169903000Y-72955394D01*
X163756000Y-73435394D02*
X165965000Y-73435394D01*
X168045000Y-73915394D02*
X170507000Y-73915394D01*
X163640000Y-73635394D02*
X165965000Y-73635394D01*
X163917000Y-73195394D02*
X165965000Y-73195394D01*
X163306000Y-74475394D02*
X165965000Y-74475394D01*
X163340000Y-74355394D02*
X165965000Y-74355394D01*
X163215000Y-74916394D02*
X165965000Y-74916394D01*
X165196000Y-72075394D02*
X168814000Y-72075394D01*
X168045000Y-74395394D02*
X170682000Y-74395394D01*
X163178000Y-75316394D02*
X170832000Y-75316394D01*
X163175000Y-75436394D02*
X170835000Y-75436394D01*
X163684000Y-73555394D02*
X165965000Y-73555394D01*
X163662000Y-73595394D02*
X165965000Y-73595394D01*
X163731000Y-73475394D02*
X165965000Y-73475394D01*
X165272000Y-72035394D02*
X168738000Y-72035394D01*
X168045000Y-73715394D02*
X170412000Y-73715394D01*
X164505000Y-72555394D02*
X169505000Y-72555394D01*
X163182000Y-75236394D02*
X165965000Y-75236394D01*
X166128000Y-71715394D02*
X167882000Y-71715394D01*
X163185000Y-75196394D02*
X165965000Y-75196394D01*
X163191000Y-75116394D02*
X165965000Y-75116394D01*
X166312000Y-71675394D02*
X167698000Y-71675394D01*
X165730000Y-71835394D02*
X168280000Y-71835394D01*
X163781000Y-73395394D02*
X165965000Y-73395394D01*
X164142000Y-72915394D02*
X169868000Y-72915394D01*
X168045000Y-74235394D02*
X170631000Y-74235394D01*
X168045000Y-75116394D02*
X170819000Y-75116394D01*
X163861000Y-73275394D02*
X165965000Y-73275394D01*
X168045000Y-73395394D02*
X170229000Y-73395394D01*
X168045000Y-75076394D02*
X170815000Y-75076394D01*
X163285000Y-74555394D02*
X165965000Y-74555394D01*
X163485000Y-73955394D02*
X165965000Y-73955394D01*
X164650000Y-72435394D02*
X169360000Y-72435394D01*
X164373000Y-72675394D02*
X169637000Y-72675394D01*
X163619000Y-73675394D02*
X165965000Y-73675394D01*
X168045000Y-73675394D02*
X170391000Y-73675394D01*
X164551000Y-72515394D02*
X169459000Y-72515394D01*
X163276000Y-74595394D02*
X165965000Y-74595394D01*
X165056000Y-72155394D02*
X168954000Y-72155394D01*
X163242000Y-74755394D02*
X165965000Y-74755394D01*
X163407000Y-74155394D02*
X165965000Y-74155394D01*
X166564000Y-71635394D02*
X167446000Y-71635394D01*
X163421000Y-74115394D02*
X165965000Y-74115394D01*
X163258000Y-74675394D02*
X165965000Y-74675394D01*
X164701000Y-72395394D02*
X169309000Y-72395394D01*
X168045000Y-74836394D02*
X170782000Y-74836394D01*
X163204000Y-74996394D02*
X165965000Y-74996394D01*
X168045000Y-73235394D02*
X170121000Y-73235394D01*
X163452000Y-74035394D02*
X165965000Y-74035394D01*
X168045000Y-74916394D02*
X170795000Y-74916394D01*
X168045000Y-73635394D02*
X170370000Y-73635394D01*
X164332000Y-72715394D02*
X169678000Y-72715394D01*
X165847000Y-71795394D02*
X168163000Y-71795394D01*
X164810000Y-72315394D02*
X169200000Y-72315394D01*
X168045000Y-74555394D02*
X170725000Y-74555394D01*
X168045000Y-74796394D02*
X170775000Y-74796394D01*
X163889000Y-73235394D02*
X165965000Y-73235394D01*
X164416000Y-72635394D02*
X169594000Y-72635394D01*
X168045000Y-73315394D02*
X170177000Y-73315394D01*
X163200000Y-75036394D02*
X165965000Y-75036394D01*
X164459000Y-72595394D02*
X169551000Y-72595394D01*
X163328000Y-74395394D02*
X165965000Y-74395394D01*
X163235000Y-74796394D02*
X165965000Y-74796394D01*
X168045000Y-73515394D02*
X170302000Y-73515394D01*
X164868000Y-72275394D02*
X169142000Y-72275394D01*
X163188000Y-75156394D02*
X165965000Y-75156394D01*
X168045000Y-74435394D02*
X170693000Y-74435394D01*
X168045000Y-73795394D02*
X170452000Y-73795394D01*
X163317000Y-74435394D02*
X165965000Y-74435394D01*
X168045000Y-73875394D02*
X170489000Y-73875394D01*
X164041000Y-73035394D02*
X169969000Y-73035394D01*
X168045000Y-74475394D02*
X170704000Y-74475394D01*
X168045000Y-73955394D02*
X170525000Y-73955394D01*
X168045000Y-73275394D02*
X170149000Y-73275394D01*
X168045000Y-74315394D02*
X170658000Y-74315394D01*
X163503000Y-73915394D02*
X165965000Y-73915394D01*
X165351000Y-71995394D02*
X168659000Y-71995394D01*
X168045000Y-74155394D02*
X170603000Y-74155394D01*
X164292000Y-72755394D02*
X169718000Y-72755394D01*
X163947000Y-73155394D02*
X170063000Y-73155394D01*
X168045000Y-74595394D02*
X170734000Y-74595394D01*
X164600000Y-72475394D02*
X169410000Y-72475394D01*
X168045000Y-74515394D02*
X170715000Y-74515394D01*
X163807000Y-73355394D02*
X165965000Y-73355394D01*
X168045000Y-75036394D02*
X170810000Y-75036394D01*
X168045000Y-74115394D02*
X170589000Y-74115394D01*
X163175000Y-75396394D02*
X170835000Y-75396394D01*
X168045000Y-74956394D02*
X170800000Y-74956394D01*
X163833000Y-73315394D02*
X165965000Y-73315394D01*
X168045000Y-73475394D02*
X170279000Y-73475394D01*
X163977000Y-73115394D02*
X170033000Y-73115394D01*
X165977000Y-71755394D02*
X168033000Y-71755394D01*
X168045000Y-73755394D02*
X170432000Y-73755394D01*
X163175000Y-75476394D02*
X170835000Y-75476394D01*
X163708000Y-73515394D02*
X165965000Y-73515394D01*
X163598000Y-73715394D02*
X165965000Y-73715394D01*
X168045000Y-74035394D02*
X170558000Y-74035394D01*
X163558000Y-73795394D02*
X165965000Y-73795394D01*
X168045000Y-74075394D02*
X170573000Y-74075394D01*
X165624000Y-71875394D02*
X168386000Y-71875394D01*
X168045000Y-74996394D02*
X170806000Y-74996394D01*
X164215000Y-72835394D02*
X169795000Y-72835394D01*
X163352000Y-74315394D02*
X165965000Y-74315394D01*
X163469000Y-73995394D02*
X165965000Y-73995394D01*
X168045000Y-74755394D02*
X170768000Y-74755394D01*
X168045000Y-73195394D02*
X170093000Y-73195394D01*
X168045000Y-73355394D02*
X170203000Y-73355394D01*
X163267000Y-74635394D02*
X165965000Y-74635394D01*
X164009000Y-73075394D02*
X170001000Y-73075394D01*
X164830000Y-79618605D02*
X164830000Y-78868605D01*
X164074000Y-72995394D02*
X169936000Y-72995394D01*
X168045000Y-75156394D02*
X170822000Y-75156394D01*
X164253000Y-72795394D02*
X169757000Y-72795394D01*
X168045000Y-74715394D02*
X170760000Y-74715394D01*
X163295000Y-74515394D02*
X165965000Y-74515394D01*
X168045000Y-74675394D02*
X170752000Y-74675394D01*
X163221000Y-74876394D02*
X165965000Y-74876394D01*
X170875000Y-75476394D02*
G75*
G03*
X170875000Y-75476394I-3870000J0D01*
G01*
G04 #@! TO.C,R1*
X123540000Y-57135000D02*
X123540000Y-60975000D01*
X123540000Y-60975000D02*
X125380000Y-60975000D01*
X124460000Y-56185000D02*
X124460000Y-57135000D01*
X124460000Y-61925000D02*
X124460000Y-60975000D01*
X125380000Y-60975000D02*
X125380000Y-57135000D01*
X125380000Y-57135000D02*
X123540000Y-57135000D01*
G04 #@! TO.C,C4*
X118386000Y-48233000D02*
X118386000Y-48478000D01*
X114746000Y-48233000D02*
X114746000Y-48478000D01*
X114746000Y-50573000D02*
X118386000Y-50573000D01*
X118386000Y-50328000D02*
X118386000Y-50573000D01*
X114746000Y-50328000D02*
X114746000Y-50573000D01*
X114746000Y-48233000D02*
X118386000Y-48233000D01*
G04 #@! TO.C,U5*
X127050000Y-102350000D02*
X127050000Y-76710000D01*
X116770000Y-102350000D02*
X127050000Y-102350000D01*
X124560000Y-102290000D02*
X124560000Y-76770000D01*
X127050000Y-76710000D02*
X116770000Y-76710000D01*
X119260000Y-102290000D02*
X120910000Y-102290000D01*
X119260000Y-76770000D02*
X119260000Y-102290000D01*
X116770000Y-76710000D02*
X116770000Y-102350000D01*
X122910000Y-102290000D02*
X124560000Y-102290000D01*
X124560000Y-76770000D02*
X119260000Y-76770000D01*
X122910000Y-102290000D02*
G75*
G03*
X120910000Y-102290000I-1000000J0D01*
G01*
G04 #@! TO.C,C3*
X122923000Y-52722000D02*
X122923000Y-45068000D01*
X121802000Y-47855000D02*
X121802000Y-45282000D01*
X122803000Y-52715000D02*
X122803000Y-49935000D01*
X121522000Y-52397000D02*
X121522000Y-49935000D01*
X120962000Y-47855000D02*
X120962000Y-45697000D01*
X119842000Y-50972000D02*
X119842000Y-46818000D01*
X120122000Y-51349000D02*
X120122000Y-46441000D01*
X122403000Y-52665000D02*
X122403000Y-49935000D01*
X121522000Y-47855000D02*
X121522000Y-45393000D01*
X122603000Y-52696000D02*
X122603000Y-49935000D01*
X121642000Y-52448000D02*
X121642000Y-49935000D01*
X121762000Y-52493000D02*
X121762000Y-49935000D01*
X119722000Y-50776000D02*
X119722000Y-47014000D01*
X122523000Y-47855000D02*
X122523000Y-45105000D01*
X126850211Y-51445000D02*
X126850211Y-50695000D01*
X122202000Y-52624000D02*
X122202000Y-49935000D01*
X121322000Y-52302000D02*
X121322000Y-49935000D01*
X121402000Y-47855000D02*
X121402000Y-45448000D01*
X121362000Y-47855000D02*
X121362000Y-45468000D01*
X122403000Y-47855000D02*
X122403000Y-45125000D01*
X120082000Y-51300000D02*
X120082000Y-46490000D01*
X122763000Y-52712000D02*
X122763000Y-49935000D01*
X121402000Y-52342000D02*
X121402000Y-49935000D01*
X122082000Y-52594000D02*
X122082000Y-49935000D01*
X123043000Y-52725000D02*
X123043000Y-45065000D01*
X119482000Y-50276000D02*
X119482000Y-47514000D01*
X122603000Y-47855000D02*
X122603000Y-45094000D01*
X119642000Y-50628000D02*
X119642000Y-47162000D01*
X121562000Y-47855000D02*
X121562000Y-45375000D01*
X119322000Y-49772000D02*
X119322000Y-48018000D01*
X122362000Y-47855000D02*
X122362000Y-45132000D01*
X119762000Y-50844000D02*
X119762000Y-46946000D01*
X121442000Y-52361000D02*
X121442000Y-49935000D01*
X122322000Y-52650000D02*
X122322000Y-49935000D01*
X122162000Y-47855000D02*
X122162000Y-45175000D01*
X121882000Y-47855000D02*
X121882000Y-45255000D01*
X121722000Y-47855000D02*
X121722000Y-45311000D01*
X121042000Y-47855000D02*
X121042000Y-45646000D01*
X121162000Y-52216000D02*
X121162000Y-49935000D01*
X121482000Y-47855000D02*
X121482000Y-45411000D01*
X121042000Y-52144000D02*
X121042000Y-49935000D01*
X122763000Y-47855000D02*
X122763000Y-45078000D01*
X121922000Y-52548000D02*
X121922000Y-49935000D01*
X122122000Y-47855000D02*
X122122000Y-45185000D01*
X121162000Y-47855000D02*
X121162000Y-45574000D01*
X119442000Y-50170000D02*
X119442000Y-47620000D01*
X121922000Y-47855000D02*
X121922000Y-45242000D01*
X122523000Y-52685000D02*
X122523000Y-49935000D01*
X122563000Y-52690000D02*
X122563000Y-49935000D01*
X127225211Y-51070000D02*
X126475211Y-51070000D01*
X121842000Y-52521000D02*
X121842000Y-49935000D01*
X122723000Y-47855000D02*
X122723000Y-45081000D01*
X119282000Y-49588000D02*
X119282000Y-48202000D01*
X121202000Y-47855000D02*
X121202000Y-45552000D01*
X121722000Y-52479000D02*
X121722000Y-49935000D01*
X121602000Y-47855000D02*
X121602000Y-45359000D01*
X121962000Y-52560000D02*
X121962000Y-49935000D01*
X121602000Y-52431000D02*
X121602000Y-49935000D01*
X121202000Y-52238000D02*
X121202000Y-49935000D01*
X121242000Y-47855000D02*
X121242000Y-45530000D01*
X122042000Y-47855000D02*
X122042000Y-45207000D01*
X122242000Y-47855000D02*
X122242000Y-45157000D01*
X119682000Y-50704000D02*
X119682000Y-47086000D01*
X120442000Y-51685000D02*
X120442000Y-46105000D01*
X120562000Y-51793000D02*
X120562000Y-45997000D01*
X120162000Y-51395000D02*
X120162000Y-46395000D01*
X122443000Y-52672000D02*
X122443000Y-49935000D01*
X121242000Y-52260000D02*
X121242000Y-49935000D01*
X121842000Y-47855000D02*
X121842000Y-45269000D01*
X121322000Y-47855000D02*
X121322000Y-45488000D01*
X120402000Y-51647000D02*
X120402000Y-46143000D01*
X119962000Y-51145000D02*
X119962000Y-46645000D01*
X119562000Y-50464000D02*
X119562000Y-47326000D01*
X120882000Y-47855000D02*
X120882000Y-45751000D01*
X122803000Y-47855000D02*
X122803000Y-45075000D01*
X121122000Y-52192000D02*
X121122000Y-49935000D01*
X122443000Y-47855000D02*
X122443000Y-45118000D01*
X122963000Y-52724000D02*
X122963000Y-45066000D01*
X122082000Y-47855000D02*
X122082000Y-45196000D01*
X121562000Y-52415000D02*
X121562000Y-49935000D01*
X119882000Y-51032000D02*
X119882000Y-46758000D01*
X119402000Y-50053000D02*
X119402000Y-47737000D01*
X120802000Y-51983000D02*
X120802000Y-49935000D01*
X122322000Y-47855000D02*
X122322000Y-45140000D01*
X120282000Y-51527000D02*
X120282000Y-46263000D01*
X120322000Y-51568000D02*
X120322000Y-46222000D01*
X121682000Y-52463000D02*
X121682000Y-49935000D01*
X120202000Y-51441000D02*
X120202000Y-46349000D01*
X119522000Y-50373000D02*
X119522000Y-47417000D01*
X120722000Y-51923000D02*
X120722000Y-45867000D01*
X121282000Y-47855000D02*
X121282000Y-45509000D01*
X120842000Y-47855000D02*
X120842000Y-45779000D01*
X121082000Y-52169000D02*
X121082000Y-49935000D01*
X120482000Y-51722000D02*
X120482000Y-46068000D01*
X121362000Y-52322000D02*
X121362000Y-49935000D01*
X122683000Y-47855000D02*
X122683000Y-45085000D01*
X122042000Y-52583000D02*
X122042000Y-49935000D01*
X120002000Y-51199000D02*
X120002000Y-46591000D01*
X122483000Y-47855000D02*
X122483000Y-45111000D01*
X120922000Y-47855000D02*
X120922000Y-45723000D01*
X121882000Y-52535000D02*
X121882000Y-49935000D01*
X122843000Y-47855000D02*
X122843000Y-45072000D01*
X122723000Y-52709000D02*
X122723000Y-49935000D01*
X123083000Y-52725000D02*
X123083000Y-45065000D01*
X120522000Y-51758000D02*
X120522000Y-46032000D01*
X119922000Y-51090000D02*
X119922000Y-46700000D01*
X120882000Y-52039000D02*
X120882000Y-49935000D01*
X122202000Y-47855000D02*
X122202000Y-45166000D01*
X121642000Y-47855000D02*
X121642000Y-45342000D01*
X120682000Y-51891000D02*
X120682000Y-45899000D01*
X121002000Y-47855000D02*
X121002000Y-45671000D01*
X122002000Y-47855000D02*
X122002000Y-45218000D01*
X122282000Y-52642000D02*
X122282000Y-49935000D01*
X121002000Y-52119000D02*
X121002000Y-49935000D01*
X120362000Y-51608000D02*
X120362000Y-46182000D01*
X122242000Y-52633000D02*
X122242000Y-49935000D01*
X120042000Y-51250000D02*
X120042000Y-46540000D01*
X121282000Y-52281000D02*
X121282000Y-49935000D01*
X122563000Y-47855000D02*
X122563000Y-45100000D01*
X120962000Y-52093000D02*
X120962000Y-49935000D01*
X121082000Y-47855000D02*
X121082000Y-45621000D01*
X121442000Y-47855000D02*
X121442000Y-45429000D01*
X121802000Y-52508000D02*
X121802000Y-49935000D01*
X122002000Y-52572000D02*
X122002000Y-49935000D01*
X120842000Y-52011000D02*
X120842000Y-49935000D01*
X119802000Y-50909000D02*
X119802000Y-46881000D01*
X119242000Y-49336000D02*
X119242000Y-48454000D01*
X122122000Y-52605000D02*
X122122000Y-49935000D01*
X122282000Y-47855000D02*
X122282000Y-45148000D01*
X120922000Y-52067000D02*
X120922000Y-49935000D01*
X122162000Y-52615000D02*
X122162000Y-49935000D01*
X120602000Y-51826000D02*
X120602000Y-45964000D01*
X122643000Y-52700000D02*
X122643000Y-49935000D01*
X121682000Y-47855000D02*
X121682000Y-45327000D01*
X120642000Y-51859000D02*
X120642000Y-45931000D01*
X119362000Y-49923000D02*
X119362000Y-47867000D01*
X122883000Y-52720000D02*
X122883000Y-45070000D01*
X121962000Y-47855000D02*
X121962000Y-45230000D01*
X122683000Y-52705000D02*
X122683000Y-49935000D01*
X119602000Y-50549000D02*
X119602000Y-47241000D01*
X122483000Y-52679000D02*
X122483000Y-49935000D01*
X122362000Y-52658000D02*
X122362000Y-49935000D01*
X122643000Y-47855000D02*
X122643000Y-45090000D01*
X120242000Y-51484000D02*
X120242000Y-46306000D01*
X121762000Y-47855000D02*
X121762000Y-45297000D01*
X120762000Y-51953000D02*
X120762000Y-45837000D01*
X120802000Y-47855000D02*
X120802000Y-45807000D01*
X123003000Y-52725000D02*
X123003000Y-45065000D01*
X121482000Y-52379000D02*
X121482000Y-49935000D01*
X121122000Y-47855000D02*
X121122000Y-45598000D01*
X122843000Y-52718000D02*
X122843000Y-49935000D01*
X126953000Y-48895000D02*
G75*
G03*
X126953000Y-48895000I-3870000J0D01*
G01*
G04 #@! TO.C,U6*
X130070000Y-86930000D02*
X130070000Y-122610000D01*
X137530000Y-122610000D02*
X142990000Y-122610000D01*
X145480000Y-122670000D02*
X145480000Y-86870000D01*
X130070000Y-122610000D02*
X135530000Y-122610000D01*
X142990000Y-122610000D02*
X142990000Y-86930000D01*
X142990000Y-86930000D02*
X130070000Y-86930000D01*
X145480000Y-86870000D02*
X127580000Y-86870000D01*
X127580000Y-122670000D02*
X145480000Y-122670000D01*
X127580000Y-86870000D02*
X127580000Y-122670000D01*
X137530000Y-122610000D02*
G75*
G03*
X135530000Y-122610000I-1000000J0D01*
G01*
G04 #@! TO.C,D1*
X122405000Y-57540000D02*
X120165000Y-57540000D01*
X121285000Y-56290000D02*
X121285000Y-56940000D01*
X122405000Y-61180000D02*
X122405000Y-56940000D01*
X122405000Y-57780000D02*
X120165000Y-57780000D01*
X121285000Y-61830000D02*
X121285000Y-61180000D01*
X122405000Y-57660000D02*
X120165000Y-57660000D01*
X120165000Y-61180000D02*
X122405000Y-61180000D01*
X120165000Y-56940000D02*
X120165000Y-61180000D01*
X122405000Y-56940000D02*
X120165000Y-56940000D01*
G04 #@! TO.C,Y1*
X111160000Y-45608000D02*
X104760000Y-45608000D01*
X111160000Y-50658000D02*
X104760000Y-50658000D01*
X104760000Y-45608000D02*
G75*
G03*
X104760000Y-50658000I0J-2525000D01*
G01*
X111160000Y-50658000D02*
G75*
G03*
X111160000Y-45608000I0J2525000D01*
G01*
G04 #@! TO.C,C11*
X131888000Y-125376000D02*
X128248000Y-125376000D01*
X128248000Y-123281000D02*
X128248000Y-123036000D01*
X131888000Y-123281000D02*
X131888000Y-123036000D01*
X131888000Y-123036000D02*
X128248000Y-123036000D01*
X128248000Y-125376000D02*
X128248000Y-125131000D01*
X131888000Y-125376000D02*
X131888000Y-125131000D01*
G04 #@! TO.C,U2*
X163260000Y-59330000D02*
X163260000Y-53870000D01*
X163260000Y-66790000D02*
X163260000Y-61330000D01*
X163320000Y-51380000D02*
X127520000Y-51380000D01*
X127580000Y-53870000D02*
X127580000Y-66790000D01*
X127520000Y-69280000D02*
X163320000Y-69280000D01*
X163260000Y-53870000D02*
X127580000Y-53870000D01*
X127580000Y-66790000D02*
X163260000Y-66790000D01*
X163320000Y-69280000D02*
X163320000Y-51380000D01*
X127520000Y-51380000D02*
X127520000Y-69280000D01*
X163260000Y-59330000D02*
G75*
G03*
X163260000Y-61330000I0J-1000000D01*
G01*
G04 #@! TD*
M02*
