M48
INCH,TZ
T1C0.0157
T2C0.0276
T3C0.0315
T4C0.0354
T5C0.0394
T6C0.0433
%
G90
G05
T1
X37447Y-33706
X37450Y-32800
X40000Y-22594
X40007Y-24600
X40046Y-34800
X40046Y-35733
X40046Y-37745
X40046Y-38750
X40050Y-36600
X40050Y-39350
X40300Y-42450
X40700Y-43600
X40700Y-46100
X40800Y-26740
X41300Y-21850
X41550Y-41350
X41755Y-33760
X41755Y-34700
X41755Y-35700
X41755Y-36600
X41755Y-37700
X41800Y-32700
X43350Y-40150
X43450Y-40700
X43750Y-25250
X44050Y-21300
X44150Y-43200
X44243Y-23300
X44500Y-28750
X44600Y-36900
X45900Y-36900
X45993Y-46015
X46250Y-46800
X46350Y-27607
X46350Y-45850
X46388Y-41145
X46800Y-41100
X47050Y-23300
X47080Y-31340
X47080Y-37140
X47304Y-36076
X47340Y-32340
X47443Y-37022
X47600Y-33340
X47645Y-35923
X47700Y-42300
X48000Y-35400
X48000Y-41150
X48162Y-35062
X48300Y-43250
X49650Y-45200
X49950Y-47500
X50750Y-23950
X51250Y-34400
X51450Y-40300
X51450Y-40700
X51550Y-47500
X51800Y-34400
X52063Y-40707
X52150Y-39700
X52286Y-40300
X52350Y-34400
X52550Y-38494
X52550Y-38900
X52750Y-21950
X52850Y-44750
X52850Y-45800
X54450Y-18050
X55950Y-46750
X56165Y-21878
X57800Y-22200
X60050Y-47700
X60750Y-19450
T2
X46500Y-22750
X46500Y-25750
X49000Y-21750
X49000Y-24750
X53750Y-49000
X56750Y-49000
X58000Y-16724
X61000Y-16724
T3
X37900Y-22750
X37900Y-23750
X37900Y-24750
X37900Y-25750
X37900Y-26750
X37900Y-27750
X37900Y-28750
X37900Y-29750
X37900Y-30750
X37900Y-31750
X39250Y-20750
X39250Y-21750
X39250Y-22750
X39250Y-23750
X39250Y-24750
X39250Y-25750
X39250Y-26750
X39250Y-27750
X39250Y-28750
X39250Y-29750
X39250Y-30750
X39250Y-31750
X39250Y-32750
X39250Y-33750
X39250Y-34750
X39250Y-35750
X39250Y-36750
X39250Y-37750
X39250Y-38750
X39250Y-39750
X40566Y-17250
X41543Y-18950
X41550Y-17250
X42248Y-41752
X42248Y-42752
X42248Y-43752
X42248Y-44752
X42248Y-45752
X42248Y-46752
X42248Y-47752
X42248Y-48752
X43465Y-18950
X43500Y-17250
X44484Y-17250
X45248Y-41752
X45248Y-42752
X45248Y-43752
X45248Y-44752
X45248Y-45752
X45248Y-46752
X45248Y-47752
X45248Y-48752
X45250Y-20750
X45250Y-21750
X45250Y-22750
X45250Y-23750
X45250Y-24750
X45250Y-25750
X45250Y-26750
X45250Y-27750
X45250Y-28750
X45250Y-29750
X45250Y-30750
X45250Y-31750
X45250Y-32750
X45250Y-33750
X45250Y-34750
X45250Y-35750
X45250Y-36750
X45250Y-37750
X45250Y-38750
X45250Y-39750
X45400Y-19450
X46350Y-43450
X46384Y-19450
X46496Y-30748
X46496Y-31748
X46496Y-32748
X46496Y-33748
X46496Y-34748
X46496Y-35748
X46496Y-36748
X46496Y-37748
X46496Y-38748
X46496Y-39748
X47334Y-43450
X47750Y-21752
X47750Y-24752
X47966Y-19250
X48708Y-16500
X48950Y-19250
X49496Y-30748
X49496Y-31748
X49496Y-32748
X49496Y-33748
X49496Y-34748
X49496Y-35748
X49496Y-36748
X49496Y-37748
X49496Y-38748
X49496Y-39748
X49500Y-29600
X49692Y-16500
X50484Y-29600
X50716Y-48900
X50752Y-16504
X50752Y-19504
X50752Y-20752
X50752Y-26752
X50752Y-34748
X50752Y-35748
X50752Y-36748
X50752Y-37748
X50752Y-38748
X50752Y-39748
X50752Y-40748
X50752Y-41748
X50752Y-42748
X50752Y-43748
X50752Y-44748
X50752Y-45748
X50752Y-46748
X50752Y-47748
X51700Y-48900
X51752Y-16504
X51752Y-19504
X51752Y-20752
X51752Y-26752
X52752Y-16504
X52752Y-19504
X52752Y-20752
X52752Y-26752
X53752Y-16504
X53752Y-19504
X53752Y-20752
X53752Y-26752
X54752Y-16504
X54752Y-19504
X54752Y-20752
X54752Y-26752
X55752Y-16504
X55752Y-19504
X55752Y-20752
X55752Y-26752
X56752Y-16504
X56752Y-19504
X56752Y-20752
X56752Y-26752
X56752Y-34748
X56752Y-35748
X56752Y-36748
X56752Y-37748
X56752Y-38748
X56752Y-39748
X56752Y-40748
X56752Y-41748
X56752Y-42748
X56752Y-43748
X56752Y-44748
X56752Y-45748
X56752Y-46748
X56752Y-47748
X56950Y-49900
X56950Y-50884
X57752Y-20752
X57752Y-26752
X58752Y-20752
X58752Y-26752
X59752Y-20752
X59752Y-26752
X60752Y-20752
X60752Y-26752
X61750Y-28200
X61750Y-29184
X61752Y-20752
X61752Y-26752
X62752Y-20752
X62752Y-26752
X63752Y-20752
X63752Y-26752
X65750Y-29223
X65750Y-30207
X68750Y-35350
X69734Y-35350
T4
X62250Y-16803
X63250Y-16803
T5
X35498Y-22772
X35498Y-23772
X35498Y-24772
X35498Y-25772
X35498Y-26772
X35498Y-27772
X35498Y-28772
X35498Y-29772
X35498Y-30772
X35498Y-31772
X35498Y-32772
X35498Y-33772
X35498Y-34772
X35498Y-35772
X35498Y-36772
X35498Y-37772
X35498Y-38772
X35498Y-39772
X35498Y-40772
X35498Y-41772
X35498Y-42772
X35498Y-43772
X35498Y-44772
X35498Y-45772
X35498Y-46772
X36498Y-22772
X36498Y-23772
X36498Y-24772
X36498Y-25772
X36498Y-26772
X36498Y-27772
X36498Y-28772
X36498Y-29772
X36498Y-30772
X36498Y-31772
X36498Y-32772
X36498Y-33772
X36498Y-34772
X36498Y-35772
X36498Y-36772
X36498Y-37772
X36498Y-38772
X36498Y-39772
X36498Y-40772
X36498Y-41772
X36498Y-42772
X36498Y-43772
X36498Y-44772
X36498Y-45772
X36498Y-46772
X59214Y-34717
X59214Y-35717
X59214Y-36717
X59214Y-37717
X59214Y-38717
X59214Y-39717
X59214Y-40717
X59214Y-41717
X59214Y-42717
X59214Y-43717
X59214Y-44717
X59214Y-45717
X59214Y-46717
X59214Y-47717
X65214Y-34717
X65214Y-35717
X65214Y-36717
X65214Y-37717
X65214Y-38717
X65214Y-39717
X65214Y-40717
X65214Y-41717
X65214Y-42717
X65214Y-43717
X65214Y-44717
X65214Y-45717
X65214Y-46717
X65214Y-47717
X68820Y-21732
X68820Y-22732
X68820Y-23732
X68820Y-24732
X68820Y-25732
X68820Y-26732
T6
X65470Y-16114
X65470Y-17886
X68030Y-16114
X68030Y-17886
T5
G00X67600Y-33212
M15
G01X67600Y-32188
M16
G05
G00X68309Y-30810
M15
G01X69175Y-30810
M16
G05
G00X70080Y-33133
M15
G01X70080Y-32267
M16
G05
T0
M30
