G04 #@! TF.GenerationSoftware,KiCad,Pcbnew,6.0.2*
G04 #@! TF.CreationDate,2022-02-11T23:35:56-08:00*
G04 #@! TF.ProjectId,Easy8085,45617379-3830-4383-952e-6b696361645f,rev?*
G04 #@! TF.SameCoordinates,Original*
G04 #@! TF.FileFunction,Copper,L1,Top*
G04 #@! TF.FilePolarity,Positive*
%FSLAX46Y46*%
G04 Gerber Fmt 4.6, Leading zero omitted, Abs format (unit mm)*
G04 Created by KiCad (PCBNEW 6.0.2) date 2022-02-11 23:35:56*
%MOMM*%
%LPD*%
G01*
G04 APERTURE LIST*
G04 #@! TA.AperFunction,ComponentPad*
%ADD10C,1.600000*%
G04 #@! TD*
G04 #@! TA.AperFunction,ComponentPad*
%ADD11R,1.700000X1.700000*%
G04 #@! TD*
G04 #@! TA.AperFunction,ComponentPad*
%ADD12O,1.700000X1.700000*%
G04 #@! TD*
G04 #@! TA.AperFunction,ComponentPad*
%ADD13R,1.600000X1.600000*%
G04 #@! TD*
G04 #@! TA.AperFunction,ComponentPad*
%ADD14O,1.600000X1.600000*%
G04 #@! TD*
G04 #@! TA.AperFunction,ComponentPad*
%ADD15R,2.000000X4.600000*%
G04 #@! TD*
G04 #@! TA.AperFunction,ComponentPad*
%ADD16O,2.000000X4.200000*%
G04 #@! TD*
G04 #@! TA.AperFunction,ComponentPad*
%ADD17O,4.200000X2.000000*%
G04 #@! TD*
G04 #@! TA.AperFunction,ComponentPad*
%ADD18C,1.400000*%
G04 #@! TD*
G04 #@! TA.AperFunction,ComponentPad*
%ADD19O,1.400000X1.400000*%
G04 #@! TD*
G04 #@! TA.AperFunction,ComponentPad*
%ADD20C,2.000000*%
G04 #@! TD*
G04 #@! TA.AperFunction,ComponentPad*
%ADD21R,1.800000X1.800000*%
G04 #@! TD*
G04 #@! TA.AperFunction,ComponentPad*
%ADD22C,1.800000*%
G04 #@! TD*
G04 #@! TA.AperFunction,ComponentPad*
%ADD23R,2.000000X1.440000*%
G04 #@! TD*
G04 #@! TA.AperFunction,ComponentPad*
%ADD24O,2.000000X1.440000*%
G04 #@! TD*
G04 #@! TA.AperFunction,ComponentPad*
%ADD25C,1.500000*%
G04 #@! TD*
G04 #@! TA.AperFunction,ViaPad*
%ADD26C,0.800000*%
G04 #@! TD*
G04 #@! TA.AperFunction,Conductor*
%ADD27C,0.812800*%
G04 #@! TD*
G04 #@! TA.AperFunction,Conductor*
%ADD28C,1.625600*%
G04 #@! TD*
G04 #@! TA.AperFunction,Conductor*
%ADD29C,0.200000*%
G04 #@! TD*
G04 APERTURE END LIST*
D10*
G04 #@! TO.P,C6,1*
G04 #@! TO.N,VCC*
X128230000Y-75184000D03*
G04 #@! TO.P,C6,2*
G04 #@! TO.N,GND*
X125730000Y-75184000D03*
G04 #@! TD*
G04 #@! TO.P,C1,1*
G04 #@! TO.N,Net-(C1-Pad1)*
X105537000Y-43815000D03*
G04 #@! TO.P,C1,2*
G04 #@! TO.N,GND*
X103037000Y-43815000D03*
G04 #@! TD*
G04 #@! TO.P,C2,1*
G04 #@! TO.N,Net-(C2-Pad1)*
X110490000Y-43815000D03*
G04 #@! TO.P,C2,2*
G04 #@! TO.N,GND*
X112990000Y-43815000D03*
G04 #@! TD*
D11*
G04 #@! TO.P,J3,1,Pin_1*
G04 #@! TO.N,GND*
X174802800Y-67900000D03*
D12*
G04 #@! TO.P,J3,2,Pin_2*
G04 #@! TO.N,/~{RTS}*
X174802800Y-65360000D03*
G04 #@! TO.P,J3,3,Pin_3*
G04 #@! TO.N,VCC*
X174802800Y-62820000D03*
G04 #@! TO.P,J3,4,Pin_4*
G04 #@! TO.N,/RxD*
X174802800Y-60280000D03*
G04 #@! TO.P,J3,5,Pin_5*
G04 #@! TO.N,/TxD*
X174802800Y-57740000D03*
G04 #@! TO.P,J3,6,Pin_6*
G04 #@! TO.N,/~{CTS}*
X174802800Y-55200000D03*
G04 #@! TD*
D13*
G04 #@! TO.P,U3,1,CP1..3*
G04 #@! TO.N,Net-(U3-Pad1)*
X144150000Y-41920000D03*
D14*
G04 #@! TO.P,U3,2,R0(1)*
G04 #@! TO.N,GND*
X141610000Y-41920000D03*
G04 #@! TO.P,U3,3,R0(2)*
X139070000Y-41920000D03*
G04 #@! TO.P,U3,4,NC*
G04 #@! TO.N,unconnected-(U3-Pad4)*
X136530000Y-41920000D03*
G04 #@! TO.P,U3,5,VCC*
G04 #@! TO.N,VCC*
X133990000Y-41920000D03*
G04 #@! TO.P,U3,6,R9(1)*
G04 #@! TO.N,GND*
X131450000Y-41920000D03*
G04 #@! TO.P,U3,7,R9(2)*
X128910000Y-41920000D03*
G04 #@! TO.P,U3,8,Q2*
G04 #@! TO.N,unconnected-(U3-Pad8)*
X128910000Y-49540000D03*
G04 #@! TO.P,U3,9,Q1*
G04 #@! TO.N,unconnected-(U3-Pad9)*
X131450000Y-49540000D03*
G04 #@! TO.P,U3,10,GND*
G04 #@! TO.N,GND*
X133990000Y-49540000D03*
G04 #@! TO.P,U3,11,Q3*
G04 #@! TO.N,/BAUD_CLK*
X136530000Y-49540000D03*
G04 #@! TO.P,U3,12,Q0*
G04 #@! TO.N,Net-(U3-Pad1)*
X139070000Y-49540000D03*
G04 #@! TO.P,U3,13,NC*
G04 #@! TO.N,unconnected-(U3-Pad13)*
X141610000Y-49540000D03*
G04 #@! TO.P,U3,14,CP0*
G04 #@! TO.N,/CLK*
X144150000Y-49540000D03*
G04 #@! TD*
D15*
G04 #@! TO.P,J2,1*
G04 #@! TO.N,VCC*
X171704000Y-83058000D03*
D16*
G04 #@! TO.P,J2,2*
G04 #@! TO.N,GND*
X178004000Y-83058000D03*
D17*
G04 #@! TO.P,J2,3*
X174604000Y-78258000D03*
G04 #@! TD*
D18*
G04 #@! TO.P,R4,1*
G04 #@! TO.N,VCC*
X136525000Y-124460000D03*
D19*
G04 #@! TO.P,R4,2*
G04 #@! TO.N,Net-(R4-Pad2)*
X144145000Y-124460000D03*
G04 #@! TD*
D10*
G04 #@! TO.P,C9,1*
G04 #@! TO.N,VCC*
X117729000Y-110363000D03*
G04 #@! TO.P,C9,2*
G04 #@! TO.N,GND*
X120229000Y-110363000D03*
G04 #@! TD*
G04 #@! TO.P,C12,1*
G04 #@! TO.N,VCC*
X144653000Y-126746000D03*
G04 #@! TO.P,C12,2*
G04 #@! TO.N,GND*
X144653000Y-129246000D03*
G04 #@! TD*
G04 #@! TO.P,C5,1*
G04 #@! TO.N,VCC*
X123718000Y-41910000D03*
G04 #@! TO.P,C5,2*
G04 #@! TO.N,GND*
X126218000Y-41910000D03*
G04 #@! TD*
D20*
G04 #@! TO.P,SW1,1,1*
G04 #@! TO.N,GND*
X172795000Y-45430000D03*
X166295000Y-45430000D03*
G04 #@! TO.P,SW1,2,2*
G04 #@! TO.N,/~{RES_IN}*
X172795000Y-40930000D03*
X166295000Y-40930000D03*
G04 #@! TD*
D18*
G04 #@! TO.P,R2,1*
G04 #@! TO.N,VCC*
X118110000Y-57785000D03*
D19*
G04 #@! TO.P,R2,2*
G04 #@! TO.N,/READY*
X118110000Y-65405000D03*
G04 #@! TD*
D10*
G04 #@! TO.P,C7,1*
G04 #@! TO.N,VCC*
X156845000Y-71628000D03*
G04 #@! TO.P,C7,2*
G04 #@! TO.N,GND*
X156845000Y-74128000D03*
G04 #@! TD*
D18*
G04 #@! TO.P,R3,1*
G04 #@! TO.N,Net-(LED1-Pad1)*
X154940000Y-42480000D03*
D19*
G04 #@! TO.P,R3,2*
G04 #@! TO.N,VCC*
X147320000Y-42480000D03*
G04 #@! TD*
D13*
G04 #@! TO.P,RN1,1,common*
G04 #@! TO.N,GND*
X96266000Y-80645000D03*
D14*
G04 #@! TO.P,RN1,2,R1*
G04 #@! TO.N,unconnected-(RN1-Pad2)*
X96266000Y-78105000D03*
G04 #@! TO.P,RN1,3,R2*
G04 #@! TO.N,/INTR*
X96266000Y-75565000D03*
G04 #@! TO.P,RN1,4,R3*
G04 #@! TO.N,/RST5.5*
X96266000Y-73025000D03*
G04 #@! TO.P,RN1,5,R4*
G04 #@! TO.N,/RST6.5*
X96266000Y-70485000D03*
G04 #@! TO.P,RN1,6,R5*
G04 #@! TO.N,/RST7.5*
X96266000Y-67945000D03*
G04 #@! TO.P,RN1,7,R6*
G04 #@! TO.N,/TRAP*
X96266000Y-65405000D03*
G04 #@! TO.P,RN1,8,R7*
G04 #@! TO.N,unconnected-(RN1-Pad8)*
X96266000Y-62865000D03*
G04 #@! TO.P,RN1,9,R8*
G04 #@! TO.N,/SID*
X96266000Y-60325000D03*
G04 #@! TO.P,RN1,10,R9*
G04 #@! TO.N,/HOLD*
X96266000Y-57785000D03*
G04 #@! TD*
D10*
G04 #@! TO.P,C10,1*
G04 #@! TO.N,VCC*
X174625000Y-89789000D03*
G04 #@! TO.P,C10,2*
G04 #@! TO.N,GND*
X177125000Y-89789000D03*
G04 #@! TD*
D21*
G04 #@! TO.P,LED1,1,K*
G04 #@! TO.N,Net-(LED1-Pad1)*
X158115000Y-42680000D03*
D22*
G04 #@! TO.P,LED1,2,A*
G04 #@! TO.N,GND*
X160655000Y-42680000D03*
G04 #@! TD*
D11*
G04 #@! TO.P,J1,1,Pin_1*
G04 #@! TO.N,VCC*
X90165000Y-57840000D03*
D12*
G04 #@! TO.P,J1,2,Pin_2*
G04 #@! TO.N,/RES_OUT*
X92705000Y-57840000D03*
G04 #@! TO.P,J1,3,Pin_3*
G04 #@! TO.N,/HOLD*
X90165000Y-60380000D03*
G04 #@! TO.P,J1,4,Pin_4*
G04 #@! TO.N,/SOD*
X92705000Y-60380000D03*
G04 #@! TO.P,J1,5,Pin_5*
G04 #@! TO.N,/HLDA*
X90165000Y-62920000D03*
G04 #@! TO.P,J1,6,Pin_6*
G04 #@! TO.N,/SID*
X92705000Y-62920000D03*
G04 #@! TO.P,J1,7,Pin_7*
G04 #@! TO.N,/CLK*
X90165000Y-65460000D03*
G04 #@! TO.P,J1,8,Pin_8*
G04 #@! TO.N,/TRAP*
X92705000Y-65460000D03*
G04 #@! TO.P,J1,9,Pin_9*
G04 #@! TO.N,/~{RES_IN}*
X90165000Y-68000000D03*
G04 #@! TO.P,J1,10,Pin_10*
G04 #@! TO.N,/RST7.5*
X92705000Y-68000000D03*
G04 #@! TO.P,J1,11,Pin_11*
G04 #@! TO.N,/IO{slash}~{M}*
X90165000Y-70540000D03*
G04 #@! TO.P,J1,12,Pin_12*
G04 #@! TO.N,/RST5.5*
X92705000Y-70540000D03*
G04 #@! TO.P,J1,13,Pin_13*
G04 #@! TO.N,/~{RD}*
X90165000Y-73080000D03*
G04 #@! TO.P,J1,14,Pin_14*
G04 #@! TO.N,/INTR*
X92705000Y-73080000D03*
G04 #@! TO.P,J1,15,Pin_15*
G04 #@! TO.N,/~{WR}*
X90165000Y-75620000D03*
G04 #@! TO.P,J1,16,Pin_16*
G04 #@! TO.N,/~{INTA}*
X92705000Y-75620000D03*
G04 #@! TO.P,J1,17,Pin_17*
G04 #@! TO.N,/A15*
X90165000Y-78160000D03*
G04 #@! TO.P,J1,18,Pin_18*
G04 #@! TO.N,/AD0*
X92705000Y-78160000D03*
G04 #@! TO.P,J1,19,Pin_19*
G04 #@! TO.N,/A14*
X90165000Y-80700000D03*
G04 #@! TO.P,J1,20,Pin_20*
G04 #@! TO.N,/A0*
X92705000Y-80700000D03*
G04 #@! TO.P,J1,21,Pin_21*
G04 #@! TO.N,/A13*
X90165000Y-83240000D03*
G04 #@! TO.P,J1,22,Pin_22*
G04 #@! TO.N,/AD1*
X92705000Y-83240000D03*
G04 #@! TO.P,J1,23,Pin_23*
G04 #@! TO.N,/A12*
X90165000Y-85780000D03*
G04 #@! TO.P,J1,24,Pin_24*
G04 #@! TO.N,/A1*
X92705000Y-85780000D03*
G04 #@! TO.P,J1,25,Pin_25*
G04 #@! TO.N,/A11*
X90165000Y-88320000D03*
G04 #@! TO.P,J1,26,Pin_26*
G04 #@! TO.N,/AD2*
X92705000Y-88320000D03*
G04 #@! TO.P,J1,27,Pin_27*
G04 #@! TO.N,/A10*
X90165000Y-90860000D03*
G04 #@! TO.P,J1,28,Pin_28*
G04 #@! TO.N,/A2*
X92705000Y-90860000D03*
G04 #@! TO.P,J1,29,Pin_29*
G04 #@! TO.N,/A9*
X90165000Y-93400000D03*
G04 #@! TO.P,J1,30,Pin_30*
G04 #@! TO.N,/AD3*
X92705000Y-93400000D03*
G04 #@! TO.P,J1,31,Pin_31*
G04 #@! TO.N,/A8*
X90165000Y-95940000D03*
G04 #@! TO.P,J1,32,Pin_32*
G04 #@! TO.N,/A3*
X92705000Y-95940000D03*
G04 #@! TO.P,J1,33,Pin_33*
G04 #@! TO.N,VCC*
X90165000Y-98480000D03*
G04 #@! TO.P,J1,34,Pin_34*
G04 #@! TO.N,/AD4*
X92705000Y-98480000D03*
G04 #@! TO.P,J1,35,Pin_35*
G04 #@! TO.N,VCC*
X90165000Y-101020000D03*
G04 #@! TO.P,J1,36,Pin_36*
G04 #@! TO.N,/A4*
X92705000Y-101020000D03*
G04 #@! TO.P,J1,37,Pin_37*
G04 #@! TO.N,GND*
X90165000Y-103560000D03*
G04 #@! TO.P,J1,38,Pin_38*
G04 #@! TO.N,/AD5*
X92705000Y-103560000D03*
G04 #@! TO.P,J1,39,Pin_39*
G04 #@! TO.N,GND*
X90165000Y-106100000D03*
G04 #@! TO.P,J1,40,Pin_40*
G04 #@! TO.N,/A5*
X92705000Y-106100000D03*
G04 #@! TO.P,J1,41,Pin_41*
G04 #@! TO.N,/~{20-3F}*
X90165000Y-108640000D03*
G04 #@! TO.P,J1,42,Pin_42*
G04 #@! TO.N,/AD6*
X92705000Y-108640000D03*
G04 #@! TO.P,J1,43,Pin_43*
G04 #@! TO.N,/~{40-5F}*
X90165000Y-111180000D03*
G04 #@! TO.P,J1,44,Pin_44*
G04 #@! TO.N,/A6*
X92705000Y-111180000D03*
G04 #@! TO.P,J1,45,Pin_45*
G04 #@! TO.N,/~{60-7F}*
X90165000Y-113720000D03*
G04 #@! TO.P,J1,46,Pin_46*
G04 #@! TO.N,/AD7*
X92705000Y-113720000D03*
G04 #@! TO.P,J1,47,Pin_47*
G04 #@! TO.N,/~{HIGH_IO}*
X90165000Y-116260000D03*
G04 #@! TO.P,J1,48,Pin_48*
G04 #@! TO.N,/A7*
X92705000Y-116260000D03*
G04 #@! TO.P,J1,49,Pin_49*
G04 #@! TO.N,GND*
X90165000Y-118800000D03*
G04 #@! TO.P,J1,50,Pin_50*
X92705000Y-118800000D03*
G04 #@! TD*
D13*
G04 #@! TO.P,U1,1,X1*
G04 #@! TO.N,Net-(C1-Pad1)*
X99695000Y-52705000D03*
D14*
G04 #@! TO.P,U1,2,X2*
G04 #@! TO.N,Net-(C2-Pad1)*
X99695000Y-55245000D03*
G04 #@! TO.P,U1,3,RES_OUT*
G04 #@! TO.N,/RES_OUT*
X99695000Y-57785000D03*
G04 #@! TO.P,U1,4,SOD*
G04 #@! TO.N,/SOD*
X99695000Y-60325000D03*
G04 #@! TO.P,U1,5,SID*
G04 #@! TO.N,/SID*
X99695000Y-62865000D03*
G04 #@! TO.P,U1,6,TRAP*
G04 #@! TO.N,/TRAP*
X99695000Y-65405000D03*
G04 #@! TO.P,U1,7,RST7_5*
G04 #@! TO.N,/RST7.5*
X99695000Y-67945000D03*
G04 #@! TO.P,U1,8,RST6_5*
G04 #@! TO.N,/RST6.5*
X99695000Y-70485000D03*
G04 #@! TO.P,U1,9,RST5_5*
G04 #@! TO.N,/RST5.5*
X99695000Y-73025000D03*
G04 #@! TO.P,U1,10,INTR*
G04 #@! TO.N,/INTR*
X99695000Y-75565000D03*
G04 #@! TO.P,U1,11,INTA*
G04 #@! TO.N,/~{INTA}*
X99695000Y-78105000D03*
G04 #@! TO.P,U1,12,AD0*
G04 #@! TO.N,/AD0*
X99695000Y-80645000D03*
G04 #@! TO.P,U1,13,AD1*
G04 #@! TO.N,/AD1*
X99695000Y-83185000D03*
G04 #@! TO.P,U1,14,AD2*
G04 #@! TO.N,/AD2*
X99695000Y-85725000D03*
G04 #@! TO.P,U1,15,AD3*
G04 #@! TO.N,/AD3*
X99695000Y-88265000D03*
G04 #@! TO.P,U1,16,AD4*
G04 #@! TO.N,/AD4*
X99695000Y-90805000D03*
G04 #@! TO.P,U1,17,AD5*
G04 #@! TO.N,/AD5*
X99695000Y-93345000D03*
G04 #@! TO.P,U1,18,AD6*
G04 #@! TO.N,/AD6*
X99695000Y-95885000D03*
G04 #@! TO.P,U1,19,AD7*
G04 #@! TO.N,/AD7*
X99695000Y-98425000D03*
G04 #@! TO.P,U1,20,VSS*
G04 #@! TO.N,GND*
X99695000Y-100965000D03*
G04 #@! TO.P,U1,21,A8*
G04 #@! TO.N,/A8*
X114935000Y-100965000D03*
G04 #@! TO.P,U1,22,A9*
G04 #@! TO.N,/A9*
X114935000Y-98425000D03*
G04 #@! TO.P,U1,23,A10*
G04 #@! TO.N,/A10*
X114935000Y-95885000D03*
G04 #@! TO.P,U1,24,A11*
G04 #@! TO.N,/A11*
X114935000Y-93345000D03*
G04 #@! TO.P,U1,25,A12*
G04 #@! TO.N,/A12*
X114935000Y-90805000D03*
G04 #@! TO.P,U1,26,A13*
G04 #@! TO.N,/A13*
X114935000Y-88265000D03*
G04 #@! TO.P,U1,27,A14*
G04 #@! TO.N,/A14*
X114935000Y-85725000D03*
G04 #@! TO.P,U1,28,A15*
G04 #@! TO.N,/A15*
X114935000Y-83185000D03*
G04 #@! TO.P,U1,29,S0*
G04 #@! TO.N,unconnected-(U1-Pad29)*
X114935000Y-80645000D03*
G04 #@! TO.P,U1,30,ALE*
G04 #@! TO.N,/ALE*
X114935000Y-78105000D03*
G04 #@! TO.P,U1,31,WR*
G04 #@! TO.N,/~{WR}*
X114935000Y-75565000D03*
G04 #@! TO.P,U1,32,RD*
G04 #@! TO.N,/~{RD}*
X114935000Y-73025000D03*
G04 #@! TO.P,U1,33,S1*
G04 #@! TO.N,unconnected-(U1-Pad33)*
X114935000Y-70485000D03*
G04 #@! TO.P,U1,34,IO/~{M}*
G04 #@! TO.N,/IO{slash}~{M}*
X114935000Y-67945000D03*
G04 #@! TO.P,U1,35,READY*
G04 #@! TO.N,/READY*
X114935000Y-65405000D03*
G04 #@! TO.P,U1,36,RES_IN*
G04 #@! TO.N,/~{RES_IN}*
X114935000Y-62865000D03*
G04 #@! TO.P,U1,37,CLK*
G04 #@! TO.N,/CLK*
X114935000Y-60325000D03*
G04 #@! TO.P,U1,38,HLDA*
G04 #@! TO.N,/HLDA*
X114935000Y-57785000D03*
G04 #@! TO.P,U1,39,HOLD*
G04 #@! TO.N,/HOLD*
X114935000Y-55245000D03*
G04 #@! TO.P,U1,40,VCC*
G04 #@! TO.N,VCC*
X114935000Y-52705000D03*
G04 #@! TD*
D23*
G04 #@! TO.P,U7,1,A14*
G04 #@! TO.N,/A14*
X165642500Y-121200000D03*
D24*
G04 #@! TO.P,U7,2,A12*
G04 #@! TO.N,/A12*
X165642500Y-118660000D03*
G04 #@! TO.P,U7,3,A7*
G04 #@! TO.N,/A7*
X165642500Y-116120000D03*
G04 #@! TO.P,U7,4,A6*
G04 #@! TO.N,/A6*
X165642500Y-113580000D03*
G04 #@! TO.P,U7,5,A5*
G04 #@! TO.N,/A5*
X165642500Y-111040000D03*
G04 #@! TO.P,U7,6,A4*
G04 #@! TO.N,/A4*
X165642500Y-108500000D03*
G04 #@! TO.P,U7,7,A3*
G04 #@! TO.N,/A3*
X165642500Y-105960000D03*
G04 #@! TO.P,U7,8,A2*
G04 #@! TO.N,/A2*
X165642500Y-103420000D03*
G04 #@! TO.P,U7,9,A1*
G04 #@! TO.N,/A1*
X165642500Y-100880000D03*
G04 #@! TO.P,U7,10,A0*
G04 #@! TO.N,/A0*
X165642500Y-98340000D03*
G04 #@! TO.P,U7,11,D0*
G04 #@! TO.N,/AD0*
X165642500Y-95800000D03*
G04 #@! TO.P,U7,12,D1*
G04 #@! TO.N,/AD1*
X165642500Y-93260000D03*
G04 #@! TO.P,U7,13,D2*
G04 #@! TO.N,/AD2*
X165642500Y-90720000D03*
G04 #@! TO.P,U7,14,GND*
G04 #@! TO.N,GND*
X165642500Y-88180000D03*
G04 #@! TO.P,U7,15,D3*
G04 #@! TO.N,/AD3*
X150402500Y-88180000D03*
G04 #@! TO.P,U7,16,D4*
G04 #@! TO.N,/AD4*
X150402500Y-90720000D03*
G04 #@! TO.P,U7,17,D5*
G04 #@! TO.N,/AD5*
X150402500Y-93260000D03*
G04 #@! TO.P,U7,18,D6*
G04 #@! TO.N,/AD6*
X150402500Y-95800000D03*
G04 #@! TO.P,U7,19,D7*
G04 #@! TO.N,/AD7*
X150402500Y-98340000D03*
G04 #@! TO.P,U7,20,~{CE}*
G04 #@! TO.N,/~{ROM}*
X150402500Y-100880000D03*
G04 #@! TO.P,U7,21,A10*
G04 #@! TO.N,/A10*
X150402500Y-103420000D03*
G04 #@! TO.P,U7,22,~{OE}*
G04 #@! TO.N,/~{RD}*
X150402500Y-105960000D03*
G04 #@! TO.P,U7,23,A11*
G04 #@! TO.N,/A11*
X150402500Y-108500000D03*
G04 #@! TO.P,U7,24,A9*
G04 #@! TO.N,/A9*
X150402500Y-111040000D03*
G04 #@! TO.P,U7,25,A8*
G04 #@! TO.N,/A8*
X150402500Y-113580000D03*
G04 #@! TO.P,U7,26,A13*
G04 #@! TO.N,/A13*
X150402500Y-116120000D03*
G04 #@! TO.P,U7,27,~{WE}*
G04 #@! TO.N,Net-(R4-Pad2)*
X150402500Y-118660000D03*
G04 #@! TO.P,U7,28,VCC*
G04 #@! TO.N,VCC*
X150402500Y-121200000D03*
G04 #@! TD*
D13*
G04 #@! TO.P,U4,1,E*
G04 #@! TO.N,GND*
X107310000Y-106050000D03*
D14*
G04 #@! TO.P,U4,2,A0*
G04 #@! TO.N,/A15*
X107310000Y-108590000D03*
G04 #@! TO.P,U4,3,A1*
G04 #@! TO.N,/IO{slash}~{M}*
X107310000Y-111130000D03*
G04 #@! TO.P,U4,4,O0*
G04 #@! TO.N,/~{ROM}*
X107310000Y-113670000D03*
G04 #@! TO.P,U4,5,O1*
G04 #@! TO.N,/~{RAM}*
X107310000Y-116210000D03*
G04 #@! TO.P,U4,6,O2*
G04 #@! TO.N,Net-(U4-Pad15)*
X107310000Y-118750000D03*
G04 #@! TO.P,U4,7,O3*
G04 #@! TO.N,/~{HIGH_IO}*
X107310000Y-121290000D03*
G04 #@! TO.P,U4,8,GND*
G04 #@! TO.N,GND*
X107310000Y-123830000D03*
G04 #@! TO.P,U4,9,O3*
G04 #@! TO.N,/~{60-7F}*
X114930000Y-123830000D03*
G04 #@! TO.P,U4,10,O2*
G04 #@! TO.N,/~{40-5F}*
X114930000Y-121290000D03*
G04 #@! TO.P,U4,11,O1*
G04 #@! TO.N,/~{20-3F}*
X114930000Y-118750000D03*
G04 #@! TO.P,U4,12,O0*
G04 #@! TO.N,/~{SERIAL}*
X114930000Y-116210000D03*
G04 #@! TO.P,U4,13,A1*
G04 #@! TO.N,/A14*
X114930000Y-113670000D03*
G04 #@! TO.P,U4,14,A0*
G04 #@! TO.N,/A13*
X114930000Y-111130000D03*
G04 #@! TO.P,U4,15,E*
G04 #@! TO.N,Net-(U4-Pad15)*
X114930000Y-108590000D03*
G04 #@! TO.P,U4,16,VCC*
G04 #@! TO.N,VCC*
X114930000Y-106050000D03*
G04 #@! TD*
D13*
G04 #@! TO.P,C8,1*
G04 #@! TO.N,VCC*
X167005000Y-76726394D03*
D10*
G04 #@! TO.P,C8,2*
G04 #@! TO.N,GND*
X167005000Y-74226394D03*
G04 #@! TD*
D18*
G04 #@! TO.P,R1,1*
G04 #@! TO.N,/~{RES_IN}*
X124460000Y-62865000D03*
D19*
G04 #@! TO.P,R1,2*
G04 #@! TO.N,VCC*
X124460000Y-55245000D03*
G04 #@! TD*
D10*
G04 #@! TO.P,C4,1*
G04 #@! TO.N,VCC*
X115316000Y-49403000D03*
G04 #@! TO.P,C4,2*
G04 #@! TO.N,GND*
X117816000Y-49403000D03*
G04 #@! TD*
D13*
G04 #@! TO.P,U5,1,OE*
G04 #@! TO.N,/HLDA*
X125720000Y-100960000D03*
D14*
G04 #@! TO.P,U5,2,D0*
G04 #@! TO.N,/AD7*
X125720000Y-98420000D03*
G04 #@! TO.P,U5,3,D1*
G04 #@! TO.N,/AD6*
X125720000Y-95880000D03*
G04 #@! TO.P,U5,4,D2*
G04 #@! TO.N,/AD5*
X125720000Y-93340000D03*
G04 #@! TO.P,U5,5,D3*
G04 #@! TO.N,/AD4*
X125720000Y-90800000D03*
G04 #@! TO.P,U5,6,D4*
G04 #@! TO.N,/AD3*
X125720000Y-88260000D03*
G04 #@! TO.P,U5,7,D5*
G04 #@! TO.N,/AD2*
X125720000Y-85720000D03*
G04 #@! TO.P,U5,8,D6*
G04 #@! TO.N,/AD1*
X125720000Y-83180000D03*
G04 #@! TO.P,U5,9,D7*
G04 #@! TO.N,/AD0*
X125720000Y-80640000D03*
G04 #@! TO.P,U5,10,GND*
G04 #@! TO.N,GND*
X125720000Y-78100000D03*
G04 #@! TO.P,U5,11,Load*
G04 #@! TO.N,/ALE*
X118100000Y-78100000D03*
G04 #@! TO.P,U5,12,Q7*
G04 #@! TO.N,/A0*
X118100000Y-80640000D03*
G04 #@! TO.P,U5,13,Q6*
G04 #@! TO.N,/A1*
X118100000Y-83180000D03*
G04 #@! TO.P,U5,14,Q5*
G04 #@! TO.N,/A2*
X118100000Y-85720000D03*
G04 #@! TO.P,U5,15,Q4*
G04 #@! TO.N,/A3*
X118100000Y-88260000D03*
G04 #@! TO.P,U5,16,Q3*
G04 #@! TO.N,/A4*
X118100000Y-90800000D03*
G04 #@! TO.P,U5,17,Q2*
G04 #@! TO.N,/A5*
X118100000Y-93340000D03*
G04 #@! TO.P,U5,18,Q1*
G04 #@! TO.N,/A6*
X118100000Y-95880000D03*
G04 #@! TO.P,U5,19,Q0*
G04 #@! TO.N,/A7*
X118100000Y-98420000D03*
G04 #@! TO.P,U5,20,VCC*
G04 #@! TO.N,VCC*
X118100000Y-100960000D03*
G04 #@! TD*
D13*
G04 #@! TO.P,C3,1*
G04 #@! TO.N,/~{RES_IN}*
X124333000Y-48895000D03*
D10*
G04 #@! TO.P,C3,2*
G04 #@! TO.N,GND*
X121833000Y-48895000D03*
G04 #@! TD*
D13*
G04 #@! TO.P,U6,1,A14*
G04 #@! TO.N,/A14*
X144150000Y-121280000D03*
D14*
G04 #@! TO.P,U6,2,A12*
G04 #@! TO.N,/A12*
X144150000Y-118740000D03*
G04 #@! TO.P,U6,3,A7*
G04 #@! TO.N,/A7*
X144150000Y-116200000D03*
G04 #@! TO.P,U6,4,A6*
G04 #@! TO.N,/A6*
X144150000Y-113660000D03*
G04 #@! TO.P,U6,5,A5*
G04 #@! TO.N,/A5*
X144150000Y-111120000D03*
G04 #@! TO.P,U6,6,A4*
G04 #@! TO.N,/A4*
X144150000Y-108580000D03*
G04 #@! TO.P,U6,7,A3*
G04 #@! TO.N,/A3*
X144150000Y-106040000D03*
G04 #@! TO.P,U6,8,A2*
G04 #@! TO.N,/A2*
X144150000Y-103500000D03*
G04 #@! TO.P,U6,9,A1*
G04 #@! TO.N,/A1*
X144150000Y-100960000D03*
G04 #@! TO.P,U6,10,A0*
G04 #@! TO.N,/A0*
X144150000Y-98420000D03*
G04 #@! TO.P,U6,11,Q0*
G04 #@! TO.N,/AD0*
X144150000Y-95880000D03*
G04 #@! TO.P,U6,12,Q1*
G04 #@! TO.N,/AD1*
X144150000Y-93340000D03*
G04 #@! TO.P,U6,13,Q2*
G04 #@! TO.N,/AD2*
X144150000Y-90800000D03*
G04 #@! TO.P,U6,14,GND*
G04 #@! TO.N,GND*
X144150000Y-88260000D03*
G04 #@! TO.P,U6,15,Q3*
G04 #@! TO.N,/AD3*
X128910000Y-88260000D03*
G04 #@! TO.P,U6,16,Q4*
G04 #@! TO.N,/AD4*
X128910000Y-90800000D03*
G04 #@! TO.P,U6,17,Q5*
G04 #@! TO.N,/AD5*
X128910000Y-93340000D03*
G04 #@! TO.P,U6,18,Q6*
G04 #@! TO.N,/AD6*
X128910000Y-95880000D03*
G04 #@! TO.P,U6,19,Q7*
G04 #@! TO.N,/AD7*
X128910000Y-98420000D03*
G04 #@! TO.P,U6,20,~{CS}*
G04 #@! TO.N,/~{RAM}*
X128910000Y-100960000D03*
G04 #@! TO.P,U6,21,A10*
G04 #@! TO.N,/A10*
X128910000Y-103500000D03*
G04 #@! TO.P,U6,22,~{OE}*
G04 #@! TO.N,/~{RD}*
X128910000Y-106040000D03*
G04 #@! TO.P,U6,23,A11*
G04 #@! TO.N,/A11*
X128910000Y-108580000D03*
G04 #@! TO.P,U6,24,A9*
G04 #@! TO.N,/A9*
X128910000Y-111120000D03*
G04 #@! TO.P,U6,25,A8*
G04 #@! TO.N,/A8*
X128910000Y-113660000D03*
G04 #@! TO.P,U6,26,A13*
G04 #@! TO.N,/A13*
X128910000Y-116200000D03*
G04 #@! TO.P,U6,27,~{WE}*
G04 #@! TO.N,/~{WR}*
X128910000Y-118740000D03*
G04 #@! TO.P,U6,28,VCC*
G04 #@! TO.N,VCC*
X128910000Y-121280000D03*
G04 #@! TD*
D13*
G04 #@! TO.P,D1,1,K*
G04 #@! TO.N,VCC*
X121285000Y-55250000D03*
D14*
G04 #@! TO.P,D1,2,A*
G04 #@! TO.N,/~{RES_IN}*
X121285000Y-62870000D03*
G04 #@! TD*
D25*
G04 #@! TO.P,Y1,1,1*
G04 #@! TO.N,Net-(C2-Pad1)*
X110400000Y-48133000D03*
G04 #@! TO.P,Y1,2,2*
G04 #@! TO.N,Net-(C1-Pad1)*
X105520000Y-48133000D03*
G04 #@! TD*
D10*
G04 #@! TO.P,C11,1*
G04 #@! TO.N,VCC*
X131318000Y-124206000D03*
G04 #@! TO.P,C11,2*
G04 #@! TO.N,GND*
X128818000Y-124206000D03*
G04 #@! TD*
D13*
G04 #@! TO.P,U2,1,D2*
G04 #@! TO.N,/AD5*
X161930000Y-52710000D03*
D14*
G04 #@! TO.P,U2,2,D3*
G04 #@! TO.N,/AD4*
X159390000Y-52710000D03*
G04 #@! TO.P,U2,3,RxD*
G04 #@! TO.N,/RxD*
X156850000Y-52710000D03*
G04 #@! TO.P,U2,4,GND*
G04 #@! TO.N,GND*
X154310000Y-52710000D03*
G04 #@! TO.P,U2,5,D4*
G04 #@! TO.N,/AD3*
X151770000Y-52710000D03*
G04 #@! TO.P,U2,6,D5*
G04 #@! TO.N,/AD2*
X149230000Y-52710000D03*
G04 #@! TO.P,U2,7,D6*
G04 #@! TO.N,/AD1*
X146690000Y-52710000D03*
G04 #@! TO.P,U2,8,D7*
G04 #@! TO.N,/AD0*
X144150000Y-52710000D03*
G04 #@! TO.P,U2,9,~{TxC}*
G04 #@! TO.N,/BAUD_CLK*
X141610000Y-52710000D03*
G04 #@! TO.P,U2,10,~{WR}*
G04 #@! TO.N,/~{WR}*
X139070000Y-52710000D03*
G04 #@! TO.P,U2,11,~{CS}*
G04 #@! TO.N,/~{SERIAL}*
X136530000Y-52710000D03*
G04 #@! TO.P,U2,12,C/~{D}*
G04 #@! TO.N,/A0*
X133990000Y-52710000D03*
G04 #@! TO.P,U2,13,~{RD}*
G04 #@! TO.N,/~{RD}*
X131450000Y-52710000D03*
G04 #@! TO.P,U2,14,RxRDY*
G04 #@! TO.N,/RST6.5*
X128910000Y-52710000D03*
G04 #@! TO.P,U2,15,TxRDY*
G04 #@! TO.N,unconnected-(U2-Pad15)*
X128910000Y-67950000D03*
G04 #@! TO.P,U2,16,SYNDET*
G04 #@! TO.N,unconnected-(U2-Pad16)*
X131450000Y-67950000D03*
G04 #@! TO.P,U2,17,~{CTS}*
G04 #@! TO.N,/~{CTS}*
X133990000Y-67950000D03*
G04 #@! TO.P,U2,18,TxE*
G04 #@! TO.N,unconnected-(U2-Pad18)*
X136530000Y-67950000D03*
G04 #@! TO.P,U2,19,TxD*
G04 #@! TO.N,/TxD*
X139070000Y-67950000D03*
G04 #@! TO.P,U2,20,CLK*
G04 #@! TO.N,/CLK*
X141610000Y-67950000D03*
G04 #@! TO.P,U2,21,RESET*
G04 #@! TO.N,/RES_OUT*
X144150000Y-67950000D03*
G04 #@! TO.P,U2,22,~{DSR}*
G04 #@! TO.N,unconnected-(U2-Pad22)*
X146690000Y-67950000D03*
G04 #@! TO.P,U2,23,~{RTS}*
G04 #@! TO.N,/~{RTS}*
X149230000Y-67950000D03*
G04 #@! TO.P,U2,24,~{DTR}*
G04 #@! TO.N,unconnected-(U2-Pad24)*
X151770000Y-67950000D03*
G04 #@! TO.P,U2,25,~{RxC}*
G04 #@! TO.N,/BAUD_CLK*
X154310000Y-67950000D03*
G04 #@! TO.P,U2,26,VCC*
G04 #@! TO.N,VCC*
X156850000Y-67950000D03*
G04 #@! TO.P,U2,27,D0*
G04 #@! TO.N,/AD7*
X159390000Y-67950000D03*
G04 #@! TO.P,U2,28,D1*
G04 #@! TO.N,/AD6*
X161930000Y-67950000D03*
G04 #@! TD*
D26*
G04 #@! TO.N,VCC*
X110363000Y-103378000D03*
X128905000Y-60833000D03*
X104902000Y-55499000D03*
X126111000Y-114808000D03*
G04 #@! TO.N,GND*
X103378000Y-110744000D03*
X102362000Y-107823000D03*
X103378000Y-117094000D03*
X154305000Y-49403000D03*
X138303000Y-45847000D03*
X105537000Y-105029000D03*
G04 #@! TO.N,/RES_OUT*
X112378100Y-59182000D03*
X117729000Y-70120900D03*
G04 #@! TO.N,/HLDA*
X101600000Y-57389989D03*
X119507000Y-59182000D03*
G04 #@! TO.N,/CLK*
X142659587Y-55570513D03*
G04 #@! TO.N,/IO{slash}~{M}*
X103632000Y-67919600D03*
G04 #@! TO.N,/~{RD}*
X133985000Y-55753000D03*
X146812000Y-56388000D03*
X111125000Y-64135000D03*
G04 #@! TO.N,/~{WR}*
X117729000Y-116459000D03*
X113030000Y-73025000D03*
G04 #@! TO.N,/A15*
X95123000Y-83312000D03*
X106172000Y-83058000D03*
G04 #@! TO.N,/AD0*
X119583200Y-94335600D03*
X119583200Y-79603600D03*
G04 #@! TO.N,/A14*
X142113000Y-118745000D03*
X106057189Y-85750400D03*
X95114550Y-85612784D03*
G04 #@! TO.N,/A0*
X132969000Y-87376000D03*
X133477000Y-97773536D03*
G04 #@! TO.N,/A13*
X101716374Y-88392000D03*
X106057189Y-88138000D03*
G04 #@! TO.N,/AD1*
X120243600Y-82143600D03*
X120150944Y-91633505D03*
G04 #@! TO.N,/A12*
X116822615Y-116876834D03*
X101716374Y-90762601D03*
X106057189Y-90678000D03*
G04 #@! TO.N,/A1*
X131572000Y-87376000D03*
X132461000Y-100838000D03*
G04 #@! TO.N,/A11*
X101727000Y-92964000D03*
X118872000Y-104394000D03*
X106057189Y-92964000D03*
G04 #@! TO.N,/AD2*
X122330371Y-89057097D03*
X120904000Y-84683600D03*
G04 #@! TO.N,/A10*
X117826671Y-104508571D03*
X106057189Y-95758000D03*
X101716374Y-95872797D03*
G04 #@! TO.N,/A2*
X132240801Y-103396193D03*
X130175000Y-87376000D03*
G04 #@! TO.N,/A9*
X130683000Y-102362000D03*
X101716374Y-98425000D03*
G04 #@! TO.N,/A8*
X130683000Y-103378000D03*
X101727000Y-99949000D03*
G04 #@! TO.N,/A3*
X121920000Y-89916000D03*
X121920000Y-104521000D03*
G04 #@! TO.N,/A4*
X121158000Y-107442000D03*
X121019434Y-91243834D03*
G04 #@! TO.N,/A5*
X113284000Y-93726000D03*
X122682000Y-109855000D03*
X116586000Y-93726000D03*
X120506100Y-94035447D03*
G04 #@! TO.N,/A6*
X134239000Y-113665000D03*
X133477000Y-98806000D03*
G04 #@! TO.N,/A7*
X132806131Y-102362000D03*
X134239000Y-116332000D03*
G04 #@! TO.N,/RST6.5*
X101616900Y-62484000D03*
G04 #@! TO.N,/~{ROM}*
X117475000Y-118872000D03*
X152527000Y-121158000D03*
G04 #@! TO.N,/~{RAM}*
X126873000Y-120650000D03*
X130937000Y-120650000D03*
G04 #@! TO.N,/~{SERIAL}*
X112141000Y-109728000D03*
X110109000Y-101981000D03*
X111887000Y-54102000D03*
G04 #@! TD*
D27*
G04 #@! TO.N,VCC*
X117729000Y-110597000D02*
X121940000Y-114808000D01*
X123718000Y-41910000D02*
X122555000Y-41910000D01*
X88756689Y-102428311D02*
X88756689Y-119383343D01*
X128666000Y-47244000D02*
X117221000Y-47244000D01*
X88756689Y-119383343D02*
X89581657Y-120208311D01*
X121940000Y-114808000D02*
X126111000Y-114808000D01*
X105029000Y-103378000D02*
X110363000Y-103378000D01*
X147320000Y-42480000D02*
X147320000Y-41490051D01*
X174802800Y-62820000D02*
X161980000Y-62820000D01*
X124455000Y-55250000D02*
X124460000Y-55245000D01*
X133990000Y-41920000D02*
X128666000Y-47244000D01*
X120010000Y-55250000D02*
X117475000Y-57785000D01*
X117729000Y-108849000D02*
X117729000Y-110363000D01*
X88756689Y-59248311D02*
X90165000Y-57840000D01*
X90165000Y-98480000D02*
X88756689Y-97071689D01*
X136286000Y-39624000D02*
X133990000Y-41920000D01*
X120091200Y-55250000D02*
X124455000Y-55250000D01*
X114930000Y-52710000D02*
X112141000Y-55499000D01*
X100965000Y-107442000D02*
X105029000Y-103378000D01*
X118100000Y-100960000D02*
X118100000Y-102880000D01*
X117551200Y-52710000D02*
X120091200Y-55250000D01*
X90165000Y-101020000D02*
X88756689Y-102428311D01*
X117729000Y-110363000D02*
X117729000Y-110597000D01*
X117221000Y-47498000D02*
X115316000Y-49403000D01*
X156850000Y-67950000D02*
X149733000Y-60833000D01*
X89581657Y-120208311D02*
X93288343Y-120208311D01*
X93288343Y-120208311D02*
X100965000Y-112531654D01*
X112141000Y-55499000D02*
X104902000Y-55499000D01*
X147320000Y-41490051D02*
X145453949Y-39624000D01*
X145453949Y-39624000D02*
X136286000Y-39624000D01*
X173355000Y-84709000D02*
X173355000Y-88519000D01*
X122555000Y-41910000D02*
X117221000Y-47244000D01*
X161980000Y-62820000D02*
X156850000Y-67950000D01*
D28*
X171704000Y-83058000D02*
X171704000Y-81425394D01*
D27*
X171704000Y-83058000D02*
X173355000Y-84709000D01*
D28*
X171704000Y-81425394D02*
X167005000Y-76726394D01*
D27*
X117221000Y-47244000D02*
X117221000Y-47498000D01*
X149733000Y-60833000D02*
X128905000Y-60833000D01*
X118100000Y-102880000D02*
X114930000Y-106050000D01*
X173355000Y-88519000D02*
X174625000Y-89789000D01*
X114930000Y-52710000D02*
X117551200Y-52710000D01*
X114930000Y-106050000D02*
X117729000Y-108849000D01*
X88756689Y-97071689D02*
X88756689Y-59248311D01*
X100965000Y-112531654D02*
X100965000Y-107442000D01*
X120091200Y-55250000D02*
X120010000Y-55250000D01*
G04 #@! TO.N,GND*
X138303000Y-45847000D02*
X138303000Y-42687000D01*
X144150000Y-88260000D02*
X145508320Y-86901680D01*
X164364180Y-86901680D02*
X165642500Y-88180000D01*
X121452000Y-49276000D02*
X117943000Y-49276000D01*
X154310000Y-49408000D02*
X154305000Y-49403000D01*
X145508320Y-86901680D02*
X164364180Y-86901680D01*
X106289000Y-105029000D02*
X107310000Y-106050000D01*
X107310000Y-106050000D02*
X104135000Y-106050000D01*
X154310000Y-52710000D02*
X154310000Y-49408000D01*
X166906606Y-74128000D02*
X167005000Y-74226394D01*
X105537000Y-105029000D02*
X106289000Y-105029000D01*
X121833000Y-48895000D02*
X121452000Y-49276000D01*
X138303000Y-42687000D02*
X139070000Y-41920000D01*
X117943000Y-49276000D02*
X117816000Y-49403000D01*
X125720000Y-78100000D02*
X133990000Y-78100000D01*
X133990000Y-78100000D02*
X144150000Y-88260000D01*
X156845000Y-74128000D02*
X166906606Y-74128000D01*
X104135000Y-106050000D02*
X102362000Y-107823000D01*
X103378000Y-110744000D02*
X103378000Y-117094000D01*
D29*
G04 #@! TO.N,/~{RES_IN}*
X135041911Y-42355717D02*
X128909539Y-48488089D01*
X91490000Y-66675000D02*
X90165000Y-68000000D01*
X172795000Y-40930000D02*
X166295000Y-40930000D01*
X99912628Y-66675000D02*
X91490000Y-66675000D01*
X121285000Y-62870000D02*
X124455000Y-62870000D01*
X149340793Y-45847000D02*
X145201911Y-41708118D01*
X136094283Y-40868089D02*
X135041911Y-41920461D01*
X102235000Y-62865000D02*
X100965000Y-64135000D01*
X121285000Y-62870000D02*
X114930000Y-62870000D01*
X100965000Y-64135000D02*
X100965000Y-65622628D01*
X161378000Y-45847000D02*
X149340793Y-45847000D01*
X100965000Y-65622628D02*
X99912628Y-66675000D01*
X145201911Y-40868089D02*
X136094283Y-40868089D01*
X135041911Y-41920461D02*
X135041911Y-42355717D01*
X124455000Y-62870000D02*
X124460000Y-62865000D01*
X114930000Y-62870000D02*
X102240000Y-62870000D01*
X124739911Y-48488089D02*
X124333000Y-48895000D01*
X128909539Y-48488089D02*
X124739911Y-48488089D01*
X166295000Y-40930000D02*
X161378000Y-45847000D01*
X145201911Y-41708118D02*
X145201911Y-40868089D01*
X102240000Y-62870000D02*
X102235000Y-62865000D01*
G04 #@! TO.N,Net-(C1-Pad1)*
X101070000Y-52710000D02*
X105520000Y-48260000D01*
X105470000Y-43882000D02*
X105470000Y-47956000D01*
X105537000Y-43815000D02*
X105470000Y-43882000D01*
X99690000Y-52710000D02*
X101070000Y-52710000D01*
X105470000Y-48210000D02*
X105520000Y-48260000D01*
G04 #@! TO.N,Net-(C2-Pad1)*
X110490000Y-43815000D02*
X110450000Y-43855000D01*
X110450000Y-48210000D02*
X110400000Y-48260000D01*
X110400000Y-48260000D02*
X103410000Y-55250000D01*
X110450000Y-43855000D02*
X110450000Y-47956000D01*
X103410000Y-55250000D02*
X99690000Y-55250000D01*
G04 #@! TO.N,/RES_OUT*
X95830283Y-58836911D02*
X98643089Y-58836911D01*
X101082000Y-59182000D02*
X99690000Y-57790000D01*
X118371439Y-70120900D02*
X117729000Y-70120900D01*
X112378100Y-59182000D02*
X101082000Y-59182000D01*
X98643089Y-58836911D02*
X99690000Y-57790000D01*
X95823461Y-58830089D02*
X95830283Y-58836911D01*
X144150000Y-67950000D02*
X140825733Y-64625733D01*
X92705000Y-57840000D02*
X93695089Y-58830089D01*
X140825733Y-64625733D02*
X123866606Y-64625733D01*
X123866606Y-64625733D02*
X118371439Y-70120900D01*
X93695089Y-58830089D02*
X95823461Y-58830089D01*
G04 #@! TO.N,/HOLD*
X93218000Y-56642000D02*
X92075000Y-56642000D01*
X114930000Y-55250000D02*
X113792000Y-56388000D01*
X94366000Y-57790000D02*
X93218000Y-56642000D01*
X91440000Y-57277000D02*
X91440000Y-59105000D01*
X91440000Y-59105000D02*
X90165000Y-60380000D01*
X113792000Y-56388000D02*
X97922000Y-56388000D01*
X96520000Y-57790000D02*
X94366000Y-57790000D01*
X97922000Y-56388000D02*
X96520000Y-57790000D01*
X92075000Y-56642000D02*
X91440000Y-57277000D01*
G04 #@! TO.N,/SOD*
X98548822Y-59188822D02*
X93896178Y-59188822D01*
X93896178Y-59188822D02*
X92705000Y-60380000D01*
X99690000Y-60330000D02*
X98548822Y-59188822D01*
G04 #@! TO.N,/HLDA*
X114930000Y-57790000D02*
X102000011Y-57790000D01*
X114930000Y-57790000D02*
X116322000Y-59182000D01*
X102000011Y-57790000D02*
X101600000Y-57389989D01*
X116322000Y-59182000D02*
X119507000Y-59182000D01*
G04 #@! TO.N,/SID*
X97150000Y-60330000D02*
X96520000Y-60330000D01*
X99690000Y-62870000D02*
X97150000Y-60330000D01*
X95295000Y-60330000D02*
X92705000Y-62920000D01*
X96520000Y-60330000D02*
X95295000Y-60330000D01*
G04 #@! TO.N,/CLK*
X100965000Y-63082628D02*
X99912628Y-64135000D01*
X103505000Y-60325000D02*
X102235000Y-60325000D01*
X142661911Y-51028089D02*
X142661911Y-55568189D01*
X102235000Y-60325000D02*
X100965000Y-61595000D01*
X144150000Y-49540000D02*
X142661911Y-51028089D01*
X103510000Y-60330000D02*
X103505000Y-60325000D01*
X142661911Y-55568189D02*
X142659587Y-55570513D01*
X99912628Y-64135000D02*
X91490000Y-64135000D01*
X114930000Y-60330000D02*
X103510000Y-60330000D01*
X91490000Y-64135000D02*
X90165000Y-65460000D01*
X100965000Y-61595000D02*
X100965000Y-63082628D01*
G04 #@! TO.N,/TRAP*
X96470000Y-65460000D02*
X96520000Y-65410000D01*
X96520000Y-65410000D02*
X99690000Y-65410000D01*
X92705000Y-65460000D02*
X96470000Y-65460000D01*
G04 #@! TO.N,/RST7.5*
X99690000Y-67950000D02*
X96520000Y-67950000D01*
X92755000Y-67950000D02*
X92705000Y-68000000D01*
X96520000Y-67950000D02*
X92755000Y-67950000D01*
G04 #@! TO.N,/IO{slash}~{M}*
X91490000Y-69215000D02*
X90165000Y-70540000D01*
X101595000Y-67950000D02*
X100330000Y-69215000D01*
X100330000Y-69215000D02*
X91490000Y-69215000D01*
X114930000Y-67950000D02*
X101595000Y-67950000D01*
G04 #@! TO.N,/RST5.5*
X92705000Y-70540000D02*
X95195000Y-73030000D01*
X96520000Y-73030000D02*
X99690000Y-73030000D01*
X95195000Y-73030000D02*
X96520000Y-73030000D01*
G04 #@! TO.N,/~{RD}*
X131450000Y-56798636D02*
X126078636Y-62170000D01*
X142107677Y-106040000D02*
X128910000Y-106040000D01*
X134620000Y-56388000D02*
X133985000Y-55753000D01*
X95606155Y-74295000D02*
X93066155Y-71755000D01*
X126070089Y-63921911D02*
X111338089Y-63921911D01*
X146812000Y-56388000D02*
X134620000Y-56388000D01*
X143159588Y-107091911D02*
X142107677Y-106040000D01*
X150402500Y-105960000D02*
X149270589Y-107091911D01*
X93066155Y-71755000D02*
X91490000Y-71755000D01*
X149270589Y-107091911D02*
X143159588Y-107091911D01*
X131450000Y-52710000D02*
X131450000Y-56798636D01*
X111338089Y-63921911D02*
X111125000Y-64135000D01*
X126078636Y-63913364D02*
X126070089Y-63921911D01*
X91490000Y-71755000D02*
X90165000Y-73080000D01*
X126078636Y-62170000D02*
X126078636Y-63913364D01*
X113665000Y-74295000D02*
X95606155Y-74295000D01*
X114930000Y-73030000D02*
X113665000Y-74295000D01*
G04 #@! TO.N,/INTR*
X96520000Y-75570000D02*
X95195000Y-75570000D01*
X96520000Y-75570000D02*
X99690000Y-75570000D01*
X95195000Y-75570000D02*
X92705000Y-73080000D01*
G04 #@! TO.N,/~{WR}*
X126430547Y-64059131D02*
X126215855Y-64273822D01*
X114930000Y-75570000D02*
X113878089Y-76621911D01*
X91266911Y-74518089D02*
X90165000Y-75620000D01*
X116459000Y-69215000D02*
X113411000Y-69215000D01*
X120010000Y-118740000D02*
X117729000Y-116459000D01*
X137805000Y-53975000D02*
X134822657Y-53975000D01*
X128910000Y-118740000D02*
X120010000Y-118740000D01*
X126215855Y-64273822D02*
X121400178Y-64273822D01*
X113030000Y-69596000D02*
X113030000Y-73025000D01*
X113411000Y-69215000D02*
X113030000Y-69596000D01*
X113878089Y-76621911D02*
X95671911Y-76621911D01*
X95671911Y-76621911D02*
X93568089Y-74518089D01*
X93568089Y-74518089D02*
X91266911Y-74518089D01*
X126430547Y-62367110D02*
X126430547Y-64059131D01*
X139070000Y-52710000D02*
X137805000Y-53975000D01*
X134822657Y-53975000D02*
X126430547Y-62367110D01*
X121400178Y-64273822D02*
X116459000Y-69215000D01*
G04 #@! TO.N,/~{INTA}*
X98553822Y-76973822D02*
X99690000Y-78110000D01*
X94058822Y-76973822D02*
X98553822Y-76973822D01*
X92705000Y-75620000D02*
X94058822Y-76973822D01*
G04 #@! TO.N,/A15*
X106172000Y-83058000D02*
X103124000Y-83058000D01*
X103124000Y-83058000D02*
X101940089Y-84241911D01*
X96052911Y-84241911D02*
X95123000Y-83312000D01*
X106304000Y-83190000D02*
X106172000Y-83058000D01*
X114930000Y-83190000D02*
X106304000Y-83190000D01*
X101940089Y-84241911D02*
X96052911Y-84241911D01*
G04 #@! TO.N,/AD0*
X149860000Y-94615000D02*
X164457500Y-94615000D01*
X125720000Y-80640000D02*
X124668089Y-79588089D01*
X100751911Y-79588089D02*
X124668089Y-79588089D01*
X98415000Y-79375000D02*
X93920000Y-79375000D01*
X148595000Y-95880000D02*
X149860000Y-94615000D01*
X144150000Y-95880000D02*
X143098089Y-94828089D01*
X120075689Y-94828089D02*
X119583200Y-94335600D01*
X93920000Y-79375000D02*
X92705000Y-78160000D01*
X144150000Y-95880000D02*
X148595000Y-95880000D01*
X164457500Y-94615000D02*
X165642500Y-95800000D01*
X100751911Y-79588089D02*
X99690000Y-80650000D01*
X143098089Y-94828089D02*
X120075689Y-94828089D01*
X99690000Y-80650000D02*
X98415000Y-79375000D01*
G04 #@! TO.N,/A14*
X116061370Y-113670000D02*
X119739379Y-117348009D01*
X101691089Y-86776911D02*
X96278677Y-86776911D01*
X114930000Y-113670000D02*
X116061370Y-113670000D01*
X165642500Y-121200000D02*
X164670580Y-120228080D01*
X145201920Y-120228080D02*
X144150000Y-121280000D01*
X102717600Y-85750400D02*
X101691089Y-86776911D01*
X119739379Y-117348009D02*
X140716009Y-117348009D01*
X140716009Y-117348009D02*
X142113000Y-118745000D01*
X114930000Y-85730000D02*
X105176400Y-85730000D01*
X105176400Y-85730000D02*
X105156000Y-85750400D01*
X164670580Y-120228080D02*
X145201920Y-120228080D01*
X105156000Y-85750400D02*
X102717600Y-85750400D01*
X96278677Y-86776911D02*
X95114550Y-85612784D01*
G04 #@! TO.N,/A0*
X124232372Y-80640000D02*
X125720461Y-82128089D01*
X93701911Y-81696911D02*
X92705000Y-80700000D01*
X144150000Y-98420000D02*
X134123464Y-98420000D01*
X127721089Y-82128089D02*
X132969000Y-87376000D01*
X134123464Y-98420000D02*
X133477000Y-97773536D01*
X118100000Y-80640000D02*
X124232372Y-80640000D01*
X117043089Y-81696911D02*
X93701911Y-81696911D01*
X164670580Y-97368080D02*
X165642500Y-98340000D01*
X145201920Y-97368080D02*
X164670580Y-97368080D01*
X125720461Y-82128089D02*
X127721089Y-82128089D01*
X118100000Y-80640000D02*
X117043089Y-81696911D01*
X144150000Y-98420000D02*
X145201920Y-97368080D01*
G04 #@! TO.N,/A13*
X120000000Y-116200000D02*
X128910000Y-116200000D01*
X144585717Y-117251911D02*
X141117588Y-117251911D01*
X145717628Y-116120000D02*
X144585717Y-117251911D01*
X150402500Y-116120000D02*
X145717628Y-116120000D01*
X105918000Y-88138000D02*
X101854000Y-88138000D01*
X101854000Y-88138000D02*
X101600000Y-88392000D01*
X114930000Y-111130000D02*
X120000000Y-116200000D01*
X140861766Y-116996089D02*
X129706089Y-116996089D01*
X129706089Y-116996089D02*
X128910000Y-116200000D01*
X106050000Y-88270000D02*
X105918000Y-88138000D01*
X114930000Y-88270000D02*
X106050000Y-88270000D01*
X141117588Y-117251911D02*
X140861766Y-116996089D01*
G04 #@! TO.N,/AD1*
X93522000Y-82423000D02*
X92705000Y-83240000D01*
X164457500Y-92075000D02*
X165642500Y-93260000D01*
X98933000Y-82423000D02*
X93522000Y-82423000D01*
X99695000Y-83185000D02*
X98933000Y-82423000D01*
X128993440Y-91935812D02*
X123097794Y-91935812D01*
X113647856Y-82048822D02*
X113527678Y-82169000D01*
X113527678Y-82169000D02*
X100711000Y-82169000D01*
X125720000Y-83180000D02*
X124588822Y-82048822D01*
X120453251Y-91935812D02*
X120150944Y-91633505D01*
X149860000Y-92075000D02*
X164457500Y-92075000D01*
X122843793Y-92189812D02*
X122012206Y-92189812D01*
X148595000Y-93340000D02*
X149860000Y-92075000D01*
X100711000Y-82169000D02*
X99695000Y-83185000D01*
X124588822Y-82048822D02*
X113647856Y-82048822D01*
X144150000Y-93340000D02*
X130397628Y-93340000D01*
X122012206Y-92189812D02*
X121758206Y-91935812D01*
X130397628Y-93340000D02*
X128993440Y-91935812D01*
X123097794Y-91935812D02*
X122843793Y-92189812D01*
X121758206Y-91935812D02*
X120453251Y-91935812D01*
X144150000Y-93340000D02*
X148595000Y-93340000D01*
G04 #@! TO.N,/A12*
X114930000Y-90810000D02*
X106304000Y-90810000D01*
X164457500Y-117475000D02*
X165642500Y-118660000D01*
X145415000Y-117475000D02*
X164457500Y-117475000D01*
X129347539Y-119790089D02*
X129345717Y-119791911D01*
X106304000Y-90810000D02*
X106172000Y-90678000D01*
X119735870Y-119790089D02*
X116822615Y-116876834D01*
X144150000Y-118740000D02*
X145415000Y-117475000D01*
X101464599Y-90881200D02*
X105968800Y-90881200D01*
X129345717Y-119791911D02*
X128474283Y-119791911D01*
X128474283Y-119791911D02*
X128472461Y-119790089D01*
X144150000Y-118740000D02*
X143099911Y-119790089D01*
X105968800Y-90881200D02*
X106172000Y-90678000D01*
X128472461Y-119790089D02*
X119735870Y-119790089D01*
X143099911Y-119790089D02*
X129347539Y-119790089D01*
G04 #@! TO.N,/A1*
X95548842Y-84584140D02*
X95558524Y-84593822D01*
X118100000Y-83180000D02*
X124232372Y-83180000D01*
X145201920Y-99908080D02*
X164670580Y-99908080D01*
X93900860Y-84584140D02*
X95548842Y-84584140D01*
X92705000Y-85780000D02*
X93900860Y-84584140D01*
X102085856Y-84593822D02*
X102363509Y-84316169D01*
X144150000Y-100960000D02*
X145201920Y-99908080D01*
X125720461Y-84668089D02*
X128864089Y-84668089D01*
X132583000Y-100960000D02*
X144150000Y-100960000D01*
X116963831Y-84316169D02*
X118100000Y-83180000D01*
X128864089Y-84668089D02*
X131572000Y-87376000D01*
X132461000Y-100838000D02*
X132583000Y-100960000D01*
X164670580Y-99908080D02*
X165642500Y-100880000D01*
X95558524Y-84593822D02*
X102085856Y-84593822D01*
X124232372Y-83180000D02*
X125720461Y-84668089D01*
X102363509Y-84316169D02*
X116963831Y-84316169D01*
G04 #@! TO.N,/A11*
X142907676Y-109379999D02*
X129709999Y-109379999D01*
X129709999Y-109379999D02*
X128910000Y-108580000D01*
X114544000Y-92964000D02*
X106299000Y-92964000D01*
X143159588Y-109631911D02*
X142907676Y-109379999D01*
X114930000Y-93350000D02*
X114544000Y-92964000D01*
X120506089Y-107712031D02*
X121374058Y-108580000D01*
X149270589Y-109631911D02*
X143159588Y-109631911D01*
X120506089Y-105647089D02*
X120506089Y-107712031D01*
X106057189Y-92964000D02*
X101727000Y-92964000D01*
X118872000Y-104394000D02*
X119253000Y-104394000D01*
X121374058Y-108580000D02*
X128910000Y-108580000D01*
X119253000Y-104394000D02*
X120506089Y-105647089D01*
X150402500Y-108500000D02*
X149270589Y-109631911D01*
G04 #@! TO.N,/AD2*
X123021363Y-89748089D02*
X122330371Y-89057097D01*
X113284000Y-84946099D02*
X100473901Y-84946099D01*
X143098089Y-89748089D02*
X123021363Y-89748089D01*
X164670580Y-89748080D02*
X165642500Y-90720000D01*
X100473901Y-84946099D02*
X99695000Y-85725000D01*
X113562010Y-84668089D02*
X113284000Y-84946099D01*
X145201920Y-89748080D02*
X164670580Y-89748080D01*
X144150000Y-90800000D02*
X143098089Y-89748089D01*
X124668089Y-84668089D02*
X113562010Y-84668089D01*
X94462649Y-85342757D02*
X94462649Y-86562351D01*
X99695000Y-85725000D02*
X98916099Y-84946099D01*
X144150000Y-90800000D02*
X145201920Y-89748080D01*
X94859307Y-84946099D02*
X94462649Y-85342757D01*
X125720000Y-85720000D02*
X124668089Y-84668089D01*
X98916099Y-84946099D02*
X94859307Y-84946099D01*
X94462649Y-86562351D02*
X92705000Y-88320000D01*
G04 #@! TO.N,/A10*
X130341682Y-104639957D02*
X129201725Y-103500000D01*
X129201725Y-103500000D02*
X128910000Y-103500000D01*
X106189189Y-95890000D02*
X106057189Y-95758000D01*
X150402500Y-103420000D02*
X149203589Y-104618911D01*
X130881736Y-104639957D02*
X130341682Y-104639957D01*
X149203589Y-104618911D02*
X130902782Y-104618911D01*
X101831170Y-95758000D02*
X101716373Y-95872797D01*
X114930000Y-95890000D02*
X106189189Y-95890000D01*
X118835242Y-103500000D02*
X117826671Y-104508571D01*
X130902782Y-104618911D02*
X130881736Y-104639957D01*
X106057189Y-95758000D02*
X101831170Y-95758000D01*
X128910000Y-103500000D02*
X118835242Y-103500000D01*
G04 #@! TO.N,/A2*
X118100000Y-85720000D02*
X119588089Y-87208089D01*
X144150000Y-103500000D02*
X145201920Y-102448080D01*
X145201920Y-102448080D02*
X164670580Y-102448080D01*
X130007089Y-87208089D02*
X130175000Y-87376000D01*
X102195589Y-86770089D02*
X101836855Y-87128822D01*
X118100000Y-85720000D02*
X117043089Y-86776911D01*
X164670580Y-102448080D02*
X165642500Y-103420000D01*
X103516945Y-86776911D02*
X103510122Y-86770089D01*
X144150000Y-103500000D02*
X132344608Y-103500000D01*
X101836855Y-87128822D02*
X96436178Y-87128822D01*
X103510122Y-86770089D02*
X102195589Y-86770089D01*
X132344608Y-103500000D02*
X132240801Y-103396193D01*
X119588089Y-87208089D02*
X130007089Y-87208089D01*
X96436178Y-87128822D02*
X92705000Y-90860000D01*
X117043089Y-86776911D02*
X103516945Y-86776911D01*
G04 #@! TO.N,/A9*
X130417178Y-102096178D02*
X130683000Y-102362000D01*
X124752356Y-102096178D02*
X130417178Y-102096178D01*
X122128089Y-99471911D02*
X115981911Y-99471911D01*
X150402500Y-111040000D02*
X149270589Y-112171911D01*
X129961911Y-112171911D02*
X128910000Y-111120000D01*
X115981911Y-99471911D02*
X114935000Y-98425000D01*
X149270589Y-112171911D02*
X129961911Y-112171911D01*
X122128089Y-99471911D02*
X124752356Y-102096178D01*
X114935000Y-98425000D02*
X101716374Y-98425000D01*
G04 #@! TO.N,/AD3*
X100479267Y-87480733D02*
X99695000Y-88265000D01*
X97840000Y-88265000D02*
X92705000Y-93400000D01*
X129961911Y-89311911D02*
X149270589Y-89311911D01*
X149270589Y-89311911D02*
X150402500Y-88180000D01*
X99695000Y-88265000D02*
X97840000Y-88265000D01*
X103364356Y-87122000D02*
X102341355Y-87122000D01*
X119011144Y-87128822D02*
X103371179Y-87128822D01*
X120142322Y-88260000D02*
X119011144Y-87128822D01*
X128910000Y-88260000D02*
X129961911Y-89311911D01*
X103371179Y-87128822D02*
X103364356Y-87122000D01*
X125720000Y-88260000D02*
X120142322Y-88260000D01*
X101982621Y-87480733D02*
X100479267Y-87480733D01*
X125720000Y-88260000D02*
X128910000Y-88260000D01*
X102341355Y-87122000D02*
X101982621Y-87480733D01*
G04 #@! TO.N,/A8*
X129961911Y-114711911D02*
X128910000Y-113660000D01*
X124419089Y-102448089D02*
X129753089Y-102448089D01*
X149270589Y-114711911D02*
X129961911Y-114711911D01*
X115991911Y-99908089D02*
X121879089Y-99908089D01*
X121879089Y-99908089D02*
X124419089Y-102448089D01*
X114935000Y-100965000D02*
X102743000Y-100965000D01*
X114930000Y-100970000D02*
X115991911Y-99908089D01*
X102743000Y-100965000D02*
X101727000Y-99949000D01*
X150402500Y-113580000D02*
X149270589Y-114711911D01*
X129753089Y-102448089D02*
X130683000Y-103378000D01*
G04 #@! TO.N,/A3*
X116963831Y-89396169D02*
X118100000Y-88260000D01*
X121063999Y-89059999D02*
X121920000Y-89916000D01*
X101601509Y-89396169D02*
X116963831Y-89396169D01*
X92705000Y-95940000D02*
X99012089Y-89632911D01*
X144150000Y-106040000D02*
X145201920Y-104988080D01*
X145201920Y-104988080D02*
X164670580Y-104988080D01*
X130197176Y-104988089D02*
X130211768Y-105002681D01*
X164670580Y-104988080D02*
X165642500Y-105960000D01*
X130211768Y-105002681D02*
X143112681Y-105002681D01*
X121920000Y-104521000D02*
X122387089Y-104988089D01*
X118899999Y-89059999D02*
X121063999Y-89059999D01*
X143112681Y-105002681D02*
X144150000Y-106040000D01*
X99012089Y-89632911D02*
X101364767Y-89632911D01*
X122387089Y-104988089D02*
X130197176Y-104988089D01*
X101364767Y-89632911D02*
X101601509Y-89396169D01*
X118100000Y-88260000D02*
X118899999Y-89059999D01*
G04 #@! TO.N,/AD4*
X125720000Y-90800000D02*
X121501072Y-90800000D01*
X125720000Y-90800000D02*
X128910000Y-90800000D01*
X100515178Y-89984822D02*
X92705000Y-97795000D01*
X128910000Y-90800000D02*
X130398089Y-92288089D01*
X92705000Y-97795000D02*
X92705000Y-98480000D01*
X101747266Y-89748089D02*
X101510533Y-89984822D01*
X121501072Y-90800000D02*
X120449161Y-89748089D01*
X130398089Y-92288089D02*
X148834411Y-92288089D01*
X101510533Y-89984822D02*
X100515178Y-89984822D01*
X120449161Y-89748089D02*
X101747266Y-89748089D01*
X148834411Y-92288089D02*
X150402500Y-90720000D01*
G04 #@! TO.N,/A4*
X118100000Y-90800000D02*
X116969842Y-91930158D01*
X92705000Y-100589000D02*
X92705000Y-101020000D01*
X164670580Y-107528080D02*
X165642500Y-108500000D01*
X118100000Y-90800000D02*
X120575600Y-90800000D01*
X116969842Y-91930158D02*
X99366664Y-91930158D01*
X121158000Y-107442000D02*
X143012000Y-107442000D01*
X99366664Y-91930158D02*
X94234000Y-97062822D01*
X143012000Y-107442000D02*
X144150000Y-108580000D01*
X120575600Y-90800000D02*
X121019434Y-91243834D01*
X144150000Y-108580000D02*
X145201920Y-107528080D01*
X145201920Y-107528080D02*
X164670580Y-107528080D01*
X94234000Y-97062822D02*
X94234000Y-99060000D01*
X94234000Y-99060000D02*
X92705000Y-100589000D01*
G04 #@! TO.N,/AD5*
X106448047Y-92288089D02*
X121612805Y-92288089D01*
X125720000Y-93340000D02*
X128910000Y-93340000D01*
X129961911Y-94391911D02*
X149270589Y-94391911D01*
X92705000Y-103560000D02*
X93882098Y-102382902D01*
X93882098Y-102382902D02*
X93882098Y-99909580D01*
X128910000Y-93340000D02*
X129961911Y-94391911D01*
X106442027Y-92282069D02*
X106448047Y-92288089D01*
X100630931Y-92282069D02*
X106442027Y-92282069D01*
X94585911Y-98327089D02*
X100630931Y-92282069D01*
X149270589Y-94391911D02*
X150402500Y-93260000D01*
X122664716Y-93340000D02*
X125720000Y-93340000D01*
X94585911Y-99205766D02*
X94585911Y-98327089D01*
X93882098Y-99909580D02*
X94585911Y-99205766D01*
X121612805Y-92288089D02*
X122664716Y-93340000D01*
G04 #@! TO.N,/A5*
X92705000Y-106100000D02*
X94234009Y-104570991D01*
X118100000Y-93340000D02*
X119810653Y-93340000D01*
X99420355Y-94615000D02*
X99912628Y-94615000D01*
X122682000Y-109855000D02*
X142885000Y-109855000D01*
X164670580Y-110068080D02*
X165642500Y-111040000D01*
X100801628Y-93726000D02*
X113284000Y-93726000D01*
X142885000Y-109855000D02*
X144150000Y-111120000D01*
X145201920Y-110068080D02*
X164670580Y-110068080D01*
X94234009Y-100055346D02*
X94937822Y-99351532D01*
X99912628Y-94615000D02*
X100801628Y-93726000D01*
X116972000Y-93340000D02*
X116586000Y-93726000D01*
X94937822Y-99097533D02*
X99420355Y-94615000D01*
X118100000Y-93340000D02*
X116972000Y-93340000D01*
X119810653Y-93340000D02*
X120506100Y-94035447D01*
X94937822Y-99351532D02*
X94937822Y-99097533D01*
X94234009Y-104570991D02*
X94234009Y-100055346D01*
X144150000Y-111120000D02*
X145201920Y-110068080D01*
G04 #@! TO.N,/AD6*
X118727856Y-94481178D02*
X101098822Y-94481178D01*
X129961911Y-96931911D02*
X149270589Y-96931911D01*
X125368089Y-95528089D02*
X119774767Y-95528089D01*
X101098822Y-94481178D02*
X94585920Y-100994080D01*
X125720000Y-95880000D02*
X128910000Y-95880000D01*
X94585920Y-100994080D02*
X94585920Y-106759080D01*
X149270589Y-96931911D02*
X150402500Y-95800000D01*
X94585920Y-106759080D02*
X92705000Y-108640000D01*
X119774767Y-95528089D02*
X118727856Y-94481178D01*
X125720000Y-95880000D02*
X125368089Y-95528089D01*
X128910000Y-95880000D02*
X129961911Y-96931911D01*
G04 #@! TO.N,/A6*
X94937831Y-102653524D02*
X94937831Y-108947169D01*
X117053089Y-94833089D02*
X102670717Y-94833089D01*
X94937831Y-108947169D02*
X92705000Y-111180000D01*
X118100000Y-95880000D02*
X124232372Y-95880000D01*
X102670717Y-94833089D02*
X102282909Y-95220897D01*
X124232372Y-95880000D02*
X125720461Y-97368089D01*
X125720461Y-97368089D02*
X132039089Y-97368089D01*
X134244000Y-113660000D02*
X134239000Y-113665000D01*
X144150000Y-113660000D02*
X145201920Y-112608080D01*
X100348806Y-97155000D02*
X99293354Y-97155000D01*
X101058199Y-96445607D02*
X100348806Y-97155000D01*
X145201920Y-112608080D02*
X164670580Y-112608080D01*
X95445822Y-102145533D02*
X94937831Y-102653524D01*
X164670580Y-112608080D02*
X165642500Y-113580000D01*
X99293354Y-97155000D02*
X95445822Y-101002532D01*
X95445822Y-101002532D02*
X95445822Y-102145533D01*
X101440073Y-95220897D02*
X101058199Y-95602771D01*
X132039089Y-97368089D02*
X133477000Y-98806000D01*
X144150000Y-113660000D02*
X134244000Y-113660000D01*
X118100000Y-95880000D02*
X117053089Y-94833089D01*
X102282909Y-95220897D02*
X101440073Y-95220897D01*
X101058199Y-95602771D02*
X101058199Y-96445607D01*
G04 #@! TO.N,/AD7*
X149270589Y-99471911D02*
X150402500Y-98340000D01*
X133860017Y-99471911D02*
X149270589Y-99471911D01*
X115377539Y-96930089D02*
X115370717Y-96936911D01*
X124321178Y-97021178D02*
X117198856Y-97021178D01*
X101189911Y-96930089D02*
X95289742Y-102830258D01*
X125720000Y-98420000D02*
X124321178Y-97021178D01*
X133747027Y-99584901D02*
X133860017Y-99471911D01*
X125720000Y-98420000D02*
X128910000Y-98420000D01*
X95289742Y-111135258D02*
X92705000Y-113720000D01*
X117198856Y-97021178D02*
X117107766Y-96930089D01*
X117107766Y-96930089D02*
X115377539Y-96930089D01*
X114492461Y-96930089D02*
X101189911Y-96930089D01*
X128910000Y-98420000D02*
X130074901Y-99584901D01*
X130074901Y-99584901D02*
X133747027Y-99584901D01*
X115370717Y-96936911D02*
X114499283Y-96936911D01*
X95289742Y-102830258D02*
X95289742Y-111135258D01*
X114499283Y-96936911D02*
X114492461Y-96930089D01*
G04 #@! TO.N,/A7*
X100203000Y-99695000D02*
X99399710Y-99695000D01*
X95641653Y-113323347D02*
X92705000Y-116260000D01*
X99399710Y-99695000D02*
X95641653Y-103453057D01*
X101440073Y-97773099D02*
X101058199Y-98154973D01*
X101058199Y-98154973D02*
X101058199Y-98839801D01*
X116968822Y-97288822D02*
X114353516Y-97288822D01*
X101058199Y-98839801D02*
X100203000Y-99695000D01*
X114353516Y-97288822D02*
X114346695Y-97282000D01*
X129443911Y-99471911D02*
X132334000Y-102362000D01*
X102583072Y-97282000D02*
X102091973Y-97773099D01*
X118100000Y-98420000D02*
X116968822Y-97288822D01*
X134239000Y-116332000D02*
X134371000Y-116200000D01*
X102091973Y-97773099D02*
X101440073Y-97773099D01*
X118100000Y-98420000D02*
X121573856Y-98420000D01*
X122625767Y-99471911D02*
X129443911Y-99471911D01*
X164670580Y-115148080D02*
X165642500Y-116120000D01*
X95641653Y-103453057D02*
X95641653Y-113323347D01*
X145201920Y-115148080D02*
X164670580Y-115148080D01*
X121573856Y-98420000D02*
X122625767Y-99471911D01*
X114346695Y-97282000D02*
X102583072Y-97282000D01*
X132334000Y-102362000D02*
X132806131Y-102362000D01*
X144150000Y-116200000D02*
X145201920Y-115148080D01*
X134371000Y-116200000D02*
X144150000Y-116200000D01*
G04 #@! TO.N,/~{RTS}*
X150281911Y-69001911D02*
X171160889Y-69001911D01*
X149230000Y-67950000D02*
X150281911Y-69001911D01*
X171160889Y-69001911D02*
X174802800Y-65360000D01*
G04 #@! TO.N,/RxD*
X164420000Y-60280000D02*
X174802800Y-60280000D01*
X156850000Y-52710000D02*
X164420000Y-60280000D01*
G04 #@! TO.N,/TxD*
X178943000Y-61880200D02*
X174802800Y-57740000D01*
X139070000Y-67950000D02*
X141097000Y-69977000D01*
X141097000Y-69977000D02*
X176022000Y-69977000D01*
X176022000Y-69977000D02*
X178943000Y-67056000D01*
X178943000Y-67056000D02*
X178943000Y-61880200D01*
G04 #@! TO.N,/~{CTS}*
X133990000Y-67950000D02*
X136398000Y-70358000D01*
X176149000Y-70358000D02*
X180213000Y-66294000D01*
X136398000Y-70358000D02*
X176149000Y-70358000D01*
X180213000Y-60610200D02*
X174802800Y-55200000D01*
X180213000Y-66294000D02*
X180213000Y-60610200D01*
G04 #@! TO.N,Net-(LED1-Pad1)*
X154940000Y-42480000D02*
X157915000Y-42480000D01*
X157915000Y-42480000D02*
X158115000Y-42680000D01*
G04 #@! TO.N,/READY*
X114930000Y-65410000D02*
X117470000Y-65410000D01*
X117470000Y-65410000D02*
X117475000Y-65405000D01*
G04 #@! TO.N,/RST6.5*
X96520000Y-70490000D02*
X99690000Y-70490000D01*
X113919000Y-61595000D02*
X113030000Y-62484000D01*
X113030000Y-62484000D02*
X101616900Y-62484000D01*
X126155959Y-61595000D02*
X113919000Y-61595000D01*
X128910000Y-52710000D02*
X128910000Y-58840959D01*
X128910000Y-58840959D02*
X126155959Y-61595000D01*
G04 #@! TO.N,/ALE*
X114940000Y-78100000D02*
X114930000Y-78110000D01*
X118100000Y-78100000D02*
X114940000Y-78100000D01*
G04 #@! TO.N,/~{ROM}*
X121285000Y-122682000D02*
X151003000Y-122682000D01*
X117475000Y-118872000D02*
X121285000Y-122682000D01*
X151003000Y-122682000D02*
X152527000Y-121158000D01*
G04 #@! TO.N,/~{RAM}*
X130430822Y-120143822D02*
X130937000Y-120650000D01*
X127379178Y-120143822D02*
X130430822Y-120143822D01*
X126873000Y-120650000D02*
X127379178Y-120143822D01*
G04 #@! TO.N,/~{SERIAL}*
X112141000Y-109728000D02*
X112141000Y-104013000D01*
X135255000Y-51435000D02*
X136530000Y-52710000D01*
X112141000Y-104013000D02*
X110109000Y-101981000D01*
X111887000Y-54102000D02*
X114554000Y-51435000D01*
X114554000Y-51435000D02*
X135255000Y-51435000D01*
G04 #@! TO.N,/BAUD_CLK*
X139491911Y-50591911D02*
X141610000Y-52710000D01*
X137581911Y-50591911D02*
X139491911Y-50591911D01*
X136530000Y-49540000D02*
X137581911Y-50591911D01*
G04 #@! TO.N,Net-(U3-Pad1)*
X144150000Y-44460000D02*
X139070000Y-49540000D01*
X144150000Y-41920000D02*
X144150000Y-44460000D01*
G04 #@! TO.N,Net-(U4-Pad15)*
X112649000Y-110871000D02*
X114930000Y-108590000D01*
X112649000Y-113411000D02*
X112649000Y-110871000D01*
X107310000Y-118750000D02*
X112649000Y-113411000D01*
G04 #@! TD*
M02*
