G04 #@! TF.GenerationSoftware,KiCad,Pcbnew,6.0.2*
G04 #@! TF.CreationDate,2022-02-11T23:35:56-08:00*
G04 #@! TF.ProjectId,Easy8085,45617379-3830-4383-952e-6b696361645f,rev?*
G04 #@! TF.SameCoordinates,Original*
G04 #@! TF.FileFunction,Soldermask,Top*
G04 #@! TF.FilePolarity,Negative*
%FSLAX46Y46*%
G04 Gerber Fmt 4.6, Leading zero omitted, Abs format (unit mm)*
G04 Created by KiCad (PCBNEW 6.0.2) date 2022-02-11 23:35:56*
%MOMM*%
%LPD*%
G01*
G04 APERTURE LIST*
%ADD10C,1.600000*%
%ADD11R,1.700000X1.700000*%
%ADD12O,1.700000X1.700000*%
%ADD13R,1.600000X1.600000*%
%ADD14O,1.600000X1.600000*%
%ADD15R,2.000000X4.600000*%
%ADD16O,2.000000X4.200000*%
%ADD17O,4.200000X2.000000*%
%ADD18C,2.700000*%
%ADD19C,1.400000*%
%ADD20O,1.400000X1.400000*%
%ADD21C,2.000000*%
%ADD22R,1.800000X1.800000*%
%ADD23C,1.800000*%
%ADD24R,2.000000X1.440000*%
%ADD25O,2.000000X1.440000*%
%ADD26C,1.500000*%
G04 APERTURE END LIST*
D10*
G04 #@! TO.C,C6*
X128230000Y-75184000D03*
X125730000Y-75184000D03*
G04 #@! TD*
G04 #@! TO.C,C1*
X105537000Y-43815000D03*
X103037000Y-43815000D03*
G04 #@! TD*
G04 #@! TO.C,C2*
X110490000Y-43815000D03*
X112990000Y-43815000D03*
G04 #@! TD*
D11*
G04 #@! TO.C,J3*
X174802800Y-67900000D03*
D12*
X174802800Y-65360000D03*
X174802800Y-62820000D03*
X174802800Y-60280000D03*
X174802800Y-57740000D03*
X174802800Y-55200000D03*
G04 #@! TD*
D13*
G04 #@! TO.C,U3*
X144150000Y-41920000D03*
D14*
X141610000Y-41920000D03*
X139070000Y-41920000D03*
X136530000Y-41920000D03*
X133990000Y-41920000D03*
X131450000Y-41920000D03*
X128910000Y-41920000D03*
X128910000Y-49540000D03*
X131450000Y-49540000D03*
X133990000Y-49540000D03*
X136530000Y-49540000D03*
X139070000Y-49540000D03*
X141610000Y-49540000D03*
X144150000Y-49540000D03*
G04 #@! TD*
D15*
G04 #@! TO.C,J2*
X171704000Y-83058000D03*
D16*
X178004000Y-83058000D03*
D17*
X174604000Y-78258000D03*
G04 #@! TD*
D18*
G04 #@! TO.C,H4*
X181610000Y-132080000D03*
G04 #@! TD*
D19*
G04 #@! TO.C,R4*
X136525000Y-124460000D03*
D20*
X144145000Y-124460000D03*
G04 #@! TD*
D10*
G04 #@! TO.C,C9*
X117729000Y-110363000D03*
X120229000Y-110363000D03*
G04 #@! TD*
G04 #@! TO.C,C12*
X144653000Y-126746000D03*
X144653000Y-129246000D03*
G04 #@! TD*
G04 #@! TO.C,C5*
X123718000Y-41910000D03*
X126218000Y-41910000D03*
G04 #@! TD*
D21*
G04 #@! TO.C,SW1*
X172795000Y-45430000D03*
X166295000Y-45430000D03*
X172795000Y-40930000D03*
X166295000Y-40930000D03*
G04 #@! TD*
D19*
G04 #@! TO.C,R2*
X118110000Y-57785000D03*
D20*
X118110000Y-65405000D03*
G04 #@! TD*
D10*
G04 #@! TO.C,C7*
X156845000Y-71628000D03*
X156845000Y-74128000D03*
G04 #@! TD*
D19*
G04 #@! TO.C,R3*
X154940000Y-42480000D03*
D20*
X147320000Y-42480000D03*
G04 #@! TD*
D13*
G04 #@! TO.C,RN1*
X96266000Y-80645000D03*
D14*
X96266000Y-78105000D03*
X96266000Y-75565000D03*
X96266000Y-73025000D03*
X96266000Y-70485000D03*
X96266000Y-67945000D03*
X96266000Y-65405000D03*
X96266000Y-62865000D03*
X96266000Y-60325000D03*
X96266000Y-57785000D03*
G04 #@! TD*
D10*
G04 #@! TO.C,C10*
X174625000Y-89789000D03*
X177125000Y-89789000D03*
G04 #@! TD*
D22*
G04 #@! TO.C,LED1*
X158115000Y-42680000D03*
D23*
X160655000Y-42680000D03*
G04 #@! TD*
D11*
G04 #@! TO.C,J1*
X90165000Y-57840000D03*
D12*
X92705000Y-57840000D03*
X90165000Y-60380000D03*
X92705000Y-60380000D03*
X90165000Y-62920000D03*
X92705000Y-62920000D03*
X90165000Y-65460000D03*
X92705000Y-65460000D03*
X90165000Y-68000000D03*
X92705000Y-68000000D03*
X90165000Y-70540000D03*
X92705000Y-70540000D03*
X90165000Y-73080000D03*
X92705000Y-73080000D03*
X90165000Y-75620000D03*
X92705000Y-75620000D03*
X90165000Y-78160000D03*
X92705000Y-78160000D03*
X90165000Y-80700000D03*
X92705000Y-80700000D03*
X90165000Y-83240000D03*
X92705000Y-83240000D03*
X90165000Y-85780000D03*
X92705000Y-85780000D03*
X90165000Y-88320000D03*
X92705000Y-88320000D03*
X90165000Y-90860000D03*
X92705000Y-90860000D03*
X90165000Y-93400000D03*
X92705000Y-93400000D03*
X90165000Y-95940000D03*
X92705000Y-95940000D03*
X90165000Y-98480000D03*
X92705000Y-98480000D03*
X90165000Y-101020000D03*
X92705000Y-101020000D03*
X90165000Y-103560000D03*
X92705000Y-103560000D03*
X90165000Y-106100000D03*
X92705000Y-106100000D03*
X90165000Y-108640000D03*
X92705000Y-108640000D03*
X90165000Y-111180000D03*
X92705000Y-111180000D03*
X90165000Y-113720000D03*
X92705000Y-113720000D03*
X90165000Y-116260000D03*
X92705000Y-116260000D03*
X90165000Y-118800000D03*
X92705000Y-118800000D03*
G04 #@! TD*
D13*
G04 #@! TO.C,U1*
X99695000Y-52705000D03*
D14*
X99695000Y-55245000D03*
X99695000Y-57785000D03*
X99695000Y-60325000D03*
X99695000Y-62865000D03*
X99695000Y-65405000D03*
X99695000Y-67945000D03*
X99695000Y-70485000D03*
X99695000Y-73025000D03*
X99695000Y-75565000D03*
X99695000Y-78105000D03*
X99695000Y-80645000D03*
X99695000Y-83185000D03*
X99695000Y-85725000D03*
X99695000Y-88265000D03*
X99695000Y-90805000D03*
X99695000Y-93345000D03*
X99695000Y-95885000D03*
X99695000Y-98425000D03*
X99695000Y-100965000D03*
X114935000Y-100965000D03*
X114935000Y-98425000D03*
X114935000Y-95885000D03*
X114935000Y-93345000D03*
X114935000Y-90805000D03*
X114935000Y-88265000D03*
X114935000Y-85725000D03*
X114935000Y-83185000D03*
X114935000Y-80645000D03*
X114935000Y-78105000D03*
X114935000Y-75565000D03*
X114935000Y-73025000D03*
X114935000Y-70485000D03*
X114935000Y-67945000D03*
X114935000Y-65405000D03*
X114935000Y-62865000D03*
X114935000Y-60325000D03*
X114935000Y-57785000D03*
X114935000Y-55245000D03*
X114935000Y-52705000D03*
G04 #@! TD*
D18*
G04 #@! TO.C,H2*
X90170000Y-132080000D03*
G04 #@! TD*
G04 #@! TO.C,H1*
X90170000Y-40640000D03*
G04 #@! TD*
D24*
G04 #@! TO.C,U7*
X165642500Y-121200000D03*
D25*
X165642500Y-118660000D03*
X165642500Y-116120000D03*
X165642500Y-113580000D03*
X165642500Y-111040000D03*
X165642500Y-108500000D03*
X165642500Y-105960000D03*
X165642500Y-103420000D03*
X165642500Y-100880000D03*
X165642500Y-98340000D03*
X165642500Y-95800000D03*
X165642500Y-93260000D03*
X165642500Y-90720000D03*
X165642500Y-88180000D03*
X150402500Y-88180000D03*
X150402500Y-90720000D03*
X150402500Y-93260000D03*
X150402500Y-95800000D03*
X150402500Y-98340000D03*
X150402500Y-100880000D03*
X150402500Y-103420000D03*
X150402500Y-105960000D03*
X150402500Y-108500000D03*
X150402500Y-111040000D03*
X150402500Y-113580000D03*
X150402500Y-116120000D03*
X150402500Y-118660000D03*
X150402500Y-121200000D03*
G04 #@! TD*
D13*
G04 #@! TO.C,U4*
X107310000Y-106050000D03*
D14*
X107310000Y-108590000D03*
X107310000Y-111130000D03*
X107310000Y-113670000D03*
X107310000Y-116210000D03*
X107310000Y-118750000D03*
X107310000Y-121290000D03*
X107310000Y-123830000D03*
X114930000Y-123830000D03*
X114930000Y-121290000D03*
X114930000Y-118750000D03*
X114930000Y-116210000D03*
X114930000Y-113670000D03*
X114930000Y-111130000D03*
X114930000Y-108590000D03*
X114930000Y-106050000D03*
G04 #@! TD*
D13*
G04 #@! TO.C,C8*
X167005000Y-76726394D03*
D10*
X167005000Y-74226394D03*
G04 #@! TD*
D19*
G04 #@! TO.C,R1*
X124460000Y-62865000D03*
D20*
X124460000Y-55245000D03*
G04 #@! TD*
D10*
G04 #@! TO.C,C4*
X115316000Y-49403000D03*
X117816000Y-49403000D03*
G04 #@! TD*
D13*
G04 #@! TO.C,U5*
X125720000Y-100960000D03*
D14*
X125720000Y-98420000D03*
X125720000Y-95880000D03*
X125720000Y-93340000D03*
X125720000Y-90800000D03*
X125720000Y-88260000D03*
X125720000Y-85720000D03*
X125720000Y-83180000D03*
X125720000Y-80640000D03*
X125720000Y-78100000D03*
X118100000Y-78100000D03*
X118100000Y-80640000D03*
X118100000Y-83180000D03*
X118100000Y-85720000D03*
X118100000Y-88260000D03*
X118100000Y-90800000D03*
X118100000Y-93340000D03*
X118100000Y-95880000D03*
X118100000Y-98420000D03*
X118100000Y-100960000D03*
G04 #@! TD*
D13*
G04 #@! TO.C,C3*
X124333000Y-48895000D03*
D10*
X121833000Y-48895000D03*
G04 #@! TD*
D13*
G04 #@! TO.C,U6*
X144150000Y-121280000D03*
D14*
X144150000Y-118740000D03*
X144150000Y-116200000D03*
X144150000Y-113660000D03*
X144150000Y-111120000D03*
X144150000Y-108580000D03*
X144150000Y-106040000D03*
X144150000Y-103500000D03*
X144150000Y-100960000D03*
X144150000Y-98420000D03*
X144150000Y-95880000D03*
X144150000Y-93340000D03*
X144150000Y-90800000D03*
X144150000Y-88260000D03*
X128910000Y-88260000D03*
X128910000Y-90800000D03*
X128910000Y-93340000D03*
X128910000Y-95880000D03*
X128910000Y-98420000D03*
X128910000Y-100960000D03*
X128910000Y-103500000D03*
X128910000Y-106040000D03*
X128910000Y-108580000D03*
X128910000Y-111120000D03*
X128910000Y-113660000D03*
X128910000Y-116200000D03*
X128910000Y-118740000D03*
X128910000Y-121280000D03*
G04 #@! TD*
D13*
G04 #@! TO.C,D1*
X121285000Y-55250000D03*
D14*
X121285000Y-62870000D03*
G04 #@! TD*
D26*
G04 #@! TO.C,Y1*
X110400000Y-48133000D03*
X105520000Y-48133000D03*
G04 #@! TD*
D10*
G04 #@! TO.C,C11*
X131318000Y-124206000D03*
X128818000Y-124206000D03*
G04 #@! TD*
D13*
G04 #@! TO.C,U2*
X161930000Y-52710000D03*
D14*
X159390000Y-52710000D03*
X156850000Y-52710000D03*
X154310000Y-52710000D03*
X151770000Y-52710000D03*
X149230000Y-52710000D03*
X146690000Y-52710000D03*
X144150000Y-52710000D03*
X141610000Y-52710000D03*
X139070000Y-52710000D03*
X136530000Y-52710000D03*
X133990000Y-52710000D03*
X131450000Y-52710000D03*
X128910000Y-52710000D03*
X128910000Y-67950000D03*
X131450000Y-67950000D03*
X133990000Y-67950000D03*
X136530000Y-67950000D03*
X139070000Y-67950000D03*
X141610000Y-67950000D03*
X144150000Y-67950000D03*
X146690000Y-67950000D03*
X149230000Y-67950000D03*
X151770000Y-67950000D03*
X154310000Y-67950000D03*
X156850000Y-67950000D03*
X159390000Y-67950000D03*
X161930000Y-67950000D03*
G04 #@! TD*
D18*
G04 #@! TO.C,H3*
X181610000Y-40640000D03*
G04 #@! TD*
M02*
